<svg xmlns="http://www.w3.org/2000/svg" xmlns:xlink="http://www.w3.org/1999/xlink" width="25" height="39" viewBox="0 0 25 39"><defs><path id="a" d="M1119 1058.26V1033h22.56v25.26c0 3.95-4.31 7.52-11.28 10.11-6.97-2.59-11.28-6.16-11.28-10.11"/><path id="b" d="M1140.56 1034.02v24.26c0 3.26-3.69 6.53-10.15 9-6.46-2.47-10.15-5.74-10.15-9v-24.26zm-9.72 35.29c7.72-2.86 11.98-6.78 11.98-11.03V1032H1118v26.28c0 4.25 4.26 8.17 11.98 11.03l.43.16z"/><path id="c" d="M1130.46 1051.79c0 2.09-1.9 3.79-4.23 3.79-2.34 0-4.23-1.7-4.23-3.79 0-2.1 1.89-3.79 4.23-3.79 2.33 0 4.23 1.69 4.23 3.79"/><path id="d" d="M1125.79 1049.01c2.02 0 3.67 1.47 3.67 3.28 0 1.82-1.65 3.29-3.67 3.29s-3.66-1.47-3.66-3.29c0-1.81 1.64-3.28 3.66-3.28zm0 7.58c2.65 0 4.8-1.93 4.8-4.3 0-2.36-2.15-4.29-4.8-4.29-2.64 0-4.79 1.93-4.79 4.29 0 2.37 2.15 4.3 4.79 4.3z"/><path id="e" d="M1129.92 1043.03c-2.85 0-5.92-.47-5.92-1.51 0-1.05 3.07-1.52 5.92-1.52.16 0 .28.11.28.25s-.12.26-.28.26c-3.46 0-5.36.66-5.36 1.01 0 .34 1.9 1.01 5.36 1.01.16 0 .28.11.28.25s-.12.25-.28.25"/><path id="f" d="M1133.56 1047.54c-.31 0-.56-.23-.56-.51s.25-.5.56-.5c1.25 0 2.26-.91 2.26-2.02 0-.28.25-.51.56-.51.31 0 .56.23.56.51 0 1.67-1.51 3.03-3.38 3.03"/><path id="g" d="M1137.88 1054.34c-.23 0-.42-.17-.42-.38 0-3.97-3.61-7.2-8.04-7.2-.23 0-.42-.17-.42-.38s.19-.38.42-.38c4.9 0 8.88 3.57 8.88 7.96 0 .21-.19.38-.42.38"/><path id="h" d="M1138.82 1054.26c0 .7-.63 1.26-1.41 1.26-.78 0-1.41-.56-1.41-1.26s.63-1.26 1.41-1.26c.78 0 1.41.56 1.41 1.26"/><path id="i" d="M1136.97 1054.01c.47 0 .85.34.85.76 0 .41-.38.75-.85.75-.46 0-.84-.34-.84-.75 0-.42.38-.76.84-.76zm0 2.52c1.09 0 1.98-.79 1.98-1.76 0-.98-.89-1.77-1.98-1.77-1.08 0-1.97.79-1.97 1.77 0 .97.89 1.76 1.97 1.76z"/><path id="j" d="M1126.42 1048.29c-.23 0-.42-.17-.42-.38v-2.53c0-.21.19-.38.42-.38.24 0 .42.17.42.38v2.53c0 .21-.18.38-.42.38"/><path id="k" d="M1126.28 1051.03c-.15 0-.28-.11-.28-.25v-2.53c0-.13.13-.25.28-.25.16 0 .28.12.28.25v2.53c0 .14-.12.25-.28.25"/><path id="l" d="M1126.28 1046.03c-.15 0-.28-.11-.28-.25v-2.53c0-.13.13-.25.28-.25.16 0 .28.12.28.25v2.53c0 .14-.12.25-.28.25"/><path id="m" d="M1126.28 1043.29a.27.27 0 0 1-.2-.07l-2-1.79a.24.24 0 0 1 0-.36.33.33 0 0 1 .4 0l2 1.79c.11.1.11.26 0 .36a.3.3 0 0 1-.2.07"/><path id="n" d="M1129.24 1046.76h-2.82c-.23 0-.42-.17-.42-.38s.19-.38.42-.38h2.82c.24 0 .42.17.42.38s-.18.38-.42.38"/><path id="o" d="M1126.69 1054.5h-1.41c-.15 0-.28-.11-.28-.25s.13-.25.28-.25h1.41c.16 0 .28.11.28.25s-.12.25-.28.25"/><path id="p" d="M1129.83 1040.76h-1.41c-.23 0-.42-.17-.42-.38s.19-.38.42-.38h1.41c.24 0 .43.17.43.38s-.19.38-.43.38"/><path id="q" d="M1129.83 1042.76h-1.41c-.23 0-.42-.17-.42-.38s.19-.38.42-.38h1.41c.24 0 .43.17.43.38s-.19.38-.43.38"/><path id="r" d="M1126.69 1050.51h-1.41c-.15 0-.28-.12-.28-.26s.13-.25.28-.25h1.41c.16 0 .28.11.28.25s-.12.26-.28.26"/><path id="s" d="M1128.78 1054.3a.17.17 0 0 1-.1-.03l-5.64-5.06c-.05-.04-.05-.12 0-.17.06-.05.15-.05.2 0l5.64 5.05c.05.05.05.13 0 .18a.2.2 0 0 1-.1.03"/><path id="t" d="M1123.14 1054.3a.17.17 0 0 1-.1-.03.13.13 0 0 1 0-.18l5.64-5.05c.05-.05.14-.05.2 0 .05.05.05.13 0 .17l-5.64 5.06a.17.17 0 0 1-.1.03"/><path id="u" d="M1126.41 1051.63c0 .35-.32.63-.71.63-.38 0-.7-.28-.7-.63s.32-.63.7-.63c.39 0 .71.28.71.63"/><path id="v" d="M1125.99 1051.5c.23 0 .42.17.42.38s-.19.38-.42.38c-.24 0-.43-.17-.43-.38s.19-.38.43-.38zm0 1.27c.54 0 .98-.4.98-.89 0-.48-.44-.88-.98-.88-.55 0-.99.4-.99.88 0 .49.44.89.99.89z"/></defs><desc>Generated with Avocode.</desc><g transform="translate(-1118 -1031)"><use fill="#fefefe" xlink:href="#a"/></g><g transform="translate(-1118 -1031)"><use fill="#623713" xlink:href="#b"/></g><g transform="translate(-1118 -1031)"><use fill="#fefefe" xlink:href="#c"/></g><g transform="translate(-1118 -1031)"><use fill="#623713" xlink:href="#d"/></g><g transform="translate(-1118 -1031)"><use fill="#623713" xlink:href="#e"/></g><g transform="translate(-1118 -1031)"><use fill="#623713" xlink:href="#f"/></g><g transform="translate(-1118 -1031)"><use fill="#623713" xlink:href="#g"/></g><g transform="translate(-1118 -1031)"><use fill="#fefefe" xlink:href="#h"/></g><g transform="translate(-1118 -1031)"><use fill="#623713" xlink:href="#i"/></g><g transform="translate(-1118 -1031)"><use fill="#623713" xlink:href="#j"/></g><g transform="translate(-1118 -1031)"><use fill="#623713" xlink:href="#k"/></g><g transform="translate(-1118 -1031)"><use fill="#623713" xlink:href="#l"/></g><g transform="translate(-1118 -1031)"><use fill="#623713" xlink:href="#m"/></g><g transform="translate(-1118 -1031)"><use fill="#623713" xlink:href="#n"/></g><g transform="translate(-1118 -1031)"><use fill="#623713" xlink:href="#o"/></g><g transform="translate(-1118 -1031)"><use fill="#623713" xlink:href="#p"/></g><g transform="translate(-1118 -1031)"><use fill="#623713" xlink:href="#q"/></g><g transform="translate(-1118 -1031)"><use fill="#623713" xlink:href="#r"/></g><g transform="translate(-1118 -1031)"><use fill="#623713" xlink:href="#s"/></g><g transform="translate(-1118 -1031)"><use fill="#623713" xlink:href="#t"/></g><g transform="translate(-1118 -1031)"><use fill="#fefefe" xlink:href="#u"/></g><g transform="translate(-1118 -1031)"><use fill="#623713" xlink:href="#v"/></g></svg>