<svg xmlns="http://www.w3.org/2000/svg" xmlns:xlink="http://www.w3.org/1999/xlink" width="25" height="39" viewBox="0 0 25 39"><defs><path id="a" d="M947.82 636.96v22.75c0 2.7-3.02 5.5-8.33 7.73-5.3-2.23-8.33-5.03-8.33-7.73v-22.75zm-7.53 34.46c7.54-2.96 11.7-7.13 11.7-11.71V633H927v26.71c0 4.58 4.15 8.75 11.7 11.71l.79.32z"/><path id="b" d="M929 659.73V635h20.82v24.73c0 3.86-3.98 7.36-10.41 9.89-6.43-2.53-10.41-6.03-10.41-9.89"/><path id="c" d="M940 635v34.55c6.29-2.52 10.18-6 10.19-9.86V635z"/><path id="d" d="M948.82 635.98v23.74c0 3.19-3.41 6.39-9.37 8.82-5.96-2.43-9.37-5.63-9.37-8.82v-23.74zm-8.97 34.54c7.13-2.8 11.06-6.64 11.06-10.8V634H928v25.72c0 4.16 3.93 8 11.05 10.8l.4.16z"/><path id="e" d="M932.28 643.27h13.87v13.18h-13.87zm14.01 13.44c.08 0 .14-.06.14-.13v-13.45c0-.07-.06-.13-.14-.13h-14.15c-.08 0-.14.06-.14.13v13.45c0 .07.06.13.14.13z"/><path id="f" d="M943.5 643h-1.79l-3.71 5.92h.86z"/><path id="g" d="M937 654.92l5.03-5.92h-1.54z"/><path id="h" d="M937.85 653.64l.93.19-.89.65-.89.66.09-1.07.08-1.07z"/><path id="i" d="M938 649.5h3.1v-.5H938z"/></defs><desc>Generated with Avocode.</desc><g transform="translate(-927 -633)"><use fill="#fefefe" xlink:href="#a"/></g><g transform="translate(-927 -633)"><use fill="#fefefe" xlink:href="#b"/></g><g transform="translate(-927 -633)"><use fill="#fefefe" xlink:href="#c"/></g><g transform="translate(-927 -633)"><use fill="#623713" xlink:href="#d"/></g><g transform="translate(-927 -633)"><use fill="#623713" xlink:href="#e"/></g><g transform="translate(-927 -633)"><use fill="#623713" xlink:href="#f"/></g><g transform="translate(-927 -633)"><use fill="#623713" xlink:href="#g"/></g><g transform="translate(-927 -633)"><use fill="#623713" xlink:href="#h"/></g><g transform="translate(-927 -633)"><use fill="#623713" xlink:href="#i"/></g></svg>