<svg xmlns="http://www.w3.org/2000/svg" xmlns:xlink="http://www.w3.org/1999/xlink" width="24" height="39" viewBox="0 0 24 39"><defs><path id="a" d="M1137.74 774.89v22.34c0 2.67-2.87 5.41-7.9 7.61-5.03-2.2-7.89-4.94-7.89-7.61v-22.34zm-7.14 33.86c7.15-2.92 11.09-7.01 11.09-11.52V771H1118v26.23c0 4.51 3.94 8.6 11.09 11.52l.75.3z"/><path id="b" d="M1120 796.29V772h19.74v24.29c0 3.8-3.77 7.23-9.87 9.72-6.1-2.49-9.87-5.92-9.87-9.72"/><path id="c" d="M1138.74 773.94v23.32c0 3.14-3.23 6.28-8.88 8.67-5.65-2.39-8.89-5.53-8.89-8.67v-23.32zm-8.5 33.94c6.75-2.76 10.47-6.53 10.47-10.62V772H1119v25.26c0 4.09 3.72 7.86 10.48 10.62l.38.15z"/><path id="d" d="M1120.49 784.49h19.25v6.8h-19.25zm-.49 7.28h20.23V784H1120z"/><path id="e" d="M1134.87 787.86a4.9 4.9 0 0 1-4.94 4.86 4.9 4.9 0 0 1-4.93-4.86 4.9 4.9 0 0 1 4.93-4.86 4.9 4.9 0 0 1 4.94 4.86"/><path id="f" d="M1130.18 783.48a4.67 4.67 0 0 1 4.69 4.62 4.67 4.67 0 0 1-4.69 4.62 4.67 4.67 0 0 1-4.69-4.62 4.67 4.67 0 0 1 4.69-4.62zm0 9.72a5.15 5.15 0 0 0 5.18-5.1c0-2.81-2.32-5.1-5.18-5.1a5.15 5.15 0 0 0-5.18 5.1c0 2.81 2.32 5.1 5.18 5.1z"/><path id="g" d="M1130 783.21h.62V782h-.62z"/><path id="h" d="M1129.49 782.49h.13v.73h-.13zm.37 1.21c.14 0 .25-.11.25-.24v-1.22a.25.25 0 0 0-.25-.24h-.61a.25.25 0 0 0-.25.24v1.22c0 .13.11.24.25.24z"/><path id="i" d="M1130.25 781c-.14 0-.25-.1-.25-.24v-1.52a.25.25 0 0 1 .49 0v1.52c0 .14-.11.24-.24.24"/><path id="j" d="M1132.18 780.49h-4.93a.25.25 0 0 1-.25-.25c0-.13.11-.24.25-.24h4.93c.14 0 .25.11.25.24 0 .14-.11.25-.25.25"/><path id="k" d="M1131.93 788.43c0 1.34-1.1 2.43-2.46 2.43a2.45 2.45 0 0 1-2.47-2.43c0-1.34 1.1-2.43 2.47-2.43a2.45 2.45 0 0 1 2.46 2.43"/><path id="l" d="M1129.59 786.24a2.33 2.33 0 0 1 2.34 2.31 2.33 2.33 0 0 1-2.34 2.31 2.33 2.33 0 0 1-2.34-2.31 2.33 2.33 0 0 1 2.34-2.31zm0 4.86a2.57 2.57 0 0 0 2.59-2.55 2.57 2.57 0 0 0-2.59-2.55 2.57 2.57 0 0 0-2.59 2.55 2.57 2.57 0 0 0 2.59 2.55z"/><path id="m" d="M1132.62 788.98h-.02l-4.56-1.86c-.03-.02-.05-.05-.04-.08.02-.03.05-.05.09-.04l4.55 1.86c.03.02.05.05.04.08-.01.03-.03.04-.06.04"/><path id="n" d="M1131.99 788.12h-4.93c-.03 0-.06-.02-.06-.06 0-.03.03-.06.06-.06h4.93c.04 0 .07.03.07.06 0 .04-.03.06-.07.06"/><path id="o" d="M1128.06 789.56a.08.08 0 0 1-.04-.02c-.03-.02-.03-.06 0-.09l3.49-3.43a.05.05 0 0 1 .08 0c.03.02.03.06 0 .08l-3.49 3.44-.04.02"/><path id="p" d="M1128.06 788.98c-.02 0-.05-.01-.05-.04-.02-.03 0-.07.03-.08l4.56-1.86c.03-.01.06.01.08.04.01.03 0 .06-.04.08l-4.55 1.85-.03.01"/><path id="q" d="M1129.06 790.61l-.02-.01c-.03-.01-.05-.04-.03-.08l1.88-4.48c.02-.03.05-.05.09-.04.03.02.04.05.03.08l-1.89 4.49c-.01.03-.03.04-.06.04"/><path id="r" d="M1130.06 790.98a.06.06 0 0 1-.06-.06v-4.86c0-.03.03-.06.06-.06s.06.03.06.06v4.86c0 .03-.03.06-.06.06"/><path id="s" d="M1130.95 790.61c-.03 0-.05-.01-.06-.04l-1.88-4.49c-.02-.03 0-.06.03-.08.03-.01.07.01.08.04l1.89 4.48c.01.04 0 .07-.04.08l-.02.01"/><path id="t" d="M1131.55 789.56l-.04-.02-3.49-3.44a.05.05 0 0 1 0-.08c.02-.03.06-.03.09 0l3.48 3.43c.03.03.03.07 0 .09a.08.08 0 0 1-.04.02"/><path id="u" d="M1131.7 787.82c0 1.01-.83 1.82-1.85 1.82a1.83 1.83 0 0 1-1.85-1.82c0-1 .83-1.82 1.85-1.82s1.85.82 1.85 1.82"/><path id="v" d="M1129.12 788.12h2.35v.49h-2.35zm2.41.61c.03 0 .06-.03.06-.06v-.61a.06.06 0 0 0-.06-.06h-2.47a.06.06 0 0 0-.06.06v.61c0 .03.03.06.06.06z"/><path id="w" d="M1129 782.21h2.47V781H1129z"/><path id="x" d="M1128.49 781.49h1.98v.72h-1.98zm2.22 1.21c.14 0 .25-.11.25-.24v-1.22a.25.25 0 0 0-.25-.24h-2.46a.25.25 0 0 0-.25.24v1.22c0 .13.11.24.25.24z"/></defs><desc>Generated with Avocode.</desc><g transform="translate(-1118 -770)"><use fill="#fefefe" xlink:href="#a"/></g><g transform="translate(-1118 -770)"><use fill="#fefefe" xlink:href="#b"/></g><g transform="translate(-1118 -770)"><use fill="#623713" xlink:href="#c"/></g><g transform="translate(-1118 -770)"><use fill="#623713" xlink:href="#d"/></g><g transform="translate(-1118 -770)"><use fill="#fefefe" xlink:href="#e"/></g><g transform="translate(-1118 -770)"><use fill="#623713" xlink:href="#f"/></g><g transform="translate(-1118 -770)"><use fill="#fefefe" xlink:href="#g"/></g><g transform="translate(-1118 -770)"><use fill="#623713" xlink:href="#h"/></g><g transform="translate(-1118 -770)"><use fill="#623713" xlink:href="#i"/></g><g transform="translate(-1118 -770)"><use fill="#623713" xlink:href="#j"/></g><g transform="translate(-1118 -770)"><use fill="#fefefe" xlink:href="#k"/></g><g transform="translate(-1118 -770)"><use fill="#623713" xlink:href="#l"/></g><g transform="translate(-1118 -770)"><use fill="#623713" xlink:href="#m"/></g><g transform="translate(-1118 -770)"><use fill="#623713" xlink:href="#n"/></g><g transform="translate(-1118 -770)"><use fill="#623713" xlink:href="#o"/></g><g transform="translate(-1118 -770)"><use fill="#623713" xlink:href="#p"/></g><g transform="translate(-1118 -770)"><use fill="#623713" xlink:href="#q"/></g><g transform="translate(-1118 -770)"><use fill="#623713" xlink:href="#r"/></g><g transform="translate(-1118 -770)"><use fill="#623713" xlink:href="#s"/></g><g transform="translate(-1118 -770)"><use fill="#623713" xlink:href="#t"/></g><g transform="translate(-1118 -770)"><use fill="#fefefe" xlink:href="#u"/></g><g transform="translate(-1118 -770)"><use fill="#623713" xlink:href="#v"/></g><g transform="translate(-1118 -770)"><use fill="#fefefe" xlink:href="#w"/></g><g transform="translate(-1118 -770)"><use fill="#623713" xlink:href="#x"/></g></svg>