<svg xmlns="http://www.w3.org/2000/svg" xmlns:xlink="http://www.w3.org/1999/xlink" width="24" height="39" viewBox="0 0 24 39"><defs><path id="a" d="M947.74 968.89v22.35c0 2.66-2.87 5.4-7.9 7.6-5.03-2.2-7.89-4.94-7.89-7.6v-22.35zm-7.14 33.86c7.15-2.92 11.09-7.01 11.09-11.51V965H928v26.24c0 4.5 3.94 8.59 11.09 11.51l.75.3z"/><path id="b" d="M930 990.29V966h19.74v24.29c0 3.8-3.77 7.23-9.87 9.72-6.1-2.49-9.87-5.92-9.87-9.72"/><path id="c" d="M948.74 967.94v23.32c0 3.14-3.23 6.28-8.88 8.66-5.65-2.38-8.88-5.52-8.88-8.66v-23.32zm-8.5 33.94c6.75-2.76 10.47-6.53 10.47-10.62V966H929v25.26c0 4.09 3.72 7.86 10.48 10.62l.38.15z"/><path id="d" d="M933.37 982.12c.14 0 .25.11.25.24 0 .14-.11.25-.25.25a.25.25 0 0 1-.25-.25c0-.13.11-.24.25-.24zm0 .61c.2 0 .37-.16.37-.37 0-.2-.17-.36-.37-.36-.2 0-.37.16-.37.36 0 .21.17.37.37.37z"/><path id="e" d="M932.68 980.12c.31 0 .55.25.55.55 0 .3-.24.55-.55.55a.55.55 0 0 1-.55-.55c0-.3.25-.55.55-.55zm0 1.22c.37 0 .68-.3.68-.67a.68.68 0 0 0-.68-.67c-.37 0-.68.3-.68.67 0 .37.31.67.68.67z"/><path id="f" d="M944.22 973.43a.22.22 0 0 1-.22-.22c0-.11.1-.21.22-.21.11 0 .21.1.21.21 0 .12-.1.22-.21.22"/><path id="g" d="M932.22 982.12c.05 0 .09.04.09.09 0 .05-.04.09-.09.09-.05 0-.1-.04-.1-.09 0-.05.05-.09.1-.09zm0 .31c.12 0 .21-.1.21-.22a.21.21 0 0 0-.21-.21c-.12 0-.22.1-.22.21 0 .12.1.22.22.22z"/><path id="h" d="M937.06 984.84c-.01 0-.03 0-.04-.02a.05.05 0 0 1 0-.08l1.74-1.72c.03-.03.07-.03.09 0 .02.02.02.06 0 .08l-1.75 1.72c-.01.02-.02.02-.04.02"/><path id="i" d="M937.06 985.14l-.03-.01c-.03-.02-.04-.06-.02-.08l1.37-2.02a.07.07 0 0 1 .09-.02c.03.02.03.06.01.08l-1.37 2.02a.05.05 0 0 1-.05.03"/><path id="j" d="M937.06 985.37l-.02-.01c-.03-.01-.05-.05-.03-.08l.94-2.24c.01-.03.05-.05.08-.03.03.01.05.04.03.07l-.94 2.25a.07.07 0 0 1-.06.04"/><path id="k" d="M937.06 984.5h-.01c-.03 0-.06-.04-.05-.07l.48-2.38c.01-.04.04-.06.07-.05.04.01.06.04.05.07l-.48 2.38c0 .03-.03.05-.06.05"/><path id="l" d="M937.06 984.55a.06.06 0 0 1-.06-.06v-2.43c0-.03.03-.06.06-.06.04 0 .06.03.06.06v2.43c0 .03-.02.06-.06.06"/><path id="m" d="M937.54 984.5c-.02 0-.05-.02-.06-.05l-.48-2.38c-.01-.03.02-.06.05-.07.03-.01.07.01.07.05l.48 2.38c.01.03-.01.07-.04.07h-.02"/><path id="n" d="M937.01 985.37a.07.07 0 0 1-.06-.04l-.95-2.25c-.01-.03.01-.06.04-.07.03-.02.07 0 .08.03l.94 2.24c.02.03 0 .07-.03.08l-.02.01"/><path id="o" d="M937.43 985.14a.05.05 0 0 1-.05-.03l-1.37-2.02c-.02-.02-.01-.06.02-.08.02-.02.06-.01.08.02l1.37 2.02c.02.02.01.06-.01.08l-.04.01"/><path id="p" d="M937.81 984.84c-.02 0-.04 0-.05-.02l-1.74-1.72a.05.05 0 0 1 0-.08c.02-.03.06-.03.09 0l1.74 1.72c.02.02.02.06 0 .08-.01.02-.03.02-.04.02"/><path id="q" d="M941.87 986.43a6.48 6.48 0 0 1-4.94 2.43 6.46 6.46 0 0 1-4.93-2.43 6.46 6.46 0 0 1 4.93-2.43c1.93 0 3.68.93 4.94 2.43"/><path id="r" d="M932.57 985.67a6.16 6.16 0 0 1 4.61-2.18c1.73 0 3.36.77 4.61 2.18a6.14 6.14 0 0 1-4.61 2.19 6.17 6.17 0 0 1-4.61-2.19zm4.61 2.67c1.94 0 3.76-.89 5.12-2.51a.23.23 0 0 0 0-.31 6.63 6.63 0 0 0-5.12-2.52c-1.94 0-3.76.89-5.12 2.52a.23.23 0 0 0 0 .31 6.66 6.66 0 0 0 5.12 2.51z"/><path id="s" d="M938.81 987.84a.08.08 0 0 1-.05-.02l-1.74-1.72a.05.05 0 0 1 0-.08c.02-.03.06-.03.09 0l1.74 1.72c.02.02.02.06 0 .08a.08.08 0 0 1-.04.02"/><path id="t" d="M939.11 987.47l-.03-.01-2.05-1.35c-.03-.02-.04-.06-.02-.08a.07.07 0 0 1 .09-.02l2.05 1.35c.03.02.03.06.01.09a.08.08 0 0 1-.05.02"/><path id="u" d="M939.34 987.05h-.02l-2.28-.93c-.03-.02-.05-.05-.04-.08.02-.03.05-.05.09-.04l2.28.93c.03.02.04.05.03.08-.01.03-.03.04-.06.04"/><path id="v" d="M939.48 986.59h-.01l-2.42-.47c-.03-.01-.06-.04-.05-.07.01-.03.04-.06.07-.05l2.42.47c.04.01.06.04.05.08 0 .02-.03.04-.06.04"/><path id="w" d="M939.53 986.12h-2.47a.06.06 0 0 1-.06-.06c0-.03.03-.06.06-.06h2.47c.03 0 .06.03.06.06s-.03.06-.06.06"/><path id="x" d="M937.06 986.59c-.03 0-.05-.02-.06-.05-.01-.03.02-.06.05-.07l2.42-.47c.03 0 .06.01.07.05.01.03-.01.06-.05.07l-2.42.47h-.01"/><path id="y" d="M937.06 986.05c-.02 0-.04-.01-.05-.04-.02-.03 0-.06.03-.08l2.28-.93c.03-.01.06.01.08.04.01.03 0 .06-.03.08l-2.28.92-.03.01"/><path id="z" d="M937.06 986.47a.05.05 0 0 1-.05-.03c-.02-.02-.01-.06.02-.08l2.05-1.35c.03-.02.07-.01.08.02.02.03.02.06-.01.08l-2.05 1.35-.04.01"/><path id="A" d="M937.06 985.84a.08.08 0 0 1-.04-.02.05.05 0 0 1 0-.08l1.74-1.72c.03-.03.07-.03.09 0 .02.02.02.06 0 .08l-1.75 1.72-.04.02"/><path id="B" d="M935.06 987.55a.06.06 0 0 1-.06-.06c0-.03.03-.06.06-.06.65 0 1.17-.52 1.17-1.15 0-.64-.52-1.16-1.17-1.16a.06.06 0 0 1-.06-.06c0-.03.03-.06.06-.06.72 0 1.3.57 1.3 1.28 0 .7-.58 1.27-1.3 1.27"/><path id="C" d="M934.43 985.24c.1 0 .18.08.18.18 0 .11-.08.19-.18.19-.1 0-.18-.08-.18-.19 0-.1.08-.18.18-.18zm0 .61a.42.42 0 1 0 0-.85.42.42 0 1 0 0 .85z"/><path id="D" d="M945.55 989.56a.08.08 0 0 1-.04-.02l-3.49-3.44a.05.05 0 0 1 0-.08.05.05 0 0 1 .08 0l3.49 3.43c.03.03.03.07 0 .09l-.04.02"/><path id="E" d="M946.16 988.82l-.03-.01-4.1-2.7c-.03-.02-.04-.06-.02-.08a.07.07 0 0 1 .09-.02l4.1 2.7c.03.02.04.06.01.08-.01.02-.02.03-.05.03"/><path id="F" d="M946.62 987.98h-.02l-4.56-1.86c-.03-.02-.05-.05-.03-.08.01-.03.04-.05.07-.04l4.56 1.86c.03.02.05.05.04.08-.01.03-.04.04-.06.04"/><path id="G" d="M946.9 987.07h-.01l-4.84-.95c-.03-.01-.06-.04-.05-.07a.08.08 0 0 1 .07-.05l4.85.95c.03.01.05.04.04.07 0 .03-.03.05-.06.05"/><path id="H" d="M947 986.12h-4.94a.06.06 0 0 1-.06-.06c0-.03.03-.06.06-.06H947c.03 0 .06.03.06.06s-.03.06-.06.06"/><path id="I" d="M942.06 986.07c-.03 0-.05-.02-.06-.05-.01-.03.02-.07.05-.07l4.84-.95c.03-.01.06.01.07.05.01.03-.01.06-.05.07l-4.84.95h-.01"/><path id="J" d="M942.06 985.98c-.02 0-.04-.01-.05-.04-.02-.03 0-.06.03-.08l4.56-1.86c.03-.01.06.01.08.04.01.03-.01.06-.04.08l-4.56 1.86h-.02"/><path id="K" d="M942.06 985.82a.05.05 0 0 1-.05-.03c-.02-.03-.01-.06.02-.08l4.1-2.7c.03-.02.07-.01.08.02.02.02.02.06-.01.08l-4.11 2.7-.03.01"/><path id="L" d="M942.06 986.56a.08.08 0 0 1-.04-.02c-.03-.02-.03-.06 0-.09l3.49-3.43a.05.05 0 0 1 .08 0c.03.02.03.06 0 .08l-3.48 3.44-.05.02"/><path id="M" d="M940.9 974.92l-.02-.01-.87-.86a.03.03 0 0 1 0-.04.03.03 0 0 1 .04 0l.88.86v.04l-.03.01"/><path id="N" d="M940.72 975.07l-.03-.01-.69-1.01.01-.05.05.01.68 1.01c.01.02.01.04-.01.05h-.01"/><path id="O" d="M941.5 975.18l-.02-.01-.48-1.13c0-.01 0-.03.02-.04.01 0 .03 0 .04.02l.47 1.12c.01.02 0 .03-.01.04h-.02"/><path id="P" d="M941.27 975.25l-.03-.02-.24-1.19c0-.02.01-.04.03-.04l.03.02.24 1.2c.01.01 0 .03-.02.03h-.01"/><path id="Q" d="M941.03 975.28c-.02 0-.03-.02-.03-.04v-1.21c0-.02.01-.03.03-.03.02 0 .03.01.03.03v1.21c0 .02-.01.04-.03.04"/><path id="R" d="M941.03 975.25c-.02 0-.03-.02-.03-.03l.24-1.2.04-.02c.02 0 .03.02.02.04l-.24 1.19c0 .01-.01.02-.03.02"/><path id="S" d="M941.03 975.18h-.01c-.02-.01-.02-.02-.02-.04l.47-1.12c.01-.02.03-.02.04-.02.02.01.03.03.02.04l-.47 1.13-.03.01"/><path id="T" d="M941.03 975.07h-.02l-.01-.05.69-1.01.04-.01c.02.01.02.03.01.05l-.68 1.01-.03.01"/><path id="U" d="M941.03 974.92l-.02-.01a.03.03 0 0 1 0-.04l.87-.86a.03.03 0 0 1 .04 0c.02.01.02.03 0 .04l-.87.86-.02.01"/><path id="V" d="M939 976.22c.63.74 1.5 1.21 2.47 1.21.96 0 1.83-.47 2.46-1.21a3.22 3.22 0 0 0-2.46-1.22c-.97 0-1.84.47-2.47 1.22"/><path id="W" d="M938.28 975.34a3.09 3.09 0 0 1 2.31-1.1c.86 0 1.68.39 2.31 1.1a3.1 3.1 0 0 1-2.31 1.09 3.1 3.1 0 0 1-2.31-1.09zm2.31 1.33c.97 0 1.88-.45 2.56-1.26a.1.1 0 0 0 0-.15 3.33 3.33 0 0 0-2.56-1.26c-.97 0-1.88.45-2.56 1.26a.1.1 0 0 0 0 .15 3.33 3.33 0 0 0 2.56 1.26z"/><path id="X" d="M940.03 976.92l-.02-.01a.03.03 0 0 1 0-.04l.87-.86a.03.03 0 0 1 .04 0c.02.01.02.03 0 .04l-.87.86-.02.01"/><path id="Y" d="M940.03 976.73l-.02-.01a.03.03 0 0 1 0-.04l1.03-.67a.03.03 0 0 1 .04 0c.01.02.01.04-.01.05l-1.02.67h-.02"/><path id="Z" d="M940.03 976.53l-.03-.02c0-.02 0-.04.02-.04l1.14-.47c.01 0 .03 0 .04.02.01.01 0 .03-.02.04l-1.14.46-.01.01"/><path id="aa" d="M940.03 976.3c-.01 0-.03-.01-.03-.03 0-.01.01-.03.03-.03l1.21-.24.03.02c.01.02 0 .04-.02.04l-1.21.24h-.01"/><path id="ab" d="M941.26 976.06h-1.23c-.02 0-.03-.01-.03-.03 0-.02.01-.03.03-.03h1.23c.02 0 .04.01.04.03 0 .02-.02.03-.04.03"/><path id="ac" d="M941.24 975.3l-1.22-.24-.02-.03c0-.02.02-.03.04-.03l1.21.24c.02 0 .02.02.02.03 0 .02-.01.03-.03.03"/><path id="ad" d="M941.17 975.53l-.01-.01-1.14-.46c-.02-.01-.02-.02-.02-.04.01-.02.03-.02.04-.02l1.14.47c.02 0 .03.02.02.04l-.03.02"/><path id="ae" d="M941.06 975.74l-.02-.01-1.03-.67v-.05l.04-.01 1.02.68c.02.01.02.03.01.04l-.02.02"/><path id="af" d="M940.9 975.92l-.02-.01-.87-.86a.03.03 0 0 1 0-.04.03.03 0 0 1 .04 0l.88.86v.04l-.03.01"/><path id="ag" d="M942.65 976.28a.65.65 0 0 1-.65-.64c0-.35.29-.64.65-.64.01 0 .03.01.03.03 0 .02-.02.03-.03.03a.59.59 0 0 0-.59.58c0 .32.27.57.59.57l.03.03c0 .02-.02.04-.03.04"/><path id="ah" d="M942.22 975.43a.22.22 0 0 1-.22-.22c0-.11.1-.21.22-.21.11 0 .21.1.21.21 0 .12-.1.22-.21.22"/><path id="ai" d="M937.03 977.78l-.02-.01a.03.03 0 0 1 0-.04l1.74-1.72h.05v.04l-1.75 1.72-.02.01"/><path id="aj" d="M937.03 977.41l-.03-.01.01-.05 2.06-1.34a.03.03 0 0 1 .04 0c.01.02 0 .04-.01.05l-2.05 1.35h-.02"/><path id="ak" d="M936.03 976.99l-.03-.02c0-.01 0-.03.02-.04l2.28-.93c.01 0 .03 0 .04.02 0 .01 0 .03-.02.04l-2.28.93h-.01"/><path id="al" d="M936.03 976.54c-.01 0-.03-.01-.03-.03 0-.02.01-.03.03-.04l2.41-.47.04.02-.02.04-2.42.48h-.01"/><path id="am" d="M938.5 976.06h-2.47c-.02 0-.03-.01-.03-.03 0-.02.01-.03.03-.03h2.47c.02 0 .03.01.03.03 0 .02-.01.03-.03.03"/><path id="an" d="M938.45 975.54l-.01-.01-2.41-.47c-.02 0-.03-.02-.03-.03.01-.02.02-.04.04-.03l2.42.47.02.04c0 .02-.01.03-.03.03"/><path id="ao" d="M938.31 975.99h-.01l-2.28-.93c-.02-.01-.02-.03-.02-.04.01-.02.03-.02.04-.02l2.28.93c.02.01.02.03.02.04l-.03.02"/><path id="ap" d="M939.08 975.41h-.02l-2.05-1.35v-.05l.04-.01 2.05 1.35c.01.01.02.03.01.05l-.03.01"/><path id="aq" d="M938.78 975.78l-.03-.01-1.74-1.72a.03.03 0 0 1 0-.04.03.03 0 0 1 .04 0l1.75 1.72v.04l-.02.01"/><path id="ar" d="M933.73 971.62c-.46 0-.91-.08-1.26-.25a3.06 3.06 0 0 0-2.41 0l-.06-.11a3.2 3.2 0 0 1 2.52 0c.67.32 1.75.32 2.41 0 .7-.35 1.83-.35 2.53 0 .66.32 1.74.32 2.41 0a3.2 3.2 0 0 1 2.52 0c.67.32 1.75.32 2.41 0a3.26 3.26 0 0 1 2.51-.01l.02.01c.66.32 1.74.32 2.41 0l.05.11c-.69.34-1.81.34-2.51 0h-.01a3.06 3.06 0 0 0-2.41 0c-.7.34-1.83.34-2.52 0a3.08 3.08 0 0 0-2.42 0c-.69.34-1.82.34-2.52 0a3.06 3.06 0 0 0-2.41 0c-.35.17-.81.25-1.26.25"/></defs><desc>Generated with Avocode.</desc><g transform="translate(-928 -964)"><use fill="#fefefe" xlink:href="#a"/></g><g transform="translate(-928 -964)"><use fill="#fefefe" xlink:href="#b"/></g><g transform="translate(-928 -964)"><use fill="#623713" xlink:href="#c"/></g><g transform="translate(-928 -964)"><use fill="#623713" xlink:href="#d"/></g><g transform="translate(-928 -964)"><use fill="#623713" xlink:href="#e"/></g><g transform="translate(-928 -964)"><use fill="#623713" xlink:href="#f"/></g><g transform="translate(-928 -964)"><use fill="#623713" xlink:href="#g"/></g><g transform="translate(-928 -964)"><use fill="#623713" xlink:href="#h"/></g><g transform="translate(-928 -964)"><use fill="#623713" xlink:href="#i"/></g><g transform="translate(-928 -964)"><use fill="#623713" xlink:href="#j"/></g><g transform="translate(-928 -964)"><use fill="#623713" xlink:href="#k"/></g><g transform="translate(-928 -964)"><use fill="#623713" xlink:href="#l"/></g><g transform="translate(-928 -964)"><use fill="#623713" xlink:href="#m"/></g><g transform="translate(-928 -964)"><use fill="#623713" xlink:href="#n"/></g><g transform="translate(-928 -964)"><use fill="#623713" xlink:href="#o"/></g><g transform="translate(-928 -964)"><use fill="#623713" xlink:href="#p"/></g><g transform="translate(-928 -964)"><use fill="#fefefe" xlink:href="#q"/></g><g transform="translate(-928 -964)"><use fill="#623713" xlink:href="#r"/></g><g transform="translate(-928 -964)"><use fill="#623713" xlink:href="#s"/></g><g transform="translate(-928 -964)"><use fill="#623713" xlink:href="#t"/></g><g transform="translate(-928 -964)"><use fill="#623713" xlink:href="#u"/></g><g transform="translate(-928 -964)"><use fill="#623713" xlink:href="#v"/></g><g transform="translate(-928 -964)"><use fill="#623713" xlink:href="#w"/></g><g transform="translate(-928 -964)"><use fill="#623713" xlink:href="#x"/></g><g transform="translate(-928 -964)"><use fill="#623713" xlink:href="#y"/></g><g transform="translate(-928 -964)"><use fill="#623713" xlink:href="#z"/></g><g transform="translate(-928 -964)"><use fill="#623713" xlink:href="#A"/></g><g transform="translate(-928 -964)"><use fill="#623713" xlink:href="#B"/></g><g transform="translate(-928 -964)"><use fill="#623713" xlink:href="#C"/></g><g transform="translate(-928 -964)"><use fill="#623713" xlink:href="#D"/></g><g transform="translate(-928 -964)"><use fill="#623713" xlink:href="#E"/></g><g transform="translate(-928 -964)"><use fill="#623713" xlink:href="#F"/></g><g transform="translate(-928 -964)"><use fill="#623713" xlink:href="#G"/></g><g transform="translate(-928 -964)"><use fill="#623713" xlink:href="#H"/></g><g transform="translate(-928 -964)"><use fill="#623713" xlink:href="#I"/></g><g transform="translate(-928 -964)"><use fill="#623713" xlink:href="#J"/></g><g transform="translate(-928 -964)"><use fill="#623713" xlink:href="#K"/></g><g transform="translate(-928 -964)"><use fill="#623713" xlink:href="#L"/></g><g transform="translate(-928 -964)"><use fill="#623713" xlink:href="#M"/></g><g transform="translate(-928 -964)"><use fill="#623713" xlink:href="#N"/></g><g transform="translate(-928 -964)"><use fill="#623713" xlink:href="#O"/></g><g transform="translate(-928 -964)"><use fill="#623713" xlink:href="#P"/></g><g transform="translate(-928 -964)"><use fill="#623713" xlink:href="#Q"/></g><g transform="translate(-928 -964)"><use fill="#623713" xlink:href="#R"/></g><g transform="translate(-928 -964)"><use fill="#623713" xlink:href="#S"/></g><g transform="translate(-928 -964)"><use fill="#623713" xlink:href="#T"/></g><g transform="translate(-928 -964)"><use fill="#623713" xlink:href="#U"/></g><g transform="translate(-928 -964)"><use fill="#fefefe" xlink:href="#V"/></g><g transform="translate(-928 -964)"><use fill="#623713" xlink:href="#W"/></g><g transform="translate(-928 -964)"><use fill="#623713" xlink:href="#X"/></g><g transform="translate(-928 -964)"><use fill="#623713" xlink:href="#Y"/></g><g transform="translate(-928 -964)"><use fill="#623713" xlink:href="#Z"/></g><g transform="translate(-928 -964)"><use fill="#623713" xlink:href="#aa"/></g><g transform="translate(-928 -964)"><use fill="#623713" xlink:href="#ab"/></g><g transform="translate(-928 -964)"><use fill="#623713" xlink:href="#ac"/></g><g transform="translate(-928 -964)"><use fill="#623713" xlink:href="#ad"/></g><g transform="translate(-928 -964)"><use fill="#623713" xlink:href="#ae"/></g><g transform="translate(-928 -964)"><use fill="#623713" xlink:href="#af"/></g><g transform="translate(-928 -964)"><use fill="#623713" xlink:href="#ag"/></g><g transform="translate(-928 -964)"><use fill="#623713" xlink:href="#ah"/></g><g transform="translate(-928 -964)"><use fill="#623713" xlink:href="#ai"/></g><g transform="translate(-928 -964)"><use fill="#623713" xlink:href="#aj"/></g><g transform="translate(-928 -964)"><use fill="#623713" xlink:href="#ak"/></g><g transform="translate(-928 -964)"><use fill="#623713" xlink:href="#al"/></g><g transform="translate(-928 -964)"><use fill="#623713" xlink:href="#am"/></g><g transform="translate(-928 -964)"><use fill="#623713" xlink:href="#an"/></g><g transform="translate(-928 -964)"><use fill="#623713" xlink:href="#ao"/></g><g transform="translate(-928 -964)"><use fill="#623713" xlink:href="#ap"/></g><g transform="translate(-928 -964)"><use fill="#623713" xlink:href="#aq"/></g><g transform="translate(-928 -964)"><use fill="#623713" xlink:href="#ar"/></g></svg>