<svg xmlns="http://www.w3.org/2000/svg" xmlns:xlink="http://www.w3.org/1999/xlink" width="24" height="39" viewBox="0 0 24 39"><defs><path id="a" d="M946.74 833.89v22.35c0 2.66-2.87 5.41-7.9 7.6-5.03-2.19-7.89-4.94-7.89-7.6v-22.35zm-7.14 33.86c7.15-2.92 11.09-7.01 11.09-11.51V830H927v26.24c0 4.5 3.94 8.59 11.09 11.51l.75.31z"/><path id="b" d="M939 831v34.01c6.09-2.49 9.86-5.91 9.87-9.7V831z"/><path id="c" d="M947.74 832.94v23.33c0 3.13-3.23 6.28-8.88 8.66-5.66-2.38-8.89-5.53-8.89-8.66v-23.33zm-8.51 33.94c6.76-2.76 10.48-6.52 10.48-10.61V831H928v25.27c0 4.09 3.72 7.85 10.48 10.61l.38.15z"/><path id="d" d="M933.25 847.24l9-2.95v5.78h-9zm9.13 3.08c.06 0 .12-.06.12-.13v-6.07c0-.04-.02-.07-.05-.1a.1.1 0 0 0-.11-.01l-9.26 3.03a.12.12 0 0 0-.08.12v3.03c0 .07.05.13.12.13z"/><path id="e" d="M942.92 853.24h-9.8a.12.12 0 0 1-.12-.12c0-.06.05-.12.12-.12h9.8c.06 0 .12.06.12.12 0 .07-.06.12-.12.12"/><path id="f" d="M944.04 854.49h-10.79a.25.25 0 0 1-.25-.25c0-.13.11-.24.25-.24h10.79c.14 0 .25.11.25.24 0 .14-.11.25-.25.25"/><path id="g" d="M934.54 854.76c0 .42-.34.76-.77.76a.76.76 0 0 1-.77-.76c0-.42.34-.76.77-.76s.77.34.77.76"/><path id="h" d="M933.02 854.49a.51.51 0 1 1 0 1.03.52.52 0 0 1-.53-.52c0-.28.24-.51.53-.51zm0 1.51a1 1 0 0 0 1.01-1 1 1 0 0 0-1.01-1c-.56 0-1.02.45-1.02 1s.46 1 1.02 1z"/><path id="i" d="M944.56 854.8a.25.25 0 0 1-.23-.15l-2.31-5.31a.24.24 0 0 1 .13-.32c.12-.05.27 0 .32.13l2.32 5.31a.25.25 0 0 1-.13.32.36.36 0 0 1-.1.02"/><path id="j" d="M944.54 854.76c0 .42-.34.76-.77.76a.76.76 0 0 1-.77-.76c0-.42.34-.76.77-.76s.77.34.77.76"/><path id="k" d="M944.02 854.49a.51.51 0 1 1 0 1.03.52.52 0 0 1-.53-.52c0-.28.24-.51.53-.51zm0 1.51c.56 0 1.02-.45 1.02-1s-.46-1-1.02-1-1.02.45-1.02 1 .46 1 1.02 1z"/><path id="l" d="M933.12 848.76a.12.12 0 0 1-.12-.1.12.12 0 0 1 .1-.14l9.25-1.52c.08-.01.14.04.15.1a.12.12 0 0 1-.1.14l-9.26 1.52h-.02"/><path id="m" d="M939.12 850.26c-.07 0-.12-.06-.12-.13v-5.01c0-.06.05-.12.12-.12.07 0 .13.06.13.12v5.01c0 .07-.06.13-.13.13"/><path id="n" d="M936.12 850.19a.12.12 0 0 1-.12-.12v-3.95c0-.07.06-.12.12-.12.07 0 .13.05.13.12v3.95c0 .07-.06.12-.13.12"/><path id="o" d="M936.12 854.76a.12.12 0 0 1-.12-.12v-1.52c0-.06.06-.12.12-.12.07 0 .13.06.13.12v1.52c0 .07-.06.12-.13.12"/><path id="p" d="M939.12 854.76a.12.12 0 0 1-.12-.12v-1.52c0-.06.05-.12.12-.12.07 0 .13.06.13.12v1.52c0 .07-.06.12-.13.12"/><path id="q" d="M942.12 854.76a.12.12 0 0 1-.12-.12v-1.52c0-.06.06-.12.12-.12.07 0 .13.06.13.12v1.52c0 .07-.06.12-.13.12"/><path id="r" d="M933.12 854.76a.12.12 0 0 1-.12-.12v-1.52c0-.06.05-.12.12-.12.07 0 .13.06.13.12v1.52c0 .07-.06.12-.13.12"/><path id="s" d="M945.33 843.49h-3.08a.25.25 0 0 1-.25-.25c0-.13.11-.24.25-.24h3.08c.14 0 .25.11.25.24 0 .14-.11.25-.25.25"/><path id="t" d="M942.25 849.56a.25.25 0 0 1-.25-.24v-6.08a.25.25 0 0 1 .49 0v6.08c0 .13-.11.24-.24.24"/><path id="u" d="M948.86 856.24h-19.74a.12.12 0 0 1-.12-.12c0-.06.05-.12.12-.12h19.74c.07 0 .12.06.12.12 0 .07-.05.12-.12.12"/></defs><desc>Generated with Avocode.</desc><g transform="translate(-927 -829)"><use fill="#fefefe" xlink:href="#a"/></g><g transform="translate(-927 -829)"><use fill="#fefefe" xlink:href="#b"/></g><g transform="translate(-927 -829)"><use fill="#623713" xlink:href="#c"/></g><g transform="translate(-927 -829)"><use fill="#623713" xlink:href="#d"/></g><g transform="translate(-927 -829)"><use fill="#623713" xlink:href="#e"/></g><g transform="translate(-927 -829)"><use fill="#623713" xlink:href="#f"/></g><g transform="translate(-927 -829)"><use fill="#fefefe" xlink:href="#g"/></g><g transform="translate(-927 -829)"><use fill="#623713" xlink:href="#h"/></g><g transform="translate(-927 -829)"><use fill="#623713" xlink:href="#i"/></g><g transform="translate(-927 -829)"><use fill="#fefefe" xlink:href="#j"/></g><g transform="translate(-927 -829)"><use fill="#623713" xlink:href="#k"/></g><g transform="translate(-927 -829)"><use fill="#623713" xlink:href="#l"/></g><g transform="translate(-927 -829)"><use fill="#623713" xlink:href="#m"/></g><g transform="translate(-927 -829)"><use fill="#623713" xlink:href="#n"/></g><g transform="translate(-927 -829)"><use fill="#623713" xlink:href="#o"/></g><g transform="translate(-927 -829)"><use fill="#623713" xlink:href="#p"/></g><g transform="translate(-927 -829)"><use fill="#623713" xlink:href="#q"/></g><g transform="translate(-927 -829)"><use fill="#623713" xlink:href="#r"/></g><g transform="translate(-927 -829)"><use fill="#623713" xlink:href="#s"/></g><g transform="translate(-927 -829)"><use fill="#623713" xlink:href="#t"/></g><g transform="translate(-927 -829)"><use fill="#623713" xlink:href="#u"/></g></svg>