<svg xmlns="http://www.w3.org/2000/svg" xmlns:xlink="http://www.w3.org/1999/xlink" width="24" height="39" viewBox="0 0 24 39"><defs><path id="a" d="M946.74 902.89v22.35c0 2.66-2.87 5.41-7.9 7.6-5.03-2.19-7.89-4.94-7.89-7.6v-22.35zm-7.14 33.86c7.15-2.92 11.09-7.01 11.09-11.51V899H927v26.24c0 4.5 3.94 8.59 11.09 11.51l.75.31z"/><path id="b" d="M929 924.29V900h19.74v24.29c0 3.8-3.77 7.23-9.87 9.72-6.1-2.49-9.87-5.92-9.87-9.72"/><path id="c" d="M947.74 901.94v23.32c0 3.14-3.23 6.28-8.88 8.67-5.66-2.39-8.89-5.53-8.89-8.67v-23.32zm-8.51 33.94c6.76-2.76 10.48-6.53 10.48-10.62V900H928v25.26c0 4.09 3.72 7.86 10.48 10.62l.38.15z"/><path id="d" d="M948.86 926.24h-19.74a.12.12 0 0 1-.12-.12c0-.07.06-.12.12-.12h19.74c.07 0 .12.05.12.12 0 .07-.05.12-.12.12"/><path id="e" d="M936.85 907.83h1.69c.93 0 1.69.75 1.69 1.67 0 .92-.76 1.66-1.69 1.66h-1.69zm0 4.17h1.69c1.4 0 2.53-1.12 2.53-2.5s-1.13-2.5-2.53-2.5H936v7.7h.85z"/><path id="f" d="M934.25 905.24h9.62v9.48h-9.62zm9.74 9.72c.07 0 .12-.06.12-.12v-9.72a.12.12 0 0 0-.12-.12h-9.87a.12.12 0 0 0-.12.12v9.72c0 .06.05.12.12.12z"/><path id="g" d="M931.49 921.92h2.22c.07 0 .13-.03.18-.08l2.39-2.35h7.2l2.32 2.28v2.09h-14.31zm14.56 2.42c.14 0 .25-.1.25-.24v-2.43a.28.28 0 0 0-.07-.17l-2.47-2.43a.24.24 0 0 0-.18-.07h-7.4c-.06 0-.13.02-.17.07l-2.4 2.36h-2.36a.25.25 0 0 0-.25.24v2.43c0 .14.11.24.25.24z"/><path id="h" d="M936.47 924.22c0 .67-.56 1.21-1.24 1.21-.68 0-1.23-.54-1.23-1.21 0-.68.55-1.22 1.23-1.22.68 0 1.24.54 1.24 1.22"/><path id="i" d="M934.73 923.97c.4 0 .74.33.74.73 0 .4-.34.73-.74.73a.74.74 0 0 1-.74-.73c0-.4.33-.73.74-.73zm0 2.43a1.7 1.7 0 0 0 1.72-1.7c0-.94-.77-1.7-1.72-1.7s-1.73.76-1.73 1.7.78 1.7 1.73 1.7z"/><path id="j" d="M943.47 924.22c0 .67-.56 1.21-1.24 1.21-.68 0-1.23-.54-1.23-1.21 0-.68.55-1.22 1.23-1.22.68 0 1.24.54 1.24 1.22"/><path id="k" d="M942.73 923.97c.4 0 .74.33.74.73a.74.74 0 1 1-1.49 0c0-.4.34-.73.75-.73zm0 2.43a1.7 1.7 0 0 0 1.72-1.7c0-.94-.77-1.7-1.72-1.7-.96 0-1.73.76-1.73 1.7s.77 1.7 1.73 1.7z"/><path id="l" d="M946.58 922.49h-12.33a.25.25 0 0 1-.25-.25c0-.13.11-.24.25-.24h12.33c.14 0 .25.11.25.24 0 .14-.11.25-.25.25"/><path id="m" d="M939.12 924.1a.12.12 0 0 1-.12-.12v-4.86c0-.07.05-.12.12-.12.07 0 .13.05.13.12v4.86c0 .07-.06.12-.13.12"/></defs><desc>Generated with Avocode.</desc><g transform="translate(-927 -898)"><use fill="#fefefe" xlink:href="#a"/></g><g transform="translate(-927 -898)"><use fill="#fefefe" xlink:href="#b"/></g><g transform="translate(-927 -898)"><use fill="#623713" xlink:href="#c"/></g><g transform="translate(-927 -898)"><use fill="#623713" xlink:href="#d"/></g><g transform="translate(-927 -898)"><use fill="#623713" xlink:href="#e"/></g><g transform="translate(-927 -898)"><use fill="#623713" xlink:href="#f"/></g><g transform="translate(-927 -898)"><use fill="#623713" xlink:href="#g"/></g><g transform="translate(-927 -898)"><use fill="#fefefe" xlink:href="#h"/></g><g transform="translate(-927 -898)"><use fill="#623713" xlink:href="#i"/></g><g transform="translate(-927 -898)"><use fill="#fefefe" xlink:href="#j"/></g><g transform="translate(-927 -898)"><use fill="#623713" xlink:href="#k"/></g><g transform="translate(-927 -898)"><use fill="#623713" xlink:href="#l"/></g><g transform="translate(-927 -898)"><use fill="#623713" xlink:href="#m"/></g></svg>