<svg xmlns="http://www.w3.org/2000/svg" xmlns:xlink="http://www.w3.org/1999/xlink" width="24" height="39" viewBox="0 0 24 39"><defs><path id="a" d="M947.74 705.89v22.35c0 2.66-2.87 5.4-7.9 7.6-5.03-2.2-7.89-4.94-7.89-7.6v-22.35zm-7.14 33.86c7.15-2.92 11.09-7.01 11.09-11.51V702H928v26.24c0 4.5 3.94 8.59 11.09 11.51l.75.31z"/><path id="b" d="M930 727.29V703h19.74v24.29c0 3.8-3.77 7.23-9.87 9.72-6.1-2.49-9.87-5.92-9.87-9.72"/><path id="c" d="M940 703v34.01c6.08-2.48 9.85-5.91 9.87-9.69V703z"/><path id="d" d="M948.74 704.94v23.33c0 3.13-3.23 6.28-8.88 8.66-5.65-2.38-8.88-5.53-8.88-8.66v-23.33zm-8.51 33.94c6.76-2.76 10.48-6.53 10.48-10.61V703H929v25.27c0 4.08 3.72 7.85 10.48 10.61l.38.15z"/><path id="e" d="M935.49 713.2l4.69-4.62 4.69 4.62v13.02h-9.38zm9.62 13.5c.14 0 .25-.11.25-.24V713.1c0-.06-.02-.13-.07-.17l-4.94-4.86a.25.25 0 0 0-.34 0l-4.94 4.86a.26.26 0 0 0-.07.17v13.36c0 .13.11.24.25.24z"/><path id="f" d="M945.58 714.56a.28.28 0 0 1-.17-.07l-6-5.91-5.99 5.91c-.09.09-.25.09-.35 0a.26.26 0 0 1 0-.35l6.17-6.07a.26.26 0 0 1 .35 0l6.17 6.07c.09.1.09.25 0 .35a.29.29 0 0 1-.18.07"/><path id="g" d="M937.49 715.67c.01-1.2 1-2.18 2.22-2.18a2.2 2.2 0 0 1 2.22 2.18v10.69h-4.44zm4.69 11.18c.14 0 .25-.11.25-.25v-10.93a2.7 2.7 0 0 0-2.72-2.67 2.7 2.7 0 0 0-2.71 2.67v10.93c0 .14.11.25.25.25z"/><path id="h" d="M935.49 726.48h9.38v.73h-9.38zm9.63 1.22c.13 0 .24-.11.24-.24v-1.22a.24.24 0 0 0-.24-.24h-9.87a.25.25 0 0 0-.25.24v1.22c0 .13.11.24.25.24z"/><path id="i" d="M939.58 711.05a.49.49 0 0 1-.35-.15l-1.23-1.21.7-.69.88.87.89-.87.7.69-1.24 1.21a.45.45 0 0 1-.35.15"/><path id="j" d="M939.2 712.85l-2.2-2.16.7-.69 2.12 2.09 2.11-2.09.7.69-2.19 2.16a2.57 2.57 0 0 0-1.24 0"/><path id="k" d="M936 712.69l.7-.69 1.99 1.96c-.28.18-.51.42-.7.69zm7.4-.69l.7.69-1.99 1.96a2.42 2.42 0 0 0-.7-.69z"/><path id="l" d="M937.47 716.46l-2.47-2.43v-.69l.35-.34 2.2 2.16c-.05.2-.08.4-.08.61zm7.05-3.46l.35.34v.69l-2.47 2.43v-.69c0-.21-.02-.41-.08-.61z"/><path id="m" d="M937.47 717.23l-2.12-2.09a.52.52 0 0 0-.35-.14v1.17l2.47 2.43zm4.93 1.37l2.47-2.43V715a.52.52 0 0 0-.35.14l-2.12 2.09z"/><path id="n" d="M937.47 720.23l-2.12-2.09a.52.52 0 0 0-.35-.14v1.17l2.47 2.43zm4.93 1.37l2.47-2.43V718a.52.52 0 0 0-.35.14l-2.12 2.09z"/><path id="o" d="M937.47 723.6l-2.47-2.43V720c.13 0 .25.05.35.14l2.12 2.09zm4.93-1.37l2.12-2.09c.1-.09.22-.14.35-.14v1.17l-2.47 2.43z"/><path id="p" d="M937.47 725.6l-2.47-2.43V722c.13 0 .25.05.35.14l2.12 2.09zm4.93-1.37l2.12-2.09c.1-.09.22-.14.35-.14v1.17l-2.47 2.43z"/><path id="q" d="M935.53 726.7l-.53-.53V725c.13 0 .25.05.35.14l1.58 1.56zm7.41 0l1.58-1.56c.1-.09.22-.14.35-.14v1.17l-.54.53z"/></defs><desc>Generated with Avocode.</desc><g transform="translate(-928 -701)"><use fill="#fefefe" xlink:href="#a"/></g><g transform="translate(-928 -701)"><use fill="#fefefe" xlink:href="#b"/></g><g transform="translate(-928 -701)"><use fill="#fefefe" xlink:href="#c"/></g><g transform="translate(-928 -701)"><use fill="#623713" xlink:href="#d"/></g><g transform="translate(-928 -701)"><use fill="#623713" xlink:href="#e"/></g><g transform="translate(-928 -701)"><use fill="#623713" xlink:href="#f"/></g><g transform="translate(-928 -701)"><use fill="#623713" xlink:href="#g"/></g><g transform="translate(-928 -701)"><use fill="#623713" xlink:href="#h"/></g><g transform="translate(-928 -701)"><use fill="#623713" xlink:href="#i"/></g><g transform="translate(-928 -701)"><use fill="#623713" xlink:href="#j"/></g><g transform="translate(-928 -701)"><use fill="#623713" xlink:href="#k"/></g><g transform="translate(-928 -701)"><use fill="#623713" xlink:href="#l"/></g><g transform="translate(-928 -701)"><use fill="#623713" xlink:href="#m"/></g><g transform="translate(-928 -701)"><use fill="#623713" xlink:href="#n"/></g><g transform="translate(-928 -701)"><use fill="#623713" xlink:href="#o"/></g><g transform="translate(-928 -701)"><use fill="#623713" xlink:href="#p"/></g><g transform="translate(-928 -701)"><use fill="#623713" xlink:href="#q"/></g></svg>