<svg xmlns="http://www.w3.org/2000/svg" width="24" height="39" viewBox="0 0 24 39"><path fill="#fefefe" d="M3.95 3.89v22.35c0 2.66 2.86 5.41 7.89 7.6 5.03-2.19 7.9-4.94 7.9-7.6V3.89zm7.89 34.17l-.75-.31C3.94 34.83 0 30.74 0 26.24V0h23.69v26.24c0 4.5-3.94 8.59-11.09 11.51z"/><path fill="#fefefe" d="M2 25.29V1h19.74v24.29c0 3.8-3.77 7.23-9.87 9.72C5.77 32.52 2 29.09 2 25.29"/><path fill="#623713" d="M2.97 2.94v23.32c0 3.14 3.24 6.28 8.89 8.67 5.65-2.39 8.88-5.53 8.88-8.67V2.94zm8.89 34.09l-.38-.15C4.72 34.12 1 30.35 1 26.26V1h21.71v25.26c0 4.09-3.72 7.86-10.48 10.62z"/><path fill="#623713" d="M15.63 24.74c-.47 0-.94-.08-1.29-.26a3.02 3.02 0 0 0-2.36 0 3.3 3.3 0 0 1-2.58 0 3 3 0 0 0-2.35 0 3.3 3.3 0 0 1-2.58 0 3.02 3.02 0 0 0-2.36 0L2 24.26a3.3 3.3 0 0 1 2.58 0 3 3 0 0 0 2.35 0 3.3 3.3 0 0 1 2.58 0c.65.32 1.71.32 2.36 0a3.3 3.3 0 0 1 2.58 0 3 3 0 0 0 2.35 0c.7-.34 1.84-.35 2.55-.01l.03.01c.65.32 1.71.32 2.36 0l.11.22c-.7.35-1.84.35-2.55.01l-.03-.01a3.02 3.02 0 0 0-2.36 0 2.9 2.9 0 0 1-1.28.26M12 22.98v-.24c1.29 0 2.34-2.13 2.34-4.74h.25c0 2.75-1.16 4.98-2.59 4.98"/><path fill="#623713" d="M12 22.98v-.24c4.01 0 7.28-2.13 7.28-4.74h.25c0 2.75-3.38 4.98-7.53 4.98"/><path fill="#fefefe" d="M13.93 23.43c0-1.34-1.1-2.43-2.46-2.43A2.45 2.45 0 0 0 9 23.43z"/><path fill="#623713" d="M13.93 23.43a2.33 2.33 0 0 0-2.34-2.19c-1.25 0-2.28.97-2.34 2.19zm.25.24H9v-.12A2.57 2.57 0 0 1 11.59 21a2.57 2.57 0 0 1 2.59 2.55z"/><path fill="#fefefe" d="M7 23c0 1.34 2.21 2.43 4.93 2.43 2.73 0 4.94-1.09 4.94-2.43z"/><path fill="#623713" d="M7.52 23.49c.27 1.07 2.3 1.94 4.66 1.94 2.37 0 4.39-.87 4.66-1.94zM7 23.24V23h10.36v.24c0 1.5-2.27 2.68-5.18 2.68-2.9 0-5.18-1.18-5.18-2.68zM14.59 18.84h-.25c0-5.74-1.21-9.6-2.34-9.6V9c1.62 0 2.59 5 2.59 9.84"/><path fill="#623713" d="M19.53 18.84h-.25c0-5.29-3.27-9.6-7.28-9.6V9c4.15 0 7.53 4.41 7.53 9.84"/><path fill="#623713" d="M12.25 23.49a.25.25 0 0 1-.25-.24V6.24a.25.25 0 0 1 .49 0v17.01c0 .13-.11.24-.24.24"/><path fill="#623713" d="M12 25.43V23h.25v2.43h-.13z"/><path fill="#623713" d="M13.91 25.27L12 23h.32l1.82 2.17c.02.01.03.03.03.05l-.26.05"/><path fill="#623713" d="M10 25.22c0-.02.01-.04.03-.05L11.85 23h.32l-1.91 2.27a2 2 0 0 1-.26-.05"/><path fill="#623713" d="M8 24.66a.12.12 0 0 1 .05-.05L11.33 23h.54l-3.62 1.78c-.09-.03-.17-.08-.25-.12M15.62 24.78L12 23h.55l3.27 1.61.05.05-.25.12"/><path fill="#623713" d="M16.07 24.03L11 23h1.21l3.98.81.05.02-.17.2"/><path fill="#623713" d="M7 23.83a.08.08 0 0 1 .05-.02l3.98-.81h1.21l-5.07 1.03a1.63 1.63 0 0 1-.17-.2"/></svg>