<svg xmlns="http://www.w3.org/2000/svg" xmlns:xlink="http://www.w3.org/1999/xlink" width="24" height="39" viewBox="0 0 24 39"><defs><path id="a" d="M946.74 1095.89v22.35c0 2.66-2.87 5.4-7.9 7.6-5.03-2.2-7.89-4.94-7.89-7.6v-22.35zm-7.14 33.86c7.15-2.92 11.09-7.01 11.09-11.51V1092H927v26.24c0 4.5 3.94 8.59 11.09 11.51l.75.3z"/><path id="b" d="M929 1118.29V1094h20v24.29c0 3.79-3.82 7.22-10 9.71-6.18-2.49-10-5.92-10-9.71"/><path id="c" d="M948 1095.94v23.3c0 3.13-3.27 6.28-9 8.66-5.73-2.38-9-5.52-9-8.66v-23.3zm-8.62 33.91c6.85-2.76 10.62-6.52 10.62-10.61V1094h-22v25.24c0 4.09 3.77 7.85 10.62 10.61l.38.15z"/><path id="d" d="M942.6 1104.57l.18.01.25.03c.12.02.25.04.39.08l.07.02a2.95 2.95 0 0 1 .57.25l.28.18.25.22.02.02.2.22.19.27c.06.1.11.21.15.31a2.5 2.5 0 0 1 .22.71c.01.1.03.21.03.32l.01.1c.01.16 0 .32-.01.48-.01.16-.04.32-.07.49l-.02.07-.1.38-.11.31-.05.12-.19.39c-.06.12-.13.25-.21.37-.08.11-.15.23-.24.34l-.26.32-.28.3-.3.28-.32.26-.35.24c-.12.07-.24.15-.37.21-.14.08-.27.14-.39.19l-.03.01-.08.03a3.83 3.83 0 0 1-.77.23c-.17.04-.32.06-.46.07h-.05c-.15.01-.29.02-.43.01l-.14-.01c-.1 0-.19-.02-.29-.03a2.62 2.62 0 0 1-.38-.09l-.04-.02c-.1-.03-.2-.06-.29-.11-.11-.04-.21-.1-.31-.15l-.27-.19-.24-.22a1.64 1.64 0 0 1-.21-.25 1.52 1.52 0 0 1-.19-.28c-.06-.1-.11-.2-.15-.31l-.09-.23-.03-.11c-.04-.13-.06-.26-.08-.38l-.02-.17v-.05l-.02-.21.02-.36.01-.13.05-.38.05-.2.08-.26.15-.41.01-.04c.05-.12.11-.25.18-.37l.21-.36c.07-.12.15-.24.24-.35l.25-.32.29-.31.3-.27a4.03 4.03 0 0 1 .66-.5l.37-.22.39-.18c.14-.06.28-.12.42-.16l.28-.08.18-.04c.13-.03.26-.05.4-.06l.1-.01.32-.02zm-2.14 8.09l.31-.02h.04c.16-.01.32-.03.5-.07l.09-.02a5.69 5.69 0 0 0 .71-.22l.09-.04.03-.01c.13-.05.26-.11.41-.2.14-.06.26-.14.39-.22l.36-.24.33-.27.33-.3.28-.31.27-.33c.09-.12.18-.24.25-.36l.23-.39.19-.4.06-.14.11-.31.11-.41.01-.07c.04-.18.07-.35.08-.5v-.04c.02-.15.02-.32.01-.49l-.01-.12-.03-.33a3.62 3.62 0 0 0-.41-1.1l-.2-.3-.22-.24-.02-.03a5.5 5.5 0 0 0-.58-.43l-.33-.17-.3-.1-.08-.02a2.71 2.71 0 0 0-.41-.09l-.26-.03-.2-.01h-.07l-.34.02-.11.01c-.15.01-.28.03-.42.06l-.18.05-.3.08c-.15.05-.3.1-.45.17a4.9 4.9 0 0 0-.4.19l-.39.22-.35.25-.34.27-.32.3-.29.31-.27.34a4.5 4.5 0 0 0-.24.36c-.09.12-.16.25-.23.38l-.18.38-.01.03-.17.45-.08.28-.04.2c-.03.13-.05.27-.06.4l-.02.14-.01.38.01.23.01.05.02.18.09.41.03.12a2 2 0 0 0 .1.26c.04.11.1.23.16.34l.2.3.26.29.24.22a4.91 4.91 0 0 0 .63.38l.31.11.06.02.4.1.31.03.14.01.16.01zm2.05-8.42c.94 0 1.75.32 2.34.91.7.7 1.01 1.7.88 2.83a5.4 5.4 0 0 1-1.6 3.15 5.32 5.32 0 0 1-3.61 1.63h-.04c-.48 0-.93-.09-1.34-.25a3.07 3.07 0 0 1-1.9-3.01c0-1.27.6-2.6 1.63-3.63a5.23 5.23 0 0 1 3.64-1.63zm-1.99 8.76a5.53 5.53 0 0 0 3.78-1.7 5.67 5.67 0 0 0 1.67-3.3 3.59 3.59 0 0 0-.95-3.02 3.46 3.46 0 0 0-2.51-.98c-1.34 0-2.73.62-3.81 1.7a5.47 5.47 0 0 0-1.7 3.8c0 .52.09 1 .27 1.45a3.28 3.28 0 0 0 1.78 1.78c.43.18.91.27 1.43.27z"/><path id="e" d="M931.48 1118.07a.85.85 0 0 1 .14-.11c.11-.08.24-.17.38-.31a76.2 76.2 0 0 1 3.47-3.34c.19-.16.38-.38.55-.63.02.06.06.13.11.18.05.06.12.1.19.12-.26.18-.47.36-.63.55-.36.46-2.27 2.4-3.34 3.47-.14.14-.23.27-.31.38l-.09.13a1.13 1.13 0 0 1-.25-.21c-.16-.16-.2-.23-.22-.23zm.48.93c.23 0 .36-.18.48-.35a2 2 0 0 1 .25-.31c.3-.3 2.93-2.92 3.37-3.5.84-1.01 3.74-1.86 4.74-1.98a.23.23 0 0 0 .2-.26c-.01-.12-.13-.22-.26-.22-.47 0-.9-.09-1.3-.25a.24.24 0 0 0-.3.11c-.04.06-.04.13-.02.2l-.04.01c-.4.12-1.62.47-2.59 1.03.58-.93.94-2.16 1.07-2.6v-.01l.08.02c.15.01.25-.11.25-.25a3.39 3.39 0 0 1-.27-1.4c0-.13-.1-.23-.23-.24-.12 0-.24.08-.25.21-.14 1-.99 3.91-1.97 4.72-.56.43-3.02 2.89-3.51 3.38a2 2 0 0 1-.31.25c-.16.11-.33.23-.35.44-.02.21.13.41.36.65.22.21.4.35.6.35z"/><path id="f" d="M940 1111.96l5.95-5.96a.5.5 0 0 1 .05.13l-5.87 5.87-.13-.04"/><path id="g" d="M938 1109.88l5.88-5.88.12.04-5.96 5.96a.56.56 0 0 0-.04-.12"/><path id="h" d="M941.88 1112l-3.88-3.88a.56.56 0 0 1 .04-.12l3.96 3.96-.12.04"/><path id="i" d="M943.91 1111l-4.91-4.92.04-.03v-.01l.05-.04 4.91 4.91-.04.05h-.01z"/><path id="j" d="M945.96 1108l-3.96-3.96.12-.04 3.88 3.88-.04.12"/><path id="k" d="M946 1107l-3-3h.17l2.83 2.83v.17"/><path id="l" d="M944.93 1110l-4.93-4.93.09-.06.02-.01 4.89 4.89-.01.02z"/><path id="m" d="M943.9 1112l-4.9-4.89v-.01l.07-.1 4.93 4.93-.1.07z"/><path id="n" d="M940.83 1112l-2.83-2.83v-.17l3 3h-.17"/><path id="o" d="M938.02 1108.8l4.78-4.78.09-.01.11-.01-5 5 .01-.11z"/><path id="p" d="M939 1111.91l6.91-6.91.02.02.02.02.05.05-6.91 6.91-.05-.05-.02-.02z"/><path id="q" d="M941 1113l5-5-.02.2-4.78 4.78-.2.02"/><path id="r" d="M938.88 1111.12l.02-.06c-.07-.08-.15-.16-.21-.25l-.19-.27-.15-.31a1.35 1.35 0 0 1-.08-.24l-.04-.1-.08-.39-.02-.16v-.05l-.01-.21.01-.36.01-.13c.01-.13.03-.25.06-.37l.04-.2.08-.26.15-.41.01-.03.17-.36c.07-.13.14-.25.22-.36.08-.13.15-.24.23-.34.08-.12.17-.22.25-.32l.29-.3.29-.28.31-.25.34-.24.36-.21.39-.18.42-.16.27-.08.18-.04.39-.06.11-.01.31-.01h.06l.19.01.24.02.39.08.07.03.27.09.31.15c.1.06.19.12.27.19.09.06.17.13.25.21l.02.02.2.22.19.27c.06.1.11.21.15.31.05.1.09.21.12.32l.01.01.09.38.03.31.01.11-.01.46v.01l-.07.48-.02.07-.1.38-.11.3-.05.12-.18.39a5.74 5.74 0 0 1-.45.7c-.08.1-.16.21-.26.31l-.27.3-.3.28-.32.25a5 5 0 0 1-1.09.63l-.03.01-.08.03a4.83 4.83 0 0 1-.67.21l-.09.02c-.16.03-.31.06-.45.07h-.05l-.43.01-.14-.01-.28-.03c-.13-.03-.25-.05-.38-.1l-.04-.01c-.1-.03-.2-.06-.29-.11-.11-.04-.21-.1-.31-.15l-.27-.19-.22-.2zm2.12.88l.29-.01h.04l.48-.07a.3.3 0 0 1 .09-.02c.12-.03.25-.06.37-.11.1-.03.21-.06.31-.11l.12-.04a4.58 4.58 0 0 0 1.11-.64l.33-.26.31-.29.27-.3a4.03 4.03 0 0 0 .51-.67l.21-.37.19-.39.05-.13.11-.3.11-.39.01-.08c.04-.17.06-.33.07-.48l.01-.03.01-.47-.01-.11-.04-.32a2.46 2.46 0 0 0-.09-.39v-.01a3.42 3.42 0 0 0-.13-.34l-.16-.32-.2-.28-.21-.24-.02-.01a2.85 2.85 0 0 0-.54-.42l-.33-.16a2.3 2.3 0 0 0-.28-.1l-.07-.02c-.13-.04-.27-.06-.4-.08a1 1 0 0 0-.25-.03l-.19-.01h-.07l-.32.01-.11.01-.4.07-.19.04-.28.08a5.46 5.46 0 0 0-.82.35c-.13.06-.25.14-.37.21l-.35.24-.32.26-.31.29-.28.3-.25.33-.24.34-.22.37-.18.37-.01.03c-.06.16-.12.3-.15.43l-.08.27-.05.19-.06.39-.01.13-.01.37.01.22.01.05.02.17a3.14 3.14 0 0 0 .36 1.08 3.4 3.4 0 0 0 .42.55l.02.01.23.21.28.2a3.18 3.18 0 0 0 1.06.38l.29.04.14.01h.16z"/><path id="s" d="M935.5 1099.27a1.23 1.23 0 1 1 0 2.46 1.23 1.23 0 0 1 0-2.46zm0 2.73a1.5 1.5 0 1 0 0-3 1.5 1.5 0 0 0 0 3z"/><path id="t" d="M934.89 1101a.92.92 0 0 1-.39-.09.82.82 0 0 1-.2-.12l-.16-.17a.7.7 0 0 1-.14-.35.7.7 0 0 1 .09-.39c.19-.35.77-.76.96-.87.05-.02.11-.01.14.03.03.05.02.11-.03.14a3 3 0 0 0-.88.78v.01a.42.42 0 0 0-.07.28c.01.09.05.18.1.26a.8.8 0 0 0 .29.23c.11.05.24.07.35.06a.46.46 0 0 0 .25-.1.58.58 0 0 0 .21-.27l.04-.11c.18-.42.31-.73.35-.79.03-.05.1-.07.14-.04.06.02.07.08.05.13l-.34.77-.05.11a.82.82 0 0 1-.27.36.82.82 0 0 1-.36.14h-.08"/></defs><desc>Generated with Avocode.</desc><g transform="translate(-927 -1092)"><use fill="#fefefe" xlink:href="#a"/></g><g transform="translate(-927 -1092)"><use fill="#fefefe" xlink:href="#b"/></g><g transform="translate(-927 -1092)"><use fill="#623713" xlink:href="#c"/></g><g transform="translate(-927 -1092)"><use fill="#623713" xlink:href="#d"/></g><g transform="translate(-927 -1092)"><use fill="#623713" xlink:href="#e"/></g><g transform="translate(-927 -1092)"><use fill="#623713" xlink:href="#f"/></g><g transform="translate(-927 -1092)"><use fill="#623713" xlink:href="#g"/></g><g transform="translate(-927 -1092)"><use fill="#623713" xlink:href="#h"/></g><g transform="translate(-927 -1092)"><use fill="#623713" xlink:href="#i"/></g><g transform="translate(-927 -1092)"><use fill="#623713" xlink:href="#j"/></g><g transform="translate(-927 -1092)"><use fill="#623713" xlink:href="#k"/></g><g transform="translate(-927 -1092)"><use fill="#623713" xlink:href="#l"/></g><g transform="translate(-927 -1092)"><use fill="#623713" xlink:href="#m"/></g><g transform="translate(-927 -1092)"><use fill="#623713" xlink:href="#n"/></g><g transform="translate(-927 -1092)"><use fill="#623713" xlink:href="#o"/></g><g transform="translate(-927 -1092)"><use fill="#623713" xlink:href="#p"/></g><g transform="translate(-927 -1092)"><use fill="#623713" xlink:href="#q"/></g><g transform="translate(-927 -1092)"><use fill="#623713" xlink:href="#r"/></g><g transform="translate(-927 -1092)"><use fill="#623713" xlink:href="#s"/></g><g transform="translate(-927 -1092)"><use fill="#623713" xlink:href="#t"/></g></svg>