<svg xmlns="http://www.w3.org/2000/svg" xmlns:xlink="http://www.w3.org/1999/xlink" width="24" height="39" viewBox="0 0 24 39"><defs><path id="a" d="M1137.74 903.89v22.35c0 2.66-2.87 5.41-7.9 7.6-5.03-2.19-7.89-4.94-7.89-7.6v-22.35zm-7.14 33.86c7.15-2.92 11.09-7.01 11.09-11.51V900H1118v26.24c0 4.5 3.94 8.59 11.09 11.51l.75.31z"/><path id="b" d="M1120 925.29V901h19.74v24.29c0 3.8-3.77 7.23-9.87 9.72-6.1-2.49-9.87-5.92-9.87-9.72"/><path id="c" d="M1138.74 902.94v23.32c0 3.14-3.23 6.28-8.88 8.67-5.66-2.39-8.89-5.53-8.89-8.67v-23.32zm-8.51 33.94c6.76-2.76 10.48-6.53 10.48-10.62V901H1119v25.26c0 4.09 3.72 7.86 10.48 10.62l.38.15z"/><path id="d" d="M1139.86 927.24h-19.74a.12.12 0 0 1-.12-.12c0-.07.05-.12.12-.12h19.74c.07 0 .12.05.12.12 0 .07-.05.12-.12.12"/><path id="e" d="M1130.62 928.04a.24.24 0 0 1-.23-.14l-2.24-4.4h-1.43l-2.24 4.4a.26.26 0 0 1-.34.11.23.23 0 0 1-.11-.33l2.38-4.68h2.05l2.39 4.68c.06.12.01.27-.12.33a.2.2 0 0 1-.11.03"/><path id="f" d="M1130.49 923.58h-5.19a.3.3 0 0 1-.3-.29.3.3 0 0 1 .3-.29h5.19c.16 0 .3.13.3.29a.3.3 0 0 1-.3.29"/><path id="g" d="M1126.59 925.58h-3.29a.3.3 0 0 1-.3-.29.3.3 0 0 1 .3-.29h3.29a.29.29 0 0 1 0 .58"/><path id="h" d="M1131.61 925.58h-3.31a.3.3 0 0 1-.3-.29.3.3 0 0 1 .3-.29h3.31c.16 0 .3.13.3.29a.3.3 0 0 1-.3.29"/><path id="i" d="M1133.49 927.45a.5.5 0 0 1-.49-.49v-16.47a.5.5 0 0 1 .98 0v16.47a.5.5 0 0 1-.49.49"/><path id="j" d="M1136.4 912.46a.2.2 0 0 1-.14-.06l-1.96-1.93-1.96 1.93c-.08.08-.21.08-.28 0-.08-.08-.08-.2 0-.27l2.1-2.07a.2.2 0 0 1 .28 0l2.1 2.07c.08.07.08.19 0 .27a.2.2 0 0 1-.14.06"/><path id="k" d="M1137.18 915.54a.33.33 0 0 1-.24-.1l-2.68-2.64-2.68 2.64a.34.34 0 0 1-.48 0 .33.33 0 0 1 0-.47l2.92-2.87a.34.34 0 0 1 .48 0l2.92 2.87c.13.13.13.34 0 .47a.33.33 0 0 1-.24.1"/><path id="l" d="M1137.98 919.86a.49.49 0 0 1-.35-.15l-3.39-3.34-3.4 3.34a.5.5 0 0 1-.7 0 .48.48 0 0 1 0-.68l4.1-4.03 4.09 4.03c.19.19.19.5 0 .68-.1.1-.22.15-.35.15"/></defs><desc>Generated with Avocode.</desc><g transform="translate(-1118 -899)"><use fill="#fefefe" xlink:href="#a"/></g><g transform="translate(-1118 -899)"><use fill="#fefefe" xlink:href="#b"/></g><g transform="translate(-1118 -899)"><use fill="#623713" xlink:href="#c"/></g><g transform="translate(-1118 -899)"><use fill="#623713" xlink:href="#d"/></g><g transform="translate(-1118 -899)"><use fill="#623713" xlink:href="#e"/></g><g transform="translate(-1118 -899)"><use fill="#623713" xlink:href="#f"/></g><g transform="translate(-1118 -899)"><use fill="#623713" xlink:href="#g"/></g><g transform="translate(-1118 -899)"><use fill="#623713" xlink:href="#h"/></g><g transform="translate(-1118 -899)"><use fill="#623713" xlink:href="#i"/></g><g transform="translate(-1118 -899)"><use fill="#623713" xlink:href="#j"/></g><g transform="translate(-1118 -899)"><use fill="#623713" xlink:href="#k"/></g><g transform="translate(-1118 -899)"><use fill="#623713" xlink:href="#l"/></g></svg>