<svg xmlns="http://www.w3.org/2000/svg" xmlns:xlink="http://www.w3.org/1999/xlink" width="25" height="40" viewBox="0 0 25 40"><defs><path id="a" d="M1137.4 637.04v23.24c0 2.77-2.96 5.63-8.16 7.91-5.2-2.28-8.16-5.14-8.16-7.91v-23.24zm-7.38 35.22c7.39-3.03 11.46-7.29 11.46-11.98V633H1117v27.28c0 4.69 4.07 8.95 11.46 11.98l.78.32z"/><path id="b" d="M1119 660.27V635h20.4v25.27c0 3.94-3.9 7.51-10.2 10.1-6.3-2.59-10.2-6.16-10.2-10.1"/><path id="c" d="M1130 671.24c6.49-2.57 10.51-6.12 10.53-10.04V636H1130z"/><path id="d" d="M1137.31 643.14a.26.26 0 0 1-.26-.26c0-.2-.01-.39-.05-.59a.26.26 0 0 1 .21-.29c.14-.02.27.07.3.21.03.22.05.45.05.67 0 .14-.11.26-.25.26z"/><path id="e" d="M1134.61 639.82a3.43 3.43 0 0 0-1.09-.32c-.14-.01-.24-.14-.23-.28a.26.26 0 0 1 .29-.22c.43.05.85.17 1.25.36.13.06.18.21.12.34a.25.25 0 0 1-.23.14.36.36 0 0 1-.11-.02zm-3.64.03a.26.26 0 0 1 .09-.35c.38-.21.79-.37 1.22-.45.14-.03.27.06.3.2a.24.24 0 0 1-.2.29c-.37.08-.73.21-1.06.4a.35.35 0 0 1-.13.03c-.09 0-.18-.04-.22-.12zm5.26 1.51a3.56 3.56 0 0 0-.68-.9c-.1-.1-.11-.26-.01-.36.1-.1.26-.11.36-.01.32.3.58.65.78 1.03.07.12.02.27-.1.34a.27.27 0 0 1-.12.03.28.28 0 0 1-.23-.13zm-6.76.36c-.13-.05-.18-.2-.13-.33.18-.4.42-.76.71-1.08.09-.11.25-.11.36-.02.1.09.11.25.02.36-.26.28-.47.6-.62.94a.25.25 0 0 1-.23.15c-.04 0-.07 0-.11-.02zm-.47 2.15v-.86l.02-.37a.25.25 0 0 1 .28-.23c.14.01.24.13.23.27l-.02.33v.86c0 .14-.11.26-.25.26a.26.26 0 0 1-.26-.26zm0 2.43v-1.21c0-.14.11-.25.26-.25.14 0 .25.11.25.25v1.21c0 .14-.11.25-.25.25a.25.25 0 0 1-.26-.25zm0 2.43v-1.21c0-.15.11-.26.26-.26.14 0 .25.11.25.26v1.21c0 .14-.11.25-.25.25a.25.25 0 0 1-.26-.25z"/><path id="f" d="M1129.26 651.14a.26.26 0 0 1-.26-.26v-.63c0-.14.11-.25.26-.25.14 0 .25.11.25.25v.63c0 .14-.11.26-.25.26"/><path id="g" d="M1123.13 645.88a.13.13 0 0 1-.13-.13c0-.22.03-.44.08-.66.02-.06.09-.1.16-.09.07.02.11.09.09.16-.05.19-.07.39-.07.59 0 .07-.06.13-.13.13"/><path id="h" d="M1127.6 643.82a2.44 2.44 0 0 0-1.09-.57.14.14 0 0 1-.1-.15.14.14 0 0 1 .15-.1c.45.11.87.32 1.21.63.05.05.06.13.01.18a.12.12 0 0 1-.09.04c-.04 0-.07-.01-.09-.03zm-3.56.11a.13.13 0 0 1 0-.18c.32-.33.72-.58 1.16-.71.07-.01.14.02.16.09a.13.13 0 0 1-.09.16c-.4.11-.76.34-1.05.63a.12.12 0 0 1-.09.04c-.04 0-.07-.01-.09-.03zm4.35 2.16v-.5c0-.26-.04-.51-.12-.74-.02-.07.01-.14.08-.16.07-.02.14.01.16.08.09.26.13.54.13.82v.5c0 .07-.06.13-.13.13s-.12-.06-.12-.13zm0 2.61v-1.3c0-.07.05-.13.12-.13.07 0 .13.06.13.13v1.3c0 .07-.06.13-.13.13s-.12-.06-.12-.13z"/><path id="i" d="M1128.13 650.88c-.07 0-.13-.05-.13-.12v-.64c0-.06.06-.12.13-.12s.13.06.13.12v.64c0 .07-.06.12-.13.12"/><path id="j" d="M1132.22 647.73c-.03 0-.06-.02-.06-.06 0-.2-.05-.4-.15-.58-.02-.03-.01-.06.02-.08a.07.07 0 0 1 .09.02c.11.2.16.42.16.64 0 .04-.03.06-.06.06"/><path id="k" d="M1130.63 647.34l.04-.01c.28-.19.62-.25.96-.17.03.01.07-.01.07-.05.01-.03-.01-.07-.05-.07a1.34 1.34 0 0 0-1.05.18.07.07 0 0 0-.02.09c.01.02.03.03.05.03zm-.57 1.9c.04 0 .07-.03.07-.07v-.85l.01-.18a.05.05 0 0 0-.05-.07c-.03 0-.07.01-.07.05-.02.07-.02.14-.02.21v.84c0 .04.03.07.06.07z"/><path id="l" d="M1130.06 650.76c-.03 0-.06-.03-.06-.07v-.63c0-.03.03-.06.06-.06.04 0 .07.03.07.06v.63c0 .04-.03.07-.07.07"/><path id="m" d="M1139.52 657.25h-20.39c-.07 0-.13-.05-.13-.12 0-.07.06-.13.13-.13h20.39c.07 0 .13.06.13.13s-.06.12-.13.12"/><path id="n" d="M1128 671.21h2.55V651H1128z"/><path id="o" d="M1128.02 651.01h1.53v19.2h-1.53zm2.04 20.21a.5.5 0 0 0 .51-.5V650.5c0-.27-.23-.5-.51-.5h-2.55a.51.51 0 0 0-.51.5v20.22c0 .28.23.5.51.5z"/><path id="p" d="M1138.4 636.02v24.26c0 3.26-3.34 6.53-9.18 9-5.84-2.47-9.18-5.74-9.18-9v-24.26zm-8.79 35.3c6.98-2.87 10.83-6.79 10.83-11.04V634H1118v26.28c0 4.25 3.85 8.17 10.83 11.04l.39.16z"/></defs><desc>Generated with Avocode.</desc><g transform="translate(-1117 -633)"><use fill="#fefefe" xlink:href="#a"/></g><g transform="translate(-1117 -633)"><use fill="#fefefe" xlink:href="#b"/></g><g transform="translate(-1117 -633)"><use fill="#fefefe" xlink:href="#c"/></g><g transform="translate(-1117 -633)"><use fill="#623713" xlink:href="#d"/></g><g transform="translate(-1117 -633)"><use fill="#623713" xlink:href="#e"/></g><g transform="translate(-1117 -633)"><use fill="#623713" xlink:href="#f"/></g><g transform="translate(-1117 -633)"><use fill="#623713" xlink:href="#g"/></g><g transform="translate(-1117 -633)"><use fill="#623713" xlink:href="#h"/></g><g transform="translate(-1117 -633)"><use fill="#623713" xlink:href="#i"/></g><g transform="translate(-1117 -633)"><use fill="#623713" xlink:href="#j"/></g><g transform="translate(-1117 -633)"><use fill="#623713" xlink:href="#k"/></g><g transform="translate(-1117 -633)"><use fill="#623713" xlink:href="#l"/></g><g transform="translate(-1117 -633)"><use fill="#623713" xlink:href="#m"/></g><g transform="translate(-1117 -633)"><use fill="#fefefe" xlink:href="#n"/></g><g transform="translate(-1117 -633)"><use fill="#623713" xlink:href="#o"/></g><g transform="translate(-1117 -633)"><use fill="#623713" xlink:href="#p"/></g></svg>