<?xml version="1.0" encoding="utf-8"?><svg xmlns="http://www.w3.org/2000/svg" xmlns:xlink="http://www.w3.org/1999/xlink"><symbol viewBox="0 0 24 39" id="admin" xmlns="http://www.w3.org/2000/svg"><defs><path id="aa" d="M1137.74 705.89v22.35c0 2.66-2.87 5.4-7.9 7.6-5.03-2.2-7.89-4.94-7.89-7.6v-22.35zm-7.14 33.86c7.15-2.92 11.09-7.01 11.09-11.51V702H1118v26.24c0 4.5 3.94 8.59 11.09 11.51l.75.3z"/><path id="ab" d="M1120 727.29V703h19.74v24.29c0 3.8-3.77 7.23-9.87 9.72-6.1-2.49-9.87-5.92-9.87-9.72"/><path id="ac" d="M1138.74 704.94v23.32c0 3.14-3.23 6.28-8.88 8.67-5.66-2.39-8.89-5.53-8.89-8.67v-23.32zm-8.5 33.94c6.75-2.76 10.47-6.53 10.47-10.62V703H1119v25.26c0 4.09 3.72 7.86 10.48 10.62l.38.15z"/><path id="ad" d="M1125.17 713.97h9.46l1.48 1.46h-12.43zm12.13 2.43c.2 0 .38-.12.45-.3a.48.48 0 0 0-.1-.53l-2.47-2.43a.5.5 0 0 0-.35-.14h-9.87a.5.5 0 0 0-.35.14l-2.46 2.43a.46.46 0 0 0-.11.53c.07.18.25.3.45.3z"/><path id="ae" d="M1122.49 715.49h14.31v11.66h-14.31zm14.56 12.14c.13 0 .25-.11.25-.24v-12.15c0-.13-.12-.24-.25-.24h-14.8a.25.25 0 0 0-.25.24v12.15c0 .13.11.24.25.24z"/><path id="af" d="M1125.49 718.49h1.98v1.94h-1.98zm2.22 2.43c.14 0 .25-.11.25-.25v-2.43a.25.25 0 0 0-.25-.24h-2.46a.25.25 0 0 0-.25.24v2.43c0 .14.11.25.25.25z"/><path id="ag" d="M1125.49 723.49h1.98v1.94h-1.98zm2.22 2.43c.14 0 .25-.11.25-.25v-2.43a.25.25 0 0 0-.25-.24h-2.46a.25.25 0 0 0-.25.24v2.43c0 .14.11.25.25.25z"/><path id="ah" d="M1132.49 723.49h1.98v1.94h-1.98zm2.22 2.43c.14 0 .25-.11.25-.25v-2.43a.25.25 0 0 0-.25-.24h-2.46a.25.25 0 0 0-.25.24v2.43c0 .14.11.25.25.25z"/><path id="ai" d="M1128.49 723.48h1.98v4.38h-1.98zm2.22 4.86c.14 0 .25-.1.25-.24v-4.86a.25.25 0 0 0-.25-.24h-2.46a.25.25 0 0 0-.25.24v4.86c0 .14.11.24.25.24z"/><path id="aj" d="M1132.49 718.49h1.98v1.94h-1.98zm2.22 2.43c.14 0 .25-.11.25-.25v-2.43a.25.25 0 0 0-.25-.24h-2.46a.25.25 0 0 0-.25.24v2.43c0 .14.11.25.25.25z"/><path id="ak" d="M1130.47 718.49v2.79c0 .33-.36.68-.99.95-.63-.27-.99-.62-.99-.95v-2.79zm-.9 4.23c.9-.36 1.39-.88 1.39-1.44V718H1128v3.28c0 .56.49 1.08 1.38 1.44l.1.04z"/><path id="al" d="M1129 721.04V718h2.47v3.04c0 .47-.47.9-1.24 1.21-.76-.31-1.23-.74-1.23-1.21"/><path id="am" d="M1130.47 718.24v2.92c0 .39-.41.78-1.11 1.08-.71-.3-1.11-.69-1.11-1.08v-2.92zm-1.07 4.24c.85-.34 1.31-.81 1.31-1.32V718H1128v3.16c0 .51.47.98 1.31 1.32l.05.02z"/><path id="an" d="M1129.68 720.12h-.03l-.41-.96v.9l.15.02v.04h-.39v-.04l.15-.02v-.99l-.15-.03V719h.35l.37.86.4-.86h.33v.04l-.15.03v.99l.15.02v.04h-.47v-.04l.16-.02v-.9z"/><path id="ao" d="M1129.23 721.12v-.04l.19-.02v-.99h-.05l-.18.01-.11.01-.02.17h-.06V720h1v.26h-.05l-.03-.17-.04-.01h-.07l-.09-.01h-.14v.99l.18.02v.04z"/><path id="ap" d="M1130 718v4.25c.76-.31 1.23-.74 1.23-1.21V718z"/><path id="aq" d="M1129 720.06h1.3V720h-1.3z"/><path id="ar" d="M1139.86 728.24h-19.74a.12.12 0 0 1-.12-.12c0-.06.06-.12.12-.12h19.74c.07 0 .12.06.12.12 0 .07-.05.12-.12.12"/><path id="as" d="M1130.12 713.1a.12.12 0 0 1-.12-.12v-4.86c0-.07.05-.12.12-.12.07 0 .13.05.13.12v4.86c0 .07-.06.12-.13.12"/><path id="at" d="M1130.25 708.24h2.04l-1.02 1.01a.12.12 0 0 0 0 .17l1.02 1.01h-2.04zm2.35 2.43c.06 0 .12-.05.12-.12 0-.04-.03-.08-.06-.11l-1.13-1.1 1.15-1.13a.14.14 0 0 0 .02-.14.12.12 0 0 0-.11-.07h-2.47a.12.12 0 0 0-.12.12v2.43c0 .07.05.12.12.12z"/></defs><desc>Generated with Avocode.</desc><use fill="#fefefe" xlink:href="#aa" transform="translate(-1118 -701)"/><use fill="#fefefe" xlink:href="#ab" transform="translate(-1118 -701)"/><use fill="#623713" xlink:href="#ac" transform="translate(-1118 -701)"/><use fill="#623713" xlink:href="#ad" transform="translate(-1118 -701)"/><use fill="#623713" xlink:href="#ae" transform="translate(-1118 -701)"/><use fill="#623713" xlink:href="#af" transform="translate(-1118 -701)"/><use fill="#623713" xlink:href="#ag" transform="translate(-1118 -701)"/><use fill="#623713" xlink:href="#ah" transform="translate(-1118 -701)"/><use fill="#623713" xlink:href="#ai" transform="translate(-1118 -701)"/><use fill="#623713" xlink:href="#aj" transform="translate(-1118 -701)"/><use fill="#fefefe" xlink:href="#ak" transform="translate(-1118 -701)"/><use fill="#fefefe" xlink:href="#al" transform="translate(-1118 -701)"/><use fill="#623713" xlink:href="#am" transform="translate(-1118 -701)"/><use fill="#623713" xlink:href="#an" transform="translate(-1118 -701)"/><use fill="#623713" xlink:href="#ao" transform="translate(-1118 -701)"/><use fill="#fefefe" xlink:href="#ap" transform="translate(-1118 -701)"/><use fill="#623713" xlink:href="#aq" transform="translate(-1118 -701)"/><use fill="#623713" xlink:href="#ar" transform="translate(-1118 -701)"/><use fill="#623713" xlink:href="#as" transform="translate(-1118 -701)"/><use fill="#623713" xlink:href="#at" transform="translate(-1118 -701)"/></symbol><symbol viewBox="0 0 24 39" id="beach" xmlns="http://www.w3.org/2000/svg"><defs><path id="ba" d="M1137.74 1099.89v22.35c0 2.66-2.87 5.41-7.9 7.6-5.03-2.19-7.89-4.94-7.89-7.6v-22.35zm-7.14 33.86c7.15-2.92 11.09-7.01 11.09-11.51V1096H1118v26.24c0 4.5 3.94 8.59 11.09 11.51l.75.31z"/><path id="bb" d="M1120 1121.29V1097h19.74v24.29c0 3.8-3.77 7.23-9.87 9.72-6.1-2.49-9.87-5.92-9.87-9.72"/><path id="bc" d="M1138.74 1098.94v23.33c0 3.13-3.23 6.28-8.88 8.66-5.66-2.39-8.89-5.53-8.89-8.66v-23.33zm-8.51 33.94c6.76-2.76 10.48-6.53 10.48-10.61V1097H1119v25.27c0 4.08 3.72 7.85 10.48 10.61l.38.15z"/><path id="bd" d="M1130.25 1119.49a.25.25 0 0 1-.25-.24v-17.01a.25.25 0 0 1 .49 0v17.01c0 .13-.11.24-.24.24"/><path id="be" d="M1131.93 1107.89c0 .53-1.1.97-2.46.97-1.37 0-2.47-.44-2.47-.97 0-2.15 1.1-3.89 2.47-3.89 1.36 0 2.46 1.74 2.46 3.89"/><path id="bf" d="M1136.87 1107.01c-.04 0-.07-.03-.07-.06 0-2.11-3.29-3.83-7.34-3.83-4.04 0-7.34 1.72-7.34 3.83 0 .03-.02.06-.06.06a.06.06 0 0 1-.06-.06c0-2.18 3.35-3.95 7.46-3.95 4.12 0 7.47 1.77 7.47 3.95 0 .03-.03.06-.06.06"/><path id="bg" d="M1136.45 1107.1c-.06 0-.11-.04-.11-.11 0-2.08-2.72-3.77-6.06-3.77-3.34 0-6.06 1.69-6.06 3.77 0 .07-.05.11-.11.11s-.11-.04-.11-.11c0-2.2 2.82-3.99 6.28-3.99 3.46 0 6.28 1.79 6.28 3.99 0 .07-.05.11-.11.11"/><path id="bh" d="M1132.18 1107.37a.25.25 0 0 1-.25-.24c0-2.01-.99-3.64-2.22-3.64-1.22 0-2.22 1.63-2.22 3.64a.25.25 0 0 1-.49 0c0-2.28 1.22-4.13 2.71-4.13 1.5 0 2.72 1.85 2.72 4.13 0 .13-.11.24-.25.24"/><path id="bi" d="M1129.71 1108.46c-1.31 0-2.71-.43-2.71-1.22a.25.25 0 0 1 .49 0c0 .3.87.73 2.22.73 1.36 0 2.22-.43 2.22-.73 0-.13.11-.24.25-.24s.25.11.25.24c0 .79-1.4 1.22-2.72 1.22"/><path id="bj" d="M1133.97 1108.21c-1.1 0-1.97-.48-1.97-1.09 0-.07.05-.12.12-.12.07 0 .13.05.13.12 0 .46.79.85 1.72.85.94 0 1.73-.39 1.73-.85 0-.07.06-.12.13-.12.06 0 .12.05.12.12 0 .61-.87 1.09-1.98 1.09"/><path id="bk" d="M1125.97 1108.21c-1.1 0-1.97-.48-1.97-1.09 0-.07.05-.12.12-.12.07 0 .13.05.13.12 0 .46.79.85 1.72.85.94 0 1.73-.39 1.73-.85 0-.07.06-.12.13-.12.06 0 .12.05.12.12 0 .61-.87 1.09-1.98 1.09"/><path id="bl" d="M1136.93 1107.24h-14.81a.12.12 0 0 1-.12-.12c0-.07.06-.12.12-.12h14.81c.07 0 .12.05.12.12 0 .07-.05.12-.12.12"/><path id="bm" d="M1136.68 1108.09c-.38 0-.68-.46-.68-1.03 0-.03.03-.06.06-.06.04 0 .06.03.06.06 0 .5.25.91.56.91.3 0 .55-.41.55-.91 0-.03.03-.06.07-.06.03 0 .06.03.06.06 0 .57-.31 1.03-.68 1.03"/><path id="bn" d="M1122.68 1108.09c-.38 0-.68-.46-.68-1.03 0-.03.03-.06.06-.06.04 0 .07.03.07.06 0 .5.24.91.55.91.3 0 .55-.41.55-.91 0-.03.03-.06.07-.06.03 0 .06.03.06.06 0 .57-.31 1.03-.68 1.03"/><path id="bo" d="M1124.7 1123.91c-.62 0-1.23-.11-1.7-.35a4.15 4.15 0 0 0-2.93-.1l-.07-.24a4.43 4.43 0 0 1 3.11.13c.87.43 2.3.43 3.18 0a4.28 4.28 0 0 1 3.4 0c.88.43 2.3.43 3.18 0a4.33 4.33 0 0 1 3.37-.02l.03.02c.79.39 2.04.42 2.92.1l-.1.29c-.91.27-2.11.22-2.91-.16l-.02-.02a4.08 4.08 0 0 0-3.18 0c-.94.46-2.46.46-3.4 0a4.08 4.08 0 0 0-3.18 0c-.47.24-1.09.35-1.7.35"/><path id="bp" d="M1133.64 1129.71a11.46 11.46 0 0 1-4.37-1.02 12.13 12.13 0 0 0-6.61-.85c-.23-.2-.45-.41-.66-.62 2.56-.46 5.55-.19 7.6.82 1.4.69 3.28 1.01 5.12.96-.34.24-.7.48-1.08.71"/><path id="bq" d="M1133.57 1122.62c-.46 0-.92-.08-1.26-.25a3.08 3.08 0 0 0-2.42 0c-.69.34-1.82.34-2.52 0a3.06 3.06 0 0 0-2.41 0c-.69.34-1.83.34-2.52 0a3.06 3.06 0 0 0-2.41 0l-.03-.05v-.08c.7-.33 1.81-.32 2.49.02.67.32 1.75.33 2.42 0a3.16 3.16 0 0 1 2.52 0c.66.33 1.75.33 2.41 0 .7-.35 1.83-.35 2.52 0 .67.33 1.75.33 2.41 0 .7-.35 1.83-.35 2.53 0 .66.32 1.74.32 2.41 0l.02.04v.08c-.7.33-1.8.32-2.49-.01a3.06 3.06 0 0 0-2.41 0c-.35.17-.8.25-1.26.25"/><path id="br" d="M1127.5 1126.49c-.93 0-1.87-.18-2.58-.53a6.04 6.04 0 0 0-3.65-.35c-.1-.14-.18-.29-.27-.44a6.73 6.73 0 0 1 4.14.36c1.3.64 3.42.64 4.72 0 1.42-.7 3.73-.7 5.15 0 .93.45 2.27.58 3.44.39-.13.18-.27.36-.42.53a6.35 6.35 0 0 1-3.24-.49 6.02 6.02 0 0 0-4.71 0c-.71.35-1.65.53-2.58.53"/></defs><desc>Generated with Avocode.</desc><use fill="#fefefe" xlink:href="#ba" transform="translate(-1118 -1095)"/><use fill="#fefefe" xlink:href="#bb" transform="translate(-1118 -1095)"/><use fill="#623713" xlink:href="#bc" transform="translate(-1118 -1095)"/><use fill="#623713" xlink:href="#bd" transform="translate(-1118 -1095)"/><use fill="#fefefe" xlink:href="#be" transform="translate(-1118 -1095)"/><use fill="#623713" xlink:href="#bf" transform="translate(-1118 -1095)"/><use fill="#623713" xlink:href="#bg" transform="translate(-1118 -1095)"/><use fill="#623713" xlink:href="#bh" transform="translate(-1118 -1095)"/><use fill="#623713" xlink:href="#bi" transform="translate(-1118 -1095)"/><use fill="#623713" xlink:href="#bj" transform="translate(-1118 -1095)"/><use fill="#623713" xlink:href="#bk" transform="translate(-1118 -1095)"/><use fill="#623713" xlink:href="#bl" transform="translate(-1118 -1095)"/><use fill="#623713" xlink:href="#bm" transform="translate(-1118 -1095)"/><use fill="#623713" xlink:href="#bn" transform="translate(-1118 -1095)"/><use fill="#623713" xlink:href="#bo" transform="translate(-1118 -1095)"/><use fill="#623713" xlink:href="#bp" transform="translate(-1118 -1095)"/><use fill="#623713" xlink:href="#bq" transform="translate(-1118 -1095)"/><use fill="#623713" xlink:href="#br" transform="translate(-1118 -1095)"/></symbol><symbol viewBox="0 0 25 39" id="bike" xmlns="http://www.w3.org/2000/svg"><defs><path id="ca" d="M1119 1058.26V1033h22.56v25.26c0 3.95-4.31 7.52-11.28 10.11-6.97-2.59-11.28-6.16-11.28-10.11"/><path id="cb" d="M1140.56 1034.02v24.26c0 3.26-3.69 6.53-10.15 9-6.46-2.47-10.15-5.74-10.15-9v-24.26zm-9.72 35.29c7.72-2.86 11.98-6.78 11.98-11.03V1032H1118v26.28c0 4.25 4.26 8.17 11.98 11.03l.43.16z"/><path id="cc" d="M1130.46 1051.79c0 2.09-1.9 3.79-4.23 3.79-2.34 0-4.23-1.7-4.23-3.79 0-2.1 1.89-3.79 4.23-3.79 2.33 0 4.23 1.69 4.23 3.79"/><path id="cd" d="M1125.79 1049.01c2.02 0 3.67 1.47 3.67 3.28 0 1.82-1.65 3.29-3.67 3.29s-3.66-1.47-3.66-3.29c0-1.81 1.64-3.28 3.66-3.28zm0 7.58c2.65 0 4.8-1.93 4.8-4.3 0-2.36-2.15-4.29-4.8-4.29-2.64 0-4.79 1.93-4.79 4.29 0 2.37 2.15 4.3 4.79 4.3z"/><path id="ce" d="M1129.92 1043.03c-2.85 0-5.92-.47-5.92-1.51 0-1.05 3.07-1.52 5.92-1.52.16 0 .28.11.28.25s-.12.26-.28.26c-3.46 0-5.36.66-5.36 1.01 0 .34 1.9 1.01 5.36 1.01.16 0 .28.11.28.25s-.12.25-.28.25"/><path id="cf" d="M1133.56 1047.54c-.31 0-.56-.23-.56-.51s.25-.5.56-.5c1.25 0 2.26-.91 2.26-2.02 0-.28.25-.51.56-.51.31 0 .56.23.56.51 0 1.67-1.51 3.03-3.38 3.03"/><path id="cg" d="M1137.88 1054.34c-.23 0-.42-.17-.42-.38 0-3.97-3.61-7.2-8.04-7.2-.23 0-.42-.17-.42-.38s.19-.38.42-.38c4.9 0 8.88 3.57 8.88 7.96 0 .21-.19.38-.42.38"/><path id="ch" d="M1138.82 1054.26c0 .7-.63 1.26-1.41 1.26-.78 0-1.41-.56-1.41-1.26s.63-1.26 1.41-1.26c.78 0 1.41.56 1.41 1.26"/><path id="ci" d="M1136.97 1054.01c.47 0 .85.34.85.76 0 .41-.38.75-.85.75-.46 0-.84-.34-.84-.75 0-.42.38-.76.84-.76zm0 2.52c1.09 0 1.98-.79 1.98-1.76 0-.98-.89-1.77-1.98-1.77-1.08 0-1.97.79-1.97 1.77 0 .97.89 1.76 1.97 1.76z"/><path id="cj" d="M1126.42 1048.29c-.23 0-.42-.17-.42-.38v-2.53c0-.21.19-.38.42-.38.24 0 .42.17.42.38v2.53c0 .21-.18.38-.42.38"/><path id="ck" d="M1126.28 1051.03c-.15 0-.28-.11-.28-.25v-2.53c0-.13.13-.25.28-.25.16 0 .28.12.28.25v2.53c0 .14-.12.25-.28.25"/><path id="cl" d="M1126.28 1046.03c-.15 0-.28-.11-.28-.25v-2.53c0-.13.13-.25.28-.25.16 0 .28.12.28.25v2.53c0 .14-.12.25-.28.25"/><path id="cm" d="M1126.28 1043.29a.27.27 0 0 1-.2-.07l-2-1.79a.24.24 0 0 1 0-.36.33.33 0 0 1 .4 0l2 1.79c.11.1.11.26 0 .36a.3.3 0 0 1-.2.07"/><path id="cn" d="M1129.24 1046.76h-2.82c-.23 0-.42-.17-.42-.38s.19-.38.42-.38h2.82c.24 0 .42.17.42.38s-.18.38-.42.38"/><path id="co" d="M1126.69 1054.5h-1.41c-.15 0-.28-.11-.28-.25s.13-.25.28-.25h1.41c.16 0 .28.11.28.25s-.12.25-.28.25"/><path id="cp" d="M1129.83 1040.76h-1.41c-.23 0-.42-.17-.42-.38s.19-.38.42-.38h1.41c.24 0 .43.17.43.38s-.19.38-.43.38"/><path id="cq" d="M1129.83 1042.76h-1.41c-.23 0-.42-.17-.42-.38s.19-.38.42-.38h1.41c.24 0 .43.17.43.38s-.19.38-.43.38"/><path id="cr" d="M1126.69 1050.51h-1.41c-.15 0-.28-.12-.28-.26s.13-.25.28-.25h1.41c.16 0 .28.11.28.25s-.12.26-.28.26"/><path id="cs" d="M1128.78 1054.3a.17.17 0 0 1-.1-.03l-5.64-5.06c-.05-.04-.05-.12 0-.17.06-.05.15-.05.2 0l5.64 5.05c.05.05.05.13 0 .18a.2.2 0 0 1-.1.03"/><path id="ct" d="M1123.14 1054.3a.17.17 0 0 1-.1-.03.13.13 0 0 1 0-.18l5.64-5.05c.05-.05.14-.05.2 0 .05.05.05.13 0 .17l-5.64 5.06a.17.17 0 0 1-.1.03"/><path id="cu" d="M1126.41 1051.63c0 .35-.32.63-.71.63-.38 0-.7-.28-.7-.63s.32-.63.7-.63c.39 0 .71.28.71.63"/><path id="cv" d="M1125.99 1051.5c.23 0 .42.17.42.38s-.19.38-.42.38c-.24 0-.43-.17-.43-.38s.19-.38.43-.38zm0 1.27c.54 0 .98-.4.98-.89 0-.48-.44-.88-.98-.88-.55 0-.99.4-.99.88 0 .49.44.89.99.89z"/></defs><desc>Generated with Avocode.</desc><use fill="#fefefe" xlink:href="#ca" transform="translate(-1118 -1031)"/><use fill="#623713" xlink:href="#cb" transform="translate(-1118 -1031)"/><use fill="#fefefe" xlink:href="#cc" transform="translate(-1118 -1031)"/><use fill="#623713" xlink:href="#cd" transform="translate(-1118 -1031)"/><use fill="#623713" xlink:href="#ce" transform="translate(-1118 -1031)"/><use fill="#623713" xlink:href="#cf" transform="translate(-1118 -1031)"/><use fill="#623713" xlink:href="#cg" transform="translate(-1118 -1031)"/><use fill="#fefefe" xlink:href="#ch" transform="translate(-1118 -1031)"/><use fill="#623713" xlink:href="#ci" transform="translate(-1118 -1031)"/><use fill="#623713" xlink:href="#cj" transform="translate(-1118 -1031)"/><use fill="#623713" xlink:href="#ck" transform="translate(-1118 -1031)"/><use fill="#623713" xlink:href="#cl" transform="translate(-1118 -1031)"/><use fill="#623713" xlink:href="#cm" transform="translate(-1118 -1031)"/><use fill="#623713" xlink:href="#cn" transform="translate(-1118 -1031)"/><use fill="#623713" xlink:href="#co" transform="translate(-1118 -1031)"/><use fill="#623713" xlink:href="#cp" transform="translate(-1118 -1031)"/><use fill="#623713" xlink:href="#cq" transform="translate(-1118 -1031)"/><use fill="#623713" xlink:href="#cr" transform="translate(-1118 -1031)"/><use fill="#623713" xlink:href="#cs" transform="translate(-1118 -1031)"/><use fill="#623713" xlink:href="#ct" transform="translate(-1118 -1031)"/><use fill="#fefefe" xlink:href="#cu" transform="translate(-1118 -1031)"/><use fill="#623713" xlink:href="#cv" transform="translate(-1118 -1031)"/></symbol><symbol viewBox="0 0 25 39" id="electro" xmlns="http://www.w3.org/2000/svg"><defs><path id="da" d="M947.82 636.96v22.75c0 2.7-3.02 5.5-8.33 7.73-5.3-2.23-8.33-5.03-8.33-7.73v-22.75zm-7.53 34.46c7.54-2.96 11.7-7.13 11.7-11.71V633H927v26.71c0 4.58 4.15 8.75 11.7 11.71l.79.32z"/><path id="db" d="M929 659.73V635h20.82v24.73c0 3.86-3.98 7.36-10.41 9.89-6.43-2.53-10.41-6.03-10.41-9.89"/><path id="dc" d="M940 635v34.55c6.29-2.52 10.18-6 10.19-9.86V635z"/><path id="dd" d="M948.82 635.98v23.74c0 3.19-3.41 6.39-9.37 8.82-5.96-2.43-9.37-5.63-9.37-8.82v-23.74zm-8.97 34.54c7.13-2.8 11.06-6.64 11.06-10.8V634H928v25.72c0 4.16 3.93 8 11.05 10.8l.4.16z"/><path id="de" d="M932.28 643.27h13.87v13.18h-13.87zm14.01 13.44c.08 0 .14-.06.14-.13v-13.45c0-.07-.06-.13-.14-.13h-14.15c-.08 0-.14.06-.14.13v13.45c0 .07.06.13.14.13z"/><path id="df" d="M943.5 643h-1.79l-3.71 5.92h.86z"/><path id="dg" d="M937 654.92l5.03-5.92h-1.54z"/><path id="dh" d="M937.85 653.64l.93.19-.89.65-.89.66.09-1.07.08-1.07z"/><path id="di" d="M938 649.5h3.1v-.5H938z"/></defs><desc>Generated with Avocode.</desc><use fill="#fefefe" xlink:href="#da" transform="translate(-927 -633)"/><use fill="#fefefe" xlink:href="#db" transform="translate(-927 -633)"/><use fill="#fefefe" xlink:href="#dc" transform="translate(-927 -633)"/><use fill="#623713" xlink:href="#dd" transform="translate(-927 -633)"/><use fill="#623713" xlink:href="#de" transform="translate(-927 -633)"/><use fill="#623713" xlink:href="#df" transform="translate(-927 -633)"/><use fill="#623713" xlink:href="#dg" transform="translate(-927 -633)"/><use fill="#623713" xlink:href="#dh" transform="translate(-927 -633)"/><use fill="#623713" xlink:href="#di" transform="translate(-927 -633)"/></symbol><symbol viewBox="0 0 24 39" id="gas" xmlns="http://www.w3.org/2000/svg"><defs><path id="ea" d="M1137.74 774.89v22.34c0 2.67-2.87 5.41-7.9 7.61-5.03-2.2-7.89-4.94-7.89-7.61v-22.34zm-7.14 33.86c7.15-2.92 11.09-7.01 11.09-11.52V771H1118v26.23c0 4.51 3.94 8.6 11.09 11.52l.75.3z"/><path id="eb" d="M1120 796.29V772h19.74v24.29c0 3.8-3.77 7.23-9.87 9.72-6.1-2.49-9.87-5.92-9.87-9.72"/><path id="ec" d="M1138.74 773.94v23.32c0 3.14-3.23 6.28-8.88 8.67-5.65-2.39-8.89-5.53-8.89-8.67v-23.32zm-8.5 33.94c6.75-2.76 10.47-6.53 10.47-10.62V772H1119v25.26c0 4.09 3.72 7.86 10.48 10.62l.38.15z"/><path id="ed" d="M1120.49 784.49h19.25v6.8h-19.25zm-.49 7.28h20.23V784H1120z"/><path id="ee" d="M1134.87 787.86a4.9 4.9 0 0 1-4.94 4.86 4.9 4.9 0 0 1-4.93-4.86 4.9 4.9 0 0 1 4.93-4.86 4.9 4.9 0 0 1 4.94 4.86"/><path id="ef" d="M1130.18 783.48a4.67 4.67 0 0 1 4.69 4.62 4.67 4.67 0 0 1-4.69 4.62 4.67 4.67 0 0 1-4.69-4.62 4.67 4.67 0 0 1 4.69-4.62zm0 9.72a5.15 5.15 0 0 0 5.18-5.1c0-2.81-2.32-5.1-5.18-5.1a5.15 5.15 0 0 0-5.18 5.1c0 2.81 2.32 5.1 5.18 5.1z"/><path id="eg" d="M1130 783.21h.62V782h-.62z"/><path id="eh" d="M1129.49 782.49h.13v.73h-.13zm.37 1.21c.14 0 .25-.11.25-.24v-1.22a.25.25 0 0 0-.25-.24h-.61a.25.25 0 0 0-.25.24v1.22c0 .13.11.24.25.24z"/><path id="ei" d="M1130.25 781c-.14 0-.25-.1-.25-.24v-1.52a.25.25 0 0 1 .49 0v1.52c0 .14-.11.24-.24.24"/><path id="ej" d="M1132.18 780.49h-4.93a.25.25 0 0 1-.25-.25c0-.13.11-.24.25-.24h4.93c.14 0 .25.11.25.24 0 .14-.11.25-.25.25"/><path id="ek" d="M1131.93 788.43c0 1.34-1.1 2.43-2.46 2.43a2.45 2.45 0 0 1-2.47-2.43c0-1.34 1.1-2.43 2.47-2.43a2.45 2.45 0 0 1 2.46 2.43"/><path id="el" d="M1129.59 786.24a2.33 2.33 0 0 1 2.34 2.31 2.33 2.33 0 0 1-2.34 2.31 2.33 2.33 0 0 1-2.34-2.31 2.33 2.33 0 0 1 2.34-2.31zm0 4.86a2.57 2.57 0 0 0 2.59-2.55 2.57 2.57 0 0 0-2.59-2.55 2.57 2.57 0 0 0-2.59 2.55 2.57 2.57 0 0 0 2.59 2.55z"/><path id="em" d="M1132.62 788.98h-.02l-4.56-1.86c-.03-.02-.05-.05-.04-.08.02-.03.05-.05.09-.04l4.55 1.86c.03.02.05.05.04.08-.01.03-.03.04-.06.04"/><path id="en" d="M1131.99 788.12h-4.93c-.03 0-.06-.02-.06-.06 0-.03.03-.06.06-.06h4.93c.04 0 .07.03.07.06 0 .04-.03.06-.07.06"/><path id="eo" d="M1128.06 789.56a.08.08 0 0 1-.04-.02c-.03-.02-.03-.06 0-.09l3.49-3.43a.05.05 0 0 1 .08 0c.03.02.03.06 0 .08l-3.49 3.44-.04.02"/><path id="ep" d="M1128.06 788.98c-.02 0-.05-.01-.05-.04-.02-.03 0-.07.03-.08l4.56-1.86c.03-.01.06.01.08.04.01.03 0 .06-.04.08l-4.55 1.85-.03.01"/><path id="eq" d="M1129.06 790.61l-.02-.01c-.03-.01-.05-.04-.03-.08l1.88-4.48c.02-.03.05-.05.09-.04.03.02.04.05.03.08l-1.89 4.49c-.01.03-.03.04-.06.04"/><path id="er" d="M1130.06 790.98a.06.06 0 0 1-.06-.06v-4.86c0-.03.03-.06.06-.06s.06.03.06.06v4.86c0 .03-.03.06-.06.06"/><path id="es" d="M1130.95 790.61c-.03 0-.05-.01-.06-.04l-1.88-4.49c-.02-.03 0-.06.03-.08.03-.01.07.01.08.04l1.89 4.48c.01.04 0 .07-.04.08l-.02.01"/><path id="et" d="M1131.55 789.56l-.04-.02-3.49-3.44a.05.05 0 0 1 0-.08c.02-.03.06-.03.09 0l3.48 3.43c.03.03.03.07 0 .09a.08.08 0 0 1-.04.02"/><path id="eu" d="M1131.7 787.82c0 1.01-.83 1.82-1.85 1.82a1.83 1.83 0 0 1-1.85-1.82c0-1 .83-1.82 1.85-1.82s1.85.82 1.85 1.82"/><path id="ev" d="M1129.12 788.12h2.35v.49h-2.35zm2.41.61c.03 0 .06-.03.06-.06v-.61a.06.06 0 0 0-.06-.06h-2.47a.06.06 0 0 0-.06.06v.61c0 .03.03.06.06.06z"/><path id="ew" d="M1129 782.21h2.47V781H1129z"/><path id="ex" d="M1128.49 781.49h1.98v.72h-1.98zm2.22 1.21c.14 0 .25-.11.25-.24v-1.22a.25.25 0 0 0-.25-.24h-2.46a.25.25 0 0 0-.25.24v1.22c0 .13.11.24.25.24z"/></defs><desc>Generated with Avocode.</desc><use fill="#fefefe" xlink:href="#ea" transform="translate(-1118 -770)"/><use fill="#fefefe" xlink:href="#eb" transform="translate(-1118 -770)"/><use fill="#623713" xlink:href="#ec" transform="translate(-1118 -770)"/><use fill="#623713" xlink:href="#ed" transform="translate(-1118 -770)"/><use fill="#fefefe" xlink:href="#ee" transform="translate(-1118 -770)"/><use fill="#623713" xlink:href="#ef" transform="translate(-1118 -770)"/><use fill="#fefefe" xlink:href="#eg" transform="translate(-1118 -770)"/><use fill="#623713" xlink:href="#eh" transform="translate(-1118 -770)"/><use fill="#623713" xlink:href="#ei" transform="translate(-1118 -770)"/><use fill="#623713" xlink:href="#ej" transform="translate(-1118 -770)"/><use fill="#fefefe" xlink:href="#ek" transform="translate(-1118 -770)"/><use fill="#623713" xlink:href="#el" transform="translate(-1118 -770)"/><use fill="#623713" xlink:href="#em" transform="translate(-1118 -770)"/><use fill="#623713" xlink:href="#en" transform="translate(-1118 -770)"/><use fill="#623713" xlink:href="#eo" transform="translate(-1118 -770)"/><use fill="#623713" xlink:href="#ep" transform="translate(-1118 -770)"/><use fill="#623713" xlink:href="#eq" transform="translate(-1118 -770)"/><use fill="#623713" xlink:href="#er" transform="translate(-1118 -770)"/><use fill="#623713" xlink:href="#es" transform="translate(-1118 -770)"/><use fill="#623713" xlink:href="#et" transform="translate(-1118 -770)"/><use fill="#fefefe" xlink:href="#eu" transform="translate(-1118 -770)"/><use fill="#623713" xlink:href="#ev" transform="translate(-1118 -770)"/><use fill="#fefefe" xlink:href="#ew" transform="translate(-1118 -770)"/><use fill="#623713" xlink:href="#ex" transform="translate(-1118 -770)"/></symbol><symbol viewBox="0 0 25 39" id="kids" xmlns="http://www.w3.org/2000/svg"><defs><path id="fa" d="M927 1055.32V1030h22.61v25.32c0 3.96-4.32 7.54-11.3 10.13-6.99-2.59-11.31-6.17-11.31-10.13z"/><path id="fb" d="M948.61 1031.03v24.3c0 3.27-3.7 6.55-10.17 9.03-6.48-2.48-10.18-5.76-10.18-9.03v-24.3zm-9.74 35.37c7.74-2.88 12-6.8 12-11.07V1029H926v26.33c0 4.27 4.26 8.19 12.01 11.07l.43.16z"/><path id="fc" d="M937.93 1034.61l4.97 4.45h-9.93zm5.67 4.96c.16 0 .28-.11.28-.25 0-.1-.05-.18-.14-.22l-5.61-5.03c-.1-.09-.29-.09-.4 0l-5.65 5.07a.23.23 0 0 0-.06.27c.05.1.15.16.26.16z"/><path id="fd" d="M938.56 1050.51h5.09v4.56h-5.09zm5.37 5.06c.16 0 .29-.11.29-.25v-5.07c0-.14-.13-.25-.29-.25h-5.65c-.15 0-.28.11-.28.25v5.07c0 .14.13.25.28.25z"/><path id="fe" d="M932.56 1050.51h5.09v4.56h-5.09zm5.37 5.06c.16 0 .28-.11.28-.25v-5.07c0-.14-.12-.25-.28-.25h-5.65c-.15 0-.28.11-.28.25v5.07c0 .14.13.25.28.25z"/><path id="ff" d="M941.03 1044.06c-.14-1.41-1.48-2.53-3.1-2.53s-2.95 1.12-3.09 2.53h-2.27v-4.55h10.73v4.55zm2.56.51c.15 0 .28-.11.28-.25v-5.07c0-.14-.13-.25-.28-.25h-11.31c-.15 0-.28.11-.28.25v5.07c0 .14.13.25.28.25h2.83c.15 0 .28-.11.28-.25 0-1.26 1.14-2.28 2.54-2.28 1.41 0 2.55 1.02 2.55 2.28 0 .14.12.25.28.25z"/><path id="fg" d="M932.57 1045.51h2.27c.14 1.41 1.48 2.53 3.1 2.53s2.95-1.12 3.09-2.53h2.28v4.56h-10.74zm11.02 5.06c.15 0 .28-.11.28-.25v-5.07c0-.14-.13-.25-.28-.25h-2.83c-.15 0-.28.11-.28.25 0 1.26-1.14 2.28-2.54 2.28-1.41 0-2.55-1.02-2.55-2.28 0-.14-.13-.25-.28-.25h-2.83c-.15 0-.28.11-.28.25v5.07c0 .14.13.25.28.25z"/><path id="fh" d="M935.84 1052.48h-1.03l.35-.81.06-.14.05-.13.04-.1.02-.05.01.05.04.1.05.13.06.14zm.8.98l-1.1-2.46h-.42l-1.12 2.46h.38l.32-.72h1.25l.32.72z"/><path id="fi" d="M941.71 1052.74a.4.4 0 0 1-.15.34c-.1.08-.26.12-.47.12h-.72v-.89h.7c.22 0 .37.03.48.11.11.07.16.18.16.32zm.37 0c0-.1-.02-.2-.05-.29a.97.97 0 0 0-.19-.22.83.83 0 0 0-.3-.14 1.73 1.73 0 0 0-.42-.05h-.75v-.77h1.43v-.27H940v2.46h1.14c.16 0 .3-.02.41-.06a.7.7 0 0 0 .48-.38.87.87 0 0 0 .05-.28z"/></defs><desc>Generated with Avocode.</desc><use fill="#fefefe" xlink:href="#fa" transform="translate(-926 -1028)"/><use fill="#623713" xlink:href="#fb" transform="translate(-926 -1028)"/><use fill="#623713" xlink:href="#fc" transform="translate(-926 -1028)"/><use fill="#623713" xlink:href="#fd" transform="translate(-926 -1028)"/><use fill="#623713" xlink:href="#fe" transform="translate(-926 -1028)"/><use fill="#623713" xlink:href="#ff" transform="translate(-926 -1028)"/><use fill="#623713" xlink:href="#fg" transform="translate(-926 -1028)"/><use fill="#623713" xlink:href="#fh" transform="translate(-926 -1028)"/><use fill="#623713" xlink:href="#fi" transform="translate(-926 -1028)"/></symbol><symbol viewBox="0 0 24 39" id="kids-park" xmlns="http://www.w3.org/2000/svg"><defs><path id="ga" d="M1136.74 971.89v22.35c0 2.66-2.87 5.4-7.9 7.6-5.03-2.2-7.89-4.94-7.89-7.6v-22.35zm-7.14 33.86c7.15-2.92 11.09-7.01 11.09-11.51V968H1117v26.24c0 4.5 3.94 8.59 11.09 11.51l.75.3z"/><path id="gb" d="M1119 993.29V969h19.74v24.29c0 3.8-3.77 7.23-9.87 9.72-6.1-2.49-9.87-5.92-9.87-9.72"/><path id="gc" d="M1137.74 970.94v23.32c0 3.14-3.23 6.28-8.88 8.66-5.65-2.38-8.89-5.52-8.89-8.66v-23.32zm-8.51 33.94c6.76-2.76 10.48-6.53 10.48-10.62V969H1118v25.26c0 4.09 3.72 7.86 10.48 10.62l.38.15z"/><path id="gd" d="M1121 992.29a7.35 7.35 0 0 1 7.4-7.29c4.09 0 7.4 3.26 7.4 7.29z"/><path id="ge" d="M1135.93 992.53c-.07 0-.13-.05-.13-.12a7.23 7.23 0 0 0-7.27-7.17 7.23 7.23 0 0 0-7.28 7.17c0 .07-.06.12-.13.12a.12.12 0 0 1-.12-.12 7.48 7.48 0 0 1 7.53-7.41 7.47 7.47 0 0 1 7.52 7.41c0 .07-.05.12-.12.12"/><path id="gf" d="M1128.4 977h-7.4l1.23 7.29c0 .33 1.11.61 2.47.61s2.47-.28 2.47-.61z"/><path id="gg" d="M1128.36 977.49l-1.18 7.01c-.09.14-.92.4-2.23.4s-2.14-.26-2.23-.41l-1.18-7zm-3.41 7.89c.28 0 2.71-.02 2.71-.81l1.23-7.29a.24.24 0 0 0-.05-.2.27.27 0 0 0-.19-.08h-7.4a.27.27 0 0 0-.19.08.25.25 0 0 0-.06.2l1.23 7.25c0 .83 2.44.85 2.72.85z"/><path id="gh" d="M1128.4 976.61c0 .33-1.65.61-3.7.61-2.04 0-3.7-.28-3.7-.61 0-.34 1.66-.61 3.7-.61 2.05 0 3.7.27 3.7.61"/><path id="gi" d="M1121.6 976.85c.38-.15 1.52-.36 3.35-.36s2.97.21 3.35.36c-.38.15-1.52.37-3.35.37s-2.98-.22-3.35-.37zm3.35.85c.93 0 3.95-.06 3.95-.85s-3.02-.85-3.95-.85c-.93 0-3.95.06-3.95.85s3.02.85 3.95.85z"/><path id="gj" d="M1128.99 977.11c-.07 0-.13-.05-.13-.12a3.78 3.78 0 0 0-3.81-3.75c-2.1 0-3.8 1.68-3.8 3.75 0 .07-.06.12-.13.12a.12.12 0 0 1-.12-.12c0-2.2 1.82-3.99 4.05-3.99a4.03 4.03 0 0 1 4.06 3.99c0 .07-.06.12-.12.12"/><path id="gk" d="M1132.82 984.04a.2.2 0 0 1-.11-.03c-.12-.06-.17-.2-.12-.32l2.31-4.7a.37.37 0 0 0-.2-.48.39.39 0 0 0-.28.01.34.34 0 0 0-.2.19v.01l-1.74 4.92c-.04.13-.19.19-.32.15a.25.25 0 0 1-.15-.31l1.75-4.94.02-.04c.09-.2.25-.35.45-.44a.94.94 0 0 1 .66 0c.44.18.65.67.48 1.1l-.01.03-2.32 4.71a.26.26 0 0 1-.22.14"/><path id="gl" d="M1133.56 988.48c.26-.62-.55-1.54-1.81-2.05-1.26-.51-2.49-.43-2.75.19l.47-1.12a2.48 2.48 0 0 1 3.23-1.31 2.42 2.42 0 0 1 1.33 3.17z"/><path id="gm" d="M1130.25 986.1c-.41 0-.75.08-.98.24l.32-.76a2.4 2.4 0 0 1 3.14-1.28c.6.24 1.06.7 1.31 1.28.24.59.24 1.23 0 1.82l-.32.76c-.11-.6-.85-1.3-1.88-1.72a4.34 4.34 0 0 0-1.59-.34zm3.37 2.5c.03 0 .05-.01.06-.03l.47-1.13a2.49 2.49 0 0 0-2.34-3.44c-1.02 0-1.94.6-2.33 1.54l-.48 1.12c-.01.03.01.07.04.08.03.01.07 0 .08-.03v-.01c.13-.31.54-.48 1.13-.48.47 0 1.02.11 1.54.33 1.22.5 2.02 1.38 1.77 1.97-.01.03.01.07.04.08h.02z"/><path id="gn" d="M1133.81 987.85l-.1-.02a.24.24 0 0 1-.13-.32c.22-.54.23-1.13 0-1.67a2.25 2.25 0 0 0-1.2-1.19 2.24 2.24 0 0 0-2.91 1.19.25.25 0 0 1-.32.13.25.25 0 0 1-.13-.32c.28-.66.8-1.17 1.47-1.44.67-.28 1.4-.28 2.08 0a2.64 2.64 0 0 1 1.46 3.49.25.25 0 0 1-.22.15"/><path id="go" d="M1133.25 988.61a.36.36 0 0 1-.1-.02.25.25 0 0 1-.13-.32l.47-1.12a.25.25 0 0 1 .32-.13c.13.05.19.19.14.32l-.48 1.12a.25.25 0 0 1-.22.15"/><path id="gp" d="M1129.25 986.61l-.1-.02a.25.25 0 0 1-.13-.32l.47-1.12c.05-.13.2-.18.32-.13.13.05.19.19.14.32l-.47 1.12c-.05.09-.14.15-.23.15"/><path id="gq" d="M1126.75 988.24h-1.63a.12.12 0 0 1-.12-.12c0-.06.06-.12.12-.12h1.63c.07 0 .12.06.12.12 0 .07-.05.12-.12.12"/><path id="gr" d="M1131.05 989.24h-.93a.12.12 0 0 1-.12-.12c0-.07.05-.12.12-.12h.93c.07 0 .13.05.13.12 0 .07-.06.12-.13.12"/><path id="gs" d="M1128.2 990.24h-3.08a.12.12 0 0 1-.12-.12c0-.06.05-.12.12-.12h3.08c.07 0 .12.06.12.12 0 .07-.05.12-.12.12"/><path id="gt" d="M1131.82 991.24h-.7a.12.12 0 0 1-.12-.12c0-.07.05-.12.12-.12h.7c.07 0 .12.05.12.12 0 .07-.05.12-.12.12"/><path id="gu" d="M1135.34 990.24h-1.22a.12.12 0 0 1-.12-.12c0-.06.06-.12.12-.12h1.22c.07 0 .13.06.13.12 0 .07-.06.12-.13.12"/><path id="gv" d="M1122.76 991.24h-.64a.12.12 0 0 1-.12-.12c0-.07.05-.12.12-.12h.64c.07 0 .12.05.12.12 0 .07-.05.12-.12.12"/></defs><desc>Generated with Avocode.</desc><use fill="#fefefe" xlink:href="#ga" transform="translate(-1117 -967)"/><use fill="#fefefe" xlink:href="#gb" transform="translate(-1117 -967)"/><use fill="#623713" xlink:href="#gc" transform="translate(-1117 -967)"/><use fill="#fefefe" xlink:href="#gd" transform="translate(-1117 -967)"/><use fill="#623713" xlink:href="#ge" transform="translate(-1117 -967)"/><use fill="#fefefe" xlink:href="#gf" transform="translate(-1117 -967)"/><use fill="#623713" xlink:href="#gg" transform="translate(-1117 -967)"/><use fill="#fefefe" xlink:href="#gh" transform="translate(-1117 -967)"/><use fill="#623713" xlink:href="#gi" transform="translate(-1117 -967)"/><use fill="#623713" xlink:href="#gj" transform="translate(-1117 -967)"/><use fill="#623713" xlink:href="#gk" transform="translate(-1117 -967)"/><use fill="#fefefe" xlink:href="#gl" transform="translate(-1117 -967)"/><use fill="#623713" xlink:href="#gm" transform="translate(-1117 -967)"/><use fill="#623713" xlink:href="#gn" transform="translate(-1117 -967)"/><use fill="#623713" xlink:href="#go" transform="translate(-1117 -967)"/><use fill="#623713" xlink:href="#gp" transform="translate(-1117 -967)"/><use fill="#623713" xlink:href="#gq" transform="translate(-1117 -967)"/><use fill="#623713" xlink:href="#gr" transform="translate(-1117 -967)"/><use fill="#623713" xlink:href="#gs" transform="translate(-1117 -967)"/><use fill="#623713" xlink:href="#gt" transform="translate(-1117 -967)"/><use fill="#623713" xlink:href="#gu" transform="translate(-1117 -967)"/><use fill="#623713" xlink:href="#gv" transform="translate(-1117 -967)"/></symbol><symbol viewBox="0 0 24 39" id="lake" xmlns="http://www.w3.org/2000/svg"><defs><path id="ha" d="M947.74 968.89v22.35c0 2.66-2.87 5.4-7.9 7.6-5.03-2.2-7.89-4.94-7.89-7.6v-22.35zm-7.14 33.86c7.15-2.92 11.09-7.01 11.09-11.51V965H928v26.24c0 4.5 3.94 8.59 11.09 11.51l.75.3z"/><path id="hb" d="M930 990.29V966h19.74v24.29c0 3.8-3.77 7.23-9.87 9.72-6.1-2.49-9.87-5.92-9.87-9.72"/><path id="hc" d="M948.74 967.94v23.32c0 3.14-3.23 6.28-8.88 8.66-5.65-2.38-8.88-5.52-8.88-8.66v-23.32zm-8.5 33.94c6.75-2.76 10.47-6.53 10.47-10.62V966H929v25.26c0 4.09 3.72 7.86 10.48 10.62l.38.15z"/><path id="hd" d="M933.37 982.12c.14 0 .25.11.25.24 0 .14-.11.25-.25.25a.25.25 0 0 1-.25-.25c0-.13.11-.24.25-.24zm0 .61c.2 0 .37-.16.37-.37 0-.2-.17-.36-.37-.36-.2 0-.37.16-.37.36 0 .21.17.37.37.37z"/><path id="he" d="M932.68 980.12c.31 0 .55.25.55.55 0 .3-.24.55-.55.55a.55.55 0 0 1-.55-.55c0-.3.25-.55.55-.55zm0 1.22c.37 0 .68-.3.68-.67a.68.68 0 0 0-.68-.67c-.37 0-.68.3-.68.67 0 .37.31.67.68.67z"/><path id="hf" d="M944.22 973.43a.22.22 0 0 1-.22-.22c0-.11.1-.21.22-.21.11 0 .21.1.21.21 0 .12-.1.22-.21.22"/><path id="hg" d="M932.22 982.12c.05 0 .09.04.09.09 0 .05-.04.09-.09.09-.05 0-.1-.04-.1-.09 0-.05.05-.09.1-.09zm0 .31c.12 0 .21-.1.21-.22a.21.21 0 0 0-.21-.21c-.12 0-.22.1-.22.21 0 .12.1.22.22.22z"/><path id="hh" d="M937.06 984.84c-.01 0-.03 0-.04-.02a.05.05 0 0 1 0-.08l1.74-1.72c.03-.03.07-.03.09 0 .02.02.02.06 0 .08l-1.75 1.72c-.01.02-.02.02-.04.02"/><path id="hi" d="M937.06 985.14l-.03-.01c-.03-.02-.04-.06-.02-.08l1.37-2.02a.07.07 0 0 1 .09-.02c.03.02.03.06.01.08l-1.37 2.02a.05.05 0 0 1-.05.03"/><path id="hj" d="M937.06 985.37l-.02-.01c-.03-.01-.05-.05-.03-.08l.94-2.24c.01-.03.05-.05.08-.03.03.01.05.04.03.07l-.94 2.25a.07.07 0 0 1-.06.04"/><path id="hk" d="M937.06 984.5h-.01c-.03 0-.06-.04-.05-.07l.48-2.38c.01-.04.04-.06.07-.05.04.01.06.04.05.07l-.48 2.38c0 .03-.03.05-.06.05"/><path id="hl" d="M937.06 984.55a.06.06 0 0 1-.06-.06v-2.43c0-.03.03-.06.06-.06.04 0 .06.03.06.06v2.43c0 .03-.02.06-.06.06"/><path id="hm" d="M937.54 984.5c-.02 0-.05-.02-.06-.05l-.48-2.38c-.01-.03.02-.06.05-.07.03-.01.07.01.07.05l.48 2.38c.01.03-.01.07-.04.07h-.02"/><path id="hn" d="M937.01 985.37a.07.07 0 0 1-.06-.04l-.95-2.25c-.01-.03.01-.06.04-.07.03-.02.07 0 .08.03l.94 2.24c.02.03 0 .07-.03.08l-.02.01"/><path id="ho" d="M937.43 985.14a.05.05 0 0 1-.05-.03l-1.37-2.02c-.02-.02-.01-.06.02-.08.02-.02.06-.01.08.02l1.37 2.02c.02.02.01.06-.01.08l-.04.01"/><path id="hp" d="M937.81 984.84c-.02 0-.04 0-.05-.02l-1.74-1.72a.05.05 0 0 1 0-.08c.02-.03.06-.03.09 0l1.74 1.72c.02.02.02.06 0 .08-.01.02-.03.02-.04.02"/><path id="hq" d="M941.87 986.43a6.48 6.48 0 0 1-4.94 2.43 6.46 6.46 0 0 1-4.93-2.43 6.46 6.46 0 0 1 4.93-2.43c1.93 0 3.68.93 4.94 2.43"/><path id="hr" d="M932.57 985.67a6.16 6.16 0 0 1 4.61-2.18c1.73 0 3.36.77 4.61 2.18a6.14 6.14 0 0 1-4.61 2.19 6.17 6.17 0 0 1-4.61-2.19zm4.61 2.67c1.94 0 3.76-.89 5.12-2.51a.23.23 0 0 0 0-.31 6.63 6.63 0 0 0-5.12-2.52c-1.94 0-3.76.89-5.12 2.52a.23.23 0 0 0 0 .31 6.66 6.66 0 0 0 5.12 2.51z"/><path id="hs" d="M938.81 987.84a.08.08 0 0 1-.05-.02l-1.74-1.72a.05.05 0 0 1 0-.08c.02-.03.06-.03.09 0l1.74 1.72c.02.02.02.06 0 .08a.08.08 0 0 1-.04.02"/><path id="ht" d="M939.11 987.47l-.03-.01-2.05-1.35c-.03-.02-.04-.06-.02-.08a.07.07 0 0 1 .09-.02l2.05 1.35c.03.02.03.06.01.09a.08.08 0 0 1-.05.02"/><path id="hu" d="M939.34 987.05h-.02l-2.28-.93c-.03-.02-.05-.05-.04-.08.02-.03.05-.05.09-.04l2.28.93c.03.02.04.05.03.08-.01.03-.03.04-.06.04"/><path id="hv" d="M939.48 986.59h-.01l-2.42-.47c-.03-.01-.06-.04-.05-.07.01-.03.04-.06.07-.05l2.42.47c.04.01.06.04.05.08 0 .02-.03.04-.06.04"/><path id="hw" d="M939.53 986.12h-2.47a.06.06 0 0 1-.06-.06c0-.03.03-.06.06-.06h2.47c.03 0 .06.03.06.06s-.03.06-.06.06"/><path id="hx" d="M937.06 986.59c-.03 0-.05-.02-.06-.05-.01-.03.02-.06.05-.07l2.42-.47c.03 0 .06.01.07.05.01.03-.01.06-.05.07l-2.42.47h-.01"/><path id="hy" d="M937.06 986.05c-.02 0-.04-.01-.05-.04-.02-.03 0-.06.03-.08l2.28-.93c.03-.01.06.01.08.04.01.03 0 .06-.03.08l-2.28.92-.03.01"/><path id="hz" d="M937.06 986.47a.05.05 0 0 1-.05-.03c-.02-.02-.01-.06.02-.08l2.05-1.35c.03-.02.07-.01.08.02.02.03.02.06-.01.08l-2.05 1.35-.04.01"/><path id="hA" d="M937.06 985.84a.08.08 0 0 1-.04-.02.05.05 0 0 1 0-.08l1.74-1.72c.03-.03.07-.03.09 0 .02.02.02.06 0 .08l-1.75 1.72-.04.02"/><path id="hB" d="M935.06 987.55a.06.06 0 0 1-.06-.06c0-.03.03-.06.06-.06.65 0 1.17-.52 1.17-1.15 0-.64-.52-1.16-1.17-1.16a.06.06 0 0 1-.06-.06c0-.03.03-.06.06-.06.72 0 1.3.57 1.3 1.28 0 .7-.58 1.27-1.3 1.27"/><path id="hC" d="M934.43 985.24c.1 0 .18.08.18.18 0 .11-.08.19-.18.19-.1 0-.18-.08-.18-.19 0-.1.08-.18.18-.18zm0 .61a.42.42 0 1 0 0-.85.42.42 0 1 0 0 .85z"/><path id="hD" d="M945.55 989.56a.08.08 0 0 1-.04-.02l-3.49-3.44a.05.05 0 0 1 0-.08.05.05 0 0 1 .08 0l3.49 3.43c.03.03.03.07 0 .09l-.04.02"/><path id="hE" d="M946.16 988.82l-.03-.01-4.1-2.7c-.03-.02-.04-.06-.02-.08a.07.07 0 0 1 .09-.02l4.1 2.7c.03.02.04.06.01.08-.01.02-.02.03-.05.03"/><path id="hF" d="M946.62 987.98h-.02l-4.56-1.86c-.03-.02-.05-.05-.03-.08.01-.03.04-.05.07-.04l4.56 1.86c.03.02.05.05.04.08-.01.03-.04.04-.06.04"/><path id="hG" d="M946.9 987.07h-.01l-4.84-.95c-.03-.01-.06-.04-.05-.07a.08.08 0 0 1 .07-.05l4.85.95c.03.01.05.04.04.07 0 .03-.03.05-.06.05"/><path id="hH" d="M947 986.12h-4.94a.06.06 0 0 1-.06-.06c0-.03.03-.06.06-.06H947c.03 0 .06.03.06.06s-.03.06-.06.06"/><path id="hI" d="M942.06 986.07c-.03 0-.05-.02-.06-.05-.01-.03.02-.07.05-.07l4.84-.95c.03-.01.06.01.07.05.01.03-.01.06-.05.07l-4.84.95h-.01"/><path id="hJ" d="M942.06 985.98c-.02 0-.04-.01-.05-.04-.02-.03 0-.06.03-.08l4.56-1.86c.03-.01.06.01.08.04.01.03-.01.06-.04.08l-4.56 1.86h-.02"/><path id="hK" d="M942.06 985.82a.05.05 0 0 1-.05-.03c-.02-.03-.01-.06.02-.08l4.1-2.7c.03-.02.07-.01.08.02.02.02.02.06-.01.08l-4.11 2.7-.03.01"/><path id="hL" d="M942.06 986.56a.08.08 0 0 1-.04-.02c-.03-.02-.03-.06 0-.09l3.49-3.43a.05.05 0 0 1 .08 0c.03.02.03.06 0 .08l-3.48 3.44-.05.02"/><path id="hM" d="M940.9 974.92l-.02-.01-.87-.86a.03.03 0 0 1 0-.04.03.03 0 0 1 .04 0l.88.86v.04l-.03.01"/><path id="hN" d="M940.72 975.07l-.03-.01-.69-1.01.01-.05.05.01.68 1.01c.01.02.01.04-.01.05h-.01"/><path id="hO" d="M941.5 975.18l-.02-.01-.48-1.13c0-.01 0-.03.02-.04.01 0 .03 0 .04.02l.47 1.12c.01.02 0 .03-.01.04h-.02"/><path id="hP" d="M941.27 975.25l-.03-.02-.24-1.19c0-.02.01-.04.03-.04l.03.02.24 1.2c.01.01 0 .03-.02.03h-.01"/><path id="hQ" d="M941.03 975.28c-.02 0-.03-.02-.03-.04v-1.21c0-.02.01-.03.03-.03.02 0 .03.01.03.03v1.21c0 .02-.01.04-.03.04"/><path id="hR" d="M941.03 975.25c-.02 0-.03-.02-.03-.03l.24-1.2.04-.02c.02 0 .03.02.02.04l-.24 1.19c0 .01-.01.02-.03.02"/><path id="hS" d="M941.03 975.18h-.01c-.02-.01-.02-.02-.02-.04l.47-1.12c.01-.02.03-.02.04-.02.02.01.03.03.02.04l-.47 1.13-.03.01"/><path id="hT" d="M941.03 975.07h-.02l-.01-.05.69-1.01.04-.01c.02.01.02.03.01.05l-.68 1.01-.03.01"/><path id="hU" d="M941.03 974.92l-.02-.01a.03.03 0 0 1 0-.04l.87-.86a.03.03 0 0 1 .04 0c.02.01.02.03 0 .04l-.87.86-.02.01"/><path id="hV" d="M939 976.22c.63.74 1.5 1.21 2.47 1.21.96 0 1.83-.47 2.46-1.21a3.22 3.22 0 0 0-2.46-1.22c-.97 0-1.84.47-2.47 1.22"/><path id="hW" d="M938.28 975.34a3.09 3.09 0 0 1 2.31-1.1c.86 0 1.68.39 2.31 1.1a3.1 3.1 0 0 1-2.31 1.09 3.1 3.1 0 0 1-2.31-1.09zm2.31 1.33c.97 0 1.88-.45 2.56-1.26a.1.1 0 0 0 0-.15 3.33 3.33 0 0 0-2.56-1.26c-.97 0-1.88.45-2.56 1.26a.1.1 0 0 0 0 .15 3.33 3.33 0 0 0 2.56 1.26z"/><path id="hX" d="M940.03 976.92l-.02-.01a.03.03 0 0 1 0-.04l.87-.86a.03.03 0 0 1 .04 0c.02.01.02.03 0 .04l-.87.86-.02.01"/><path id="hY" d="M940.03 976.73l-.02-.01a.03.03 0 0 1 0-.04l1.03-.67a.03.03 0 0 1 .04 0c.01.02.01.04-.01.05l-1.02.67h-.02"/><path id="hZ" d="M940.03 976.53l-.03-.02c0-.02 0-.04.02-.04l1.14-.47c.01 0 .03 0 .04.02.01.01 0 .03-.02.04l-1.14.46-.01.01"/><path id="haa" d="M940.03 976.3c-.01 0-.03-.01-.03-.03 0-.01.01-.03.03-.03l1.21-.24.03.02c.01.02 0 .04-.02.04l-1.21.24h-.01"/><path id="hab" d="M941.26 976.06h-1.23c-.02 0-.03-.01-.03-.03 0-.02.01-.03.03-.03h1.23c.02 0 .04.01.04.03 0 .02-.02.03-.04.03"/><path id="hac" d="M941.24 975.3l-1.22-.24-.02-.03c0-.02.02-.03.04-.03l1.21.24c.02 0 .02.02.02.03 0 .02-.01.03-.03.03"/><path id="had" d="M941.17 975.53l-.01-.01-1.14-.46c-.02-.01-.02-.02-.02-.04.01-.02.03-.02.04-.02l1.14.47c.02 0 .03.02.02.04l-.03.02"/><path id="hae" d="M941.06 975.74l-.02-.01-1.03-.67v-.05l.04-.01 1.02.68c.02.01.02.03.01.04l-.02.02"/><path id="haf" d="M940.9 975.92l-.02-.01-.87-.86a.03.03 0 0 1 0-.04.03.03 0 0 1 .04 0l.88.86v.04l-.03.01"/><path id="hag" d="M942.65 976.28a.65.65 0 0 1-.65-.64c0-.35.29-.64.65-.64.01 0 .03.01.03.03 0 .02-.02.03-.03.03a.59.59 0 0 0-.59.58c0 .32.27.57.59.57l.03.03c0 .02-.02.04-.03.04"/><path id="hah" d="M942.22 975.43a.22.22 0 0 1-.22-.22c0-.11.1-.21.22-.21.11 0 .21.1.21.21 0 .12-.1.22-.21.22"/><path id="hai" d="M937.03 977.78l-.02-.01a.03.03 0 0 1 0-.04l1.74-1.72h.05v.04l-1.75 1.72-.02.01"/><path id="haj" d="M937.03 977.41l-.03-.01.01-.05 2.06-1.34a.03.03 0 0 1 .04 0c.01.02 0 .04-.01.05l-2.05 1.35h-.02"/><path id="hak" d="M936.03 976.99l-.03-.02c0-.01 0-.03.02-.04l2.28-.93c.01 0 .03 0 .04.02 0 .01 0 .03-.02.04l-2.28.93h-.01"/><path id="hal" d="M936.03 976.54c-.01 0-.03-.01-.03-.03 0-.02.01-.03.03-.04l2.41-.47.04.02-.02.04-2.42.48h-.01"/><path id="ham" d="M938.5 976.06h-2.47c-.02 0-.03-.01-.03-.03 0-.02.01-.03.03-.03h2.47c.02 0 .03.01.03.03 0 .02-.01.03-.03.03"/><path id="han" d="M938.45 975.54l-.01-.01-2.41-.47c-.02 0-.03-.02-.03-.03.01-.02.02-.04.04-.03l2.42.47.02.04c0 .02-.01.03-.03.03"/><path id="hao" d="M938.31 975.99h-.01l-2.28-.93c-.02-.01-.02-.03-.02-.04.01-.02.03-.02.04-.02l2.28.93c.02.01.02.03.02.04l-.03.02"/><path id="hap" d="M939.08 975.41h-.02l-2.05-1.35v-.05l.04-.01 2.05 1.35c.01.01.02.03.01.05l-.03.01"/><path id="haq" d="M938.78 975.78l-.03-.01-1.74-1.72a.03.03 0 0 1 0-.04.03.03 0 0 1 .04 0l1.75 1.72v.04l-.02.01"/><path id="har" d="M933.73 971.62c-.46 0-.91-.08-1.26-.25a3.06 3.06 0 0 0-2.41 0l-.06-.11a3.2 3.2 0 0 1 2.52 0c.67.32 1.75.32 2.41 0 .7-.35 1.83-.35 2.53 0 .66.32 1.74.32 2.41 0a3.2 3.2 0 0 1 2.52 0c.67.32 1.75.32 2.41 0a3.26 3.26 0 0 1 2.51-.01l.02.01c.66.32 1.74.32 2.41 0l.05.11c-.69.34-1.81.34-2.51 0h-.01a3.06 3.06 0 0 0-2.41 0c-.7.34-1.83.34-2.52 0a3.08 3.08 0 0 0-2.42 0c-.69.34-1.82.34-2.52 0a3.06 3.06 0 0 0-2.41 0c-.35.17-.81.25-1.26.25"/></defs><desc>Generated with Avocode.</desc><use fill="#fefefe" xlink:href="#ha" transform="translate(-928 -964)"/><use fill="#fefefe" xlink:href="#hb" transform="translate(-928 -964)"/><use fill="#623713" xlink:href="#hc" transform="translate(-928 -964)"/><use fill="#623713" xlink:href="#hd" transform="translate(-928 -964)"/><use fill="#623713" xlink:href="#he" transform="translate(-928 -964)"/><use fill="#623713" xlink:href="#hf" transform="translate(-928 -964)"/><use fill="#623713" xlink:href="#hg" transform="translate(-928 -964)"/><use fill="#623713" xlink:href="#hh" transform="translate(-928 -964)"/><use fill="#623713" xlink:href="#hi" transform="translate(-928 -964)"/><use fill="#623713" xlink:href="#hj" transform="translate(-928 -964)"/><use fill="#623713" xlink:href="#hk" transform="translate(-928 -964)"/><use fill="#623713" xlink:href="#hl" transform="translate(-928 -964)"/><use fill="#623713" xlink:href="#hm" transform="translate(-928 -964)"/><use fill="#623713" xlink:href="#hn" transform="translate(-928 -964)"/><use fill="#623713" xlink:href="#ho" transform="translate(-928 -964)"/><use fill="#623713" xlink:href="#hp" transform="translate(-928 -964)"/><use fill="#fefefe" xlink:href="#hq" transform="translate(-928 -964)"/><use fill="#623713" xlink:href="#hr" transform="translate(-928 -964)"/><use fill="#623713" xlink:href="#hs" transform="translate(-928 -964)"/><use fill="#623713" xlink:href="#ht" transform="translate(-928 -964)"/><use fill="#623713" xlink:href="#hu" transform="translate(-928 -964)"/><use fill="#623713" xlink:href="#hv" transform="translate(-928 -964)"/><use fill="#623713" xlink:href="#hw" transform="translate(-928 -964)"/><use fill="#623713" xlink:href="#hx" transform="translate(-928 -964)"/><use fill="#623713" xlink:href="#hy" transform="translate(-928 -964)"/><use fill="#623713" xlink:href="#hz" transform="translate(-928 -964)"/><use fill="#623713" xlink:href="#hA" transform="translate(-928 -964)"/><use fill="#623713" xlink:href="#hB" transform="translate(-928 -964)"/><use fill="#623713" xlink:href="#hC" transform="translate(-928 -964)"/><use fill="#623713" xlink:href="#hD" transform="translate(-928 -964)"/><use fill="#623713" xlink:href="#hE" transform="translate(-928 -964)"/><use fill="#623713" xlink:href="#hF" transform="translate(-928 -964)"/><use fill="#623713" xlink:href="#hG" transform="translate(-928 -964)"/><use fill="#623713" xlink:href="#hH" transform="translate(-928 -964)"/><use fill="#623713" xlink:href="#hI" transform="translate(-928 -964)"/><use fill="#623713" xlink:href="#hJ" transform="translate(-928 -964)"/><use fill="#623713" xlink:href="#hK" transform="translate(-928 -964)"/><use fill="#623713" xlink:href="#hL" transform="translate(-928 -964)"/><use fill="#623713" xlink:href="#hM" transform="translate(-928 -964)"/><use fill="#623713" xlink:href="#hN" transform="translate(-928 -964)"/><use fill="#623713" xlink:href="#hO" transform="translate(-928 -964)"/><use fill="#623713" xlink:href="#hP" transform="translate(-928 -964)"/><use fill="#623713" xlink:href="#hQ" transform="translate(-928 -964)"/><use fill="#623713" xlink:href="#hR" transform="translate(-928 -964)"/><use fill="#623713" xlink:href="#hS" transform="translate(-928 -964)"/><use fill="#623713" xlink:href="#hT" transform="translate(-928 -964)"/><use fill="#623713" xlink:href="#hU" transform="translate(-928 -964)"/><use fill="#fefefe" xlink:href="#hV" transform="translate(-928 -964)"/><use fill="#623713" xlink:href="#hW" transform="translate(-928 -964)"/><use fill="#623713" xlink:href="#hX" transform="translate(-928 -964)"/><use fill="#623713" xlink:href="#hY" transform="translate(-928 -964)"/><use fill="#623713" xlink:href="#hZ" transform="translate(-928 -964)"/><use fill="#623713" xlink:href="#haa" transform="translate(-928 -964)"/><use fill="#623713" xlink:href="#hab" transform="translate(-928 -964)"/><use fill="#623713" xlink:href="#hac" transform="translate(-928 -964)"/><use fill="#623713" xlink:href="#had" transform="translate(-928 -964)"/><use fill="#623713" xlink:href="#hae" transform="translate(-928 -964)"/><use fill="#623713" xlink:href="#haf" transform="translate(-928 -964)"/><use fill="#623713" xlink:href="#hag" transform="translate(-928 -964)"/><use fill="#623713" xlink:href="#hah" transform="translate(-928 -964)"/><use fill="#623713" xlink:href="#hai" transform="translate(-928 -964)"/><use fill="#623713" xlink:href="#haj" transform="translate(-928 -964)"/><use fill="#623713" xlink:href="#hak" transform="translate(-928 -964)"/><use fill="#623713" xlink:href="#hal" transform="translate(-928 -964)"/><use fill="#623713" xlink:href="#ham" transform="translate(-928 -964)"/><use fill="#623713" xlink:href="#han" transform="translate(-928 -964)"/><use fill="#623713" xlink:href="#hao" transform="translate(-928 -964)"/><use fill="#623713" xlink:href="#hap" transform="translate(-928 -964)"/><use fill="#623713" xlink:href="#haq" transform="translate(-928 -964)"/><use fill="#623713" xlink:href="#har" transform="translate(-928 -964)"/></symbol><symbol viewBox="0 0 24 39" id="market" xmlns="http://www.w3.org/2000/svg"><defs><path id="ia" d="M946.74 833.89v22.35c0 2.66-2.87 5.41-7.9 7.6-5.03-2.19-7.89-4.94-7.89-7.6v-22.35zm-7.14 33.86c7.15-2.92 11.09-7.01 11.09-11.51V830H927v26.24c0 4.5 3.94 8.59 11.09 11.51l.75.31z"/><path id="ib" d="M939 831v34.01c6.09-2.49 9.86-5.91 9.87-9.7V831z"/><path id="ic" d="M947.74 832.94v23.33c0 3.13-3.23 6.28-8.88 8.66-5.66-2.38-8.89-5.53-8.89-8.66v-23.33zm-8.51 33.94c6.76-2.76 10.48-6.52 10.48-10.61V831H928v25.27c0 4.09 3.72 7.85 10.48 10.61l.38.15z"/><path id="id" d="M933.25 847.24l9-2.95v5.78h-9zm9.13 3.08c.06 0 .12-.06.12-.13v-6.07c0-.04-.02-.07-.05-.1a.1.1 0 0 0-.11-.01l-9.26 3.03a.12.12 0 0 0-.08.12v3.03c0 .07.05.13.12.13z"/><path id="ie" d="M942.92 853.24h-9.8a.12.12 0 0 1-.12-.12c0-.06.05-.12.12-.12h9.8c.06 0 .12.06.12.12 0 .07-.06.12-.12.12"/><path id="if" d="M944.04 854.49h-10.79a.25.25 0 0 1-.25-.25c0-.13.11-.24.25-.24h10.79c.14 0 .25.11.25.24 0 .14-.11.25-.25.25"/><path id="ig" d="M934.54 854.76c0 .42-.34.76-.77.76a.76.76 0 0 1-.77-.76c0-.42.34-.76.77-.76s.77.34.77.76"/><path id="ih" d="M933.02 854.49a.51.51 0 1 1 0 1.03.52.52 0 0 1-.53-.52c0-.28.24-.51.53-.51zm0 1.51a1 1 0 0 0 1.01-1 1 1 0 0 0-1.01-1c-.56 0-1.02.45-1.02 1s.46 1 1.02 1z"/><path id="ii" d="M944.56 854.8a.25.25 0 0 1-.23-.15l-2.31-5.31a.24.24 0 0 1 .13-.32c.12-.05.27 0 .32.13l2.32 5.31a.25.25 0 0 1-.13.32.36.36 0 0 1-.1.02"/><path id="ij" d="M944.54 854.76c0 .42-.34.76-.77.76a.76.76 0 0 1-.77-.76c0-.42.34-.76.77-.76s.77.34.77.76"/><path id="ik" d="M944.02 854.49a.51.51 0 1 1 0 1.03.52.52 0 0 1-.53-.52c0-.28.24-.51.53-.51zm0 1.51c.56 0 1.02-.45 1.02-1s-.46-1-1.02-1-1.02.45-1.02 1 .46 1 1.02 1z"/><path id="il" d="M933.12 848.76a.12.12 0 0 1-.12-.1.12.12 0 0 1 .1-.14l9.25-1.52c.08-.01.14.04.15.1a.12.12 0 0 1-.1.14l-9.26 1.52h-.02"/><path id="im" d="M939.12 850.26c-.07 0-.12-.06-.12-.13v-5.01c0-.06.05-.12.12-.12.07 0 .13.06.13.12v5.01c0 .07-.06.13-.13.13"/><path id="in" d="M936.12 850.19a.12.12 0 0 1-.12-.12v-3.95c0-.07.06-.12.12-.12.07 0 .13.05.13.12v3.95c0 .07-.06.12-.13.12"/><path id="io" d="M936.12 854.76a.12.12 0 0 1-.12-.12v-1.52c0-.06.06-.12.12-.12.07 0 .13.06.13.12v1.52c0 .07-.06.12-.13.12"/><path id="ip" d="M939.12 854.76a.12.12 0 0 1-.12-.12v-1.52c0-.06.05-.12.12-.12.07 0 .13.06.13.12v1.52c0 .07-.06.12-.13.12"/><path id="iq" d="M942.12 854.76a.12.12 0 0 1-.12-.12v-1.52c0-.06.06-.12.12-.12.07 0 .13.06.13.12v1.52c0 .07-.06.12-.13.12"/><path id="ir" d="M933.12 854.76a.12.12 0 0 1-.12-.12v-1.52c0-.06.05-.12.12-.12.07 0 .13.06.13.12v1.52c0 .07-.06.12-.13.12"/><path id="is" d="M945.33 843.49h-3.08a.25.25 0 0 1-.25-.25c0-.13.11-.24.25-.24h3.08c.14 0 .25.11.25.24 0 .14-.11.25-.25.25"/><path id="it" d="M942.25 849.56a.25.25 0 0 1-.25-.24v-6.08a.25.25 0 0 1 .49 0v6.08c0 .13-.11.24-.24.24"/><path id="iu" d="M948.86 856.24h-19.74a.12.12 0 0 1-.12-.12c0-.06.05-.12.12-.12h19.74c.07 0 .12.06.12.12 0 .07-.05.12-.12.12"/></defs><desc>Generated with Avocode.</desc><use fill="#fefefe" xlink:href="#ia" transform="translate(-927 -829)"/><use fill="#fefefe" xlink:href="#ib" transform="translate(-927 -829)"/><use fill="#623713" xlink:href="#ic" transform="translate(-927 -829)"/><use fill="#623713" xlink:href="#id" transform="translate(-927 -829)"/><use fill="#623713" xlink:href="#ie" transform="translate(-927 -829)"/><use fill="#623713" xlink:href="#if" transform="translate(-927 -829)"/><use fill="#fefefe" xlink:href="#ig" transform="translate(-927 -829)"/><use fill="#623713" xlink:href="#ih" transform="translate(-927 -829)"/><use fill="#623713" xlink:href="#ii" transform="translate(-927 -829)"/><use fill="#fefefe" xlink:href="#ij" transform="translate(-927 -829)"/><use fill="#623713" xlink:href="#ik" transform="translate(-927 -829)"/><use fill="#623713" xlink:href="#il" transform="translate(-927 -829)"/><use fill="#623713" xlink:href="#im" transform="translate(-927 -829)"/><use fill="#623713" xlink:href="#in" transform="translate(-927 -829)"/><use fill="#623713" xlink:href="#io" transform="translate(-927 -829)"/><use fill="#623713" xlink:href="#ip" transform="translate(-927 -829)"/><use fill="#623713" xlink:href="#iq" transform="translate(-927 -829)"/><use fill="#623713" xlink:href="#ir" transform="translate(-927 -829)"/><use fill="#623713" xlink:href="#is" transform="translate(-927 -829)"/><use fill="#623713" xlink:href="#it" transform="translate(-927 -829)"/><use fill="#623713" xlink:href="#iu" transform="translate(-927 -829)"/></symbol><symbol viewBox="0 0 24 39" id="parking" xmlns="http://www.w3.org/2000/svg"><defs><path id="ja" d="M946.74 902.89v22.35c0 2.66-2.87 5.41-7.9 7.6-5.03-2.19-7.89-4.94-7.89-7.6v-22.35zm-7.14 33.86c7.15-2.92 11.09-7.01 11.09-11.51V899H927v26.24c0 4.5 3.94 8.59 11.09 11.51l.75.31z"/><path id="jb" d="M929 924.29V900h19.74v24.29c0 3.8-3.77 7.23-9.87 9.72-6.1-2.49-9.87-5.92-9.87-9.72"/><path id="jc" d="M947.74 901.94v23.32c0 3.14-3.23 6.28-8.88 8.67-5.66-2.39-8.89-5.53-8.89-8.67v-23.32zm-8.51 33.94c6.76-2.76 10.48-6.53 10.48-10.62V900H928v25.26c0 4.09 3.72 7.86 10.48 10.62l.38.15z"/><path id="jd" d="M948.86 926.24h-19.74a.12.12 0 0 1-.12-.12c0-.07.06-.12.12-.12h19.74c.07 0 .12.05.12.12 0 .07-.05.12-.12.12"/><path id="je" d="M936.85 907.83h1.69c.93 0 1.69.75 1.69 1.67 0 .92-.76 1.66-1.69 1.66h-1.69zm0 4.17h1.69c1.4 0 2.53-1.12 2.53-2.5s-1.13-2.5-2.53-2.5H936v7.7h.85z"/><path id="jf" d="M934.25 905.24h9.62v9.48h-9.62zm9.74 9.72c.07 0 .12-.06.12-.12v-9.72a.12.12 0 0 0-.12-.12h-9.87a.12.12 0 0 0-.12.12v9.72c0 .06.05.12.12.12z"/><path id="jg" d="M931.49 921.92h2.22c.07 0 .13-.03.18-.08l2.39-2.35h7.2l2.32 2.28v2.09h-14.31zm14.56 2.42c.14 0 .25-.1.25-.24v-2.43a.28.28 0 0 0-.07-.17l-2.47-2.43a.24.24 0 0 0-.18-.07h-7.4c-.06 0-.13.02-.17.07l-2.4 2.36h-2.36a.25.25 0 0 0-.25.24v2.43c0 .14.11.24.25.24z"/><path id="jh" d="M936.47 924.22c0 .67-.56 1.21-1.24 1.21-.68 0-1.23-.54-1.23-1.21 0-.68.55-1.22 1.23-1.22.68 0 1.24.54 1.24 1.22"/><path id="ji" d="M934.73 923.97c.4 0 .74.33.74.73 0 .4-.34.73-.74.73a.74.74 0 0 1-.74-.73c0-.4.33-.73.74-.73zm0 2.43a1.7 1.7 0 0 0 1.72-1.7c0-.94-.77-1.7-1.72-1.7s-1.73.76-1.73 1.7.78 1.7 1.73 1.7z"/><path id="jj" d="M943.47 924.22c0 .67-.56 1.21-1.24 1.21-.68 0-1.23-.54-1.23-1.21 0-.68.55-1.22 1.23-1.22.68 0 1.24.54 1.24 1.22"/><path id="jk" d="M942.73 923.97c.4 0 .74.33.74.73a.74.74 0 1 1-1.49 0c0-.4.34-.73.75-.73zm0 2.43a1.7 1.7 0 0 0 1.72-1.7c0-.94-.77-1.7-1.72-1.7-.96 0-1.73.76-1.73 1.7s.77 1.7 1.73 1.7z"/><path id="jl" d="M946.58 922.49h-12.33a.25.25 0 0 1-.25-.25c0-.13.11-.24.25-.24h12.33c.14 0 .25.11.25.24 0 .14-.11.25-.25.25"/><path id="jm" d="M939.12 924.1a.12.12 0 0 1-.12-.12v-4.86c0-.07.05-.12.12-.12.07 0 .13.05.13.12v4.86c0 .07-.06.12-.13.12"/></defs><desc>Generated with Avocode.</desc><use fill="#fefefe" xlink:href="#ja" transform="translate(-927 -898)"/><use fill="#fefefe" xlink:href="#jb" transform="translate(-927 -898)"/><use fill="#623713" xlink:href="#jc" transform="translate(-927 -898)"/><use fill="#623713" xlink:href="#jd" transform="translate(-927 -898)"/><use fill="#623713" xlink:href="#je" transform="translate(-927 -898)"/><use fill="#623713" xlink:href="#jf" transform="translate(-927 -898)"/><use fill="#623713" xlink:href="#jg" transform="translate(-927 -898)"/><use fill="#fefefe" xlink:href="#jh" transform="translate(-927 -898)"/><use fill="#623713" xlink:href="#ji" transform="translate(-927 -898)"/><use fill="#fefefe" xlink:href="#jj" transform="translate(-927 -898)"/><use fill="#623713" xlink:href="#jk" transform="translate(-927 -898)"/><use fill="#623713" xlink:href="#jl" transform="translate(-927 -898)"/><use fill="#623713" xlink:href="#jm" transform="translate(-927 -898)"/></symbol><symbol viewBox="0 0 24 39" id="post" xmlns="http://www.w3.org/2000/svg"><defs><path id="ka" d="M947.74 705.89v22.35c0 2.66-2.87 5.4-7.9 7.6-5.03-2.2-7.89-4.94-7.89-7.6v-22.35zm-7.14 33.86c7.15-2.92 11.09-7.01 11.09-11.51V702H928v26.24c0 4.5 3.94 8.59 11.09 11.51l.75.31z"/><path id="kb" d="M930 727.29V703h19.74v24.29c0 3.8-3.77 7.23-9.87 9.72-6.1-2.49-9.87-5.92-9.87-9.72"/><path id="kc" d="M940 703v34.01c6.08-2.48 9.85-5.91 9.87-9.69V703z"/><path id="kd" d="M948.74 704.94v23.33c0 3.13-3.23 6.28-8.88 8.66-5.65-2.38-8.88-5.53-8.88-8.66v-23.33zm-8.51 33.94c6.76-2.76 10.48-6.53 10.48-10.61V703H929v25.27c0 4.08 3.72 7.85 10.48 10.61l.38.15z"/><path id="ke" d="M935.49 713.2l4.69-4.62 4.69 4.62v13.02h-9.38zm9.62 13.5c.14 0 .25-.11.25-.24V713.1c0-.06-.02-.13-.07-.17l-4.94-4.86a.25.25 0 0 0-.34 0l-4.94 4.86a.26.26 0 0 0-.07.17v13.36c0 .13.11.24.25.24z"/><path id="kf" d="M945.58 714.56a.28.28 0 0 1-.17-.07l-6-5.91-5.99 5.91c-.09.09-.25.09-.35 0a.26.26 0 0 1 0-.35l6.17-6.07a.26.26 0 0 1 .35 0l6.17 6.07c.09.1.09.25 0 .35a.29.29 0 0 1-.18.07"/><path id="kg" d="M937.49 715.67c.01-1.2 1-2.18 2.22-2.18a2.2 2.2 0 0 1 2.22 2.18v10.69h-4.44zm4.69 11.18c.14 0 .25-.11.25-.25v-10.93a2.7 2.7 0 0 0-2.72-2.67 2.7 2.7 0 0 0-2.71 2.67v10.93c0 .14.11.25.25.25z"/><path id="kh" d="M935.49 726.48h9.38v.73h-9.38zm9.63 1.22c.13 0 .24-.11.24-.24v-1.22a.24.24 0 0 0-.24-.24h-9.87a.25.25 0 0 0-.25.24v1.22c0 .13.11.24.25.24z"/><path id="ki" d="M939.58 711.05a.49.49 0 0 1-.35-.15l-1.23-1.21.7-.69.88.87.89-.87.7.69-1.24 1.21a.45.45 0 0 1-.35.15"/><path id="kj" d="M939.2 712.85l-2.2-2.16.7-.69 2.12 2.09 2.11-2.09.7.69-2.19 2.16a2.57 2.57 0 0 0-1.24 0"/><path id="kk" d="M936 712.69l.7-.69 1.99 1.96c-.28.18-.51.42-.7.69zm7.4-.69l.7.69-1.99 1.96a2.42 2.42 0 0 0-.7-.69z"/><path id="kl" d="M937.47 716.46l-2.47-2.43v-.69l.35-.34 2.2 2.16c-.05.2-.08.4-.08.61zm7.05-3.46l.35.34v.69l-2.47 2.43v-.69c0-.21-.02-.41-.08-.61z"/><path id="km" d="M937.47 717.23l-2.12-2.09a.52.52 0 0 0-.35-.14v1.17l2.47 2.43zm4.93 1.37l2.47-2.43V715a.52.52 0 0 0-.35.14l-2.12 2.09z"/><path id="kn" d="M937.47 720.23l-2.12-2.09a.52.52 0 0 0-.35-.14v1.17l2.47 2.43zm4.93 1.37l2.47-2.43V718a.52.52 0 0 0-.35.14l-2.12 2.09z"/><path id="ko" d="M937.47 723.6l-2.47-2.43V720c.13 0 .25.05.35.14l2.12 2.09zm4.93-1.37l2.12-2.09c.1-.09.22-.14.35-.14v1.17l-2.47 2.43z"/><path id="kp" d="M937.47 725.6l-2.47-2.43V722c.13 0 .25.05.35.14l2.12 2.09zm4.93-1.37l2.12-2.09c.1-.09.22-.14.35-.14v1.17l-2.47 2.43z"/><path id="kq" d="M935.53 726.7l-.53-.53V725c.13 0 .25.05.35.14l1.58 1.56zm7.41 0l1.58-1.56c.1-.09.22-.14.35-.14v1.17l-.54.53z"/></defs><desc>Generated with Avocode.</desc><use fill="#fefefe" xlink:href="#ka" transform="translate(-928 -701)"/><use fill="#fefefe" xlink:href="#kb" transform="translate(-928 -701)"/><use fill="#fefefe" xlink:href="#kc" transform="translate(-928 -701)"/><use fill="#623713" xlink:href="#kd" transform="translate(-928 -701)"/><use fill="#623713" xlink:href="#ke" transform="translate(-928 -701)"/><use fill="#623713" xlink:href="#kf" transform="translate(-928 -701)"/><use fill="#623713" xlink:href="#kg" transform="translate(-928 -701)"/><use fill="#623713" xlink:href="#kh" transform="translate(-928 -701)"/><use fill="#623713" xlink:href="#ki" transform="translate(-928 -701)"/><use fill="#623713" xlink:href="#kj" transform="translate(-928 -701)"/><use fill="#623713" xlink:href="#kk" transform="translate(-928 -701)"/><use fill="#623713" xlink:href="#kl" transform="translate(-928 -701)"/><use fill="#623713" xlink:href="#km" transform="translate(-928 -701)"/><use fill="#623713" xlink:href="#kn" transform="translate(-928 -701)"/><use fill="#623713" xlink:href="#ko" transform="translate(-928 -701)"/><use fill="#623713" xlink:href="#kp" transform="translate(-928 -701)"/><use fill="#623713" xlink:href="#kq" transform="translate(-928 -701)"/></symbol><symbol viewBox="0 0 24 39" id="prichal" xmlns="http://www.w3.org/2000/svg"><path fill="#fefefe" d="M3.95 3.89v22.35c0 2.66 2.86 5.41 7.89 7.6 5.03-2.19 7.9-4.94 7.9-7.6V3.89zm7.89 34.17l-.75-.31C3.94 34.83 0 30.74 0 26.24V0h23.69v26.24c0 4.5-3.94 8.59-11.09 11.51z"/><path fill="#fefefe" d="M2 25.29V1h19.74v24.29c0 3.8-3.77 7.23-9.87 9.72C5.77 32.52 2 29.09 2 25.29"/><path fill="#623713" d="M2.97 2.94v23.32c0 3.14 3.24 6.28 8.89 8.67 5.65-2.39 8.88-5.53 8.88-8.67V2.94zm8.89 34.09l-.38-.15C4.72 34.12 1 30.35 1 26.26V1h21.71v25.26c0 4.09-3.72 7.86-10.48 10.62z"/><path fill="#623713" d="M15.63 24.74c-.47 0-.94-.08-1.29-.26a3.02 3.02 0 0 0-2.36 0 3.3 3.3 0 0 1-2.58 0 3 3 0 0 0-2.35 0 3.3 3.3 0 0 1-2.58 0 3.02 3.02 0 0 0-2.36 0L2 24.26a3.3 3.3 0 0 1 2.58 0 3 3 0 0 0 2.35 0 3.3 3.3 0 0 1 2.58 0c.65.32 1.71.32 2.36 0a3.3 3.3 0 0 1 2.58 0 3 3 0 0 0 2.35 0c.7-.34 1.84-.35 2.55-.01l.03.01c.65.32 1.71.32 2.36 0l.11.22c-.7.35-1.84.35-2.55.01l-.03-.01a3.02 3.02 0 0 0-2.36 0 2.9 2.9 0 0 1-1.28.26M12 22.98v-.24c1.29 0 2.34-2.13 2.34-4.74h.25c0 2.75-1.16 4.98-2.59 4.98"/><path fill="#623713" d="M12 22.98v-.24c4.01 0 7.28-2.13 7.28-4.74h.25c0 2.75-3.38 4.98-7.53 4.98"/><path fill="#fefefe" d="M13.93 23.43c0-1.34-1.1-2.43-2.46-2.43A2.45 2.45 0 0 0 9 23.43z"/><path fill="#623713" d="M13.93 23.43a2.33 2.33 0 0 0-2.34-2.19c-1.25 0-2.28.97-2.34 2.19zm.25.24H9v-.12A2.57 2.57 0 0 1 11.59 21a2.57 2.57 0 0 1 2.59 2.55z"/><path fill="#fefefe" d="M7 23c0 1.34 2.21 2.43 4.93 2.43 2.73 0 4.94-1.09 4.94-2.43z"/><path fill="#623713" d="M7.52 23.49c.27 1.07 2.3 1.94 4.66 1.94 2.37 0 4.39-.87 4.66-1.94zM7 23.24V23h10.36v.24c0 1.5-2.27 2.68-5.18 2.68-2.9 0-5.18-1.18-5.18-2.68zm7.59-4.4h-.25c0-5.74-1.21-9.6-2.34-9.6V9c1.62 0 2.59 5 2.59 9.84"/><path fill="#623713" d="M19.53 18.84h-.25c0-5.29-3.27-9.6-7.28-9.6V9c4.15 0 7.53 4.41 7.53 9.84"/><path fill="#623713" d="M12.25 23.49a.25.25 0 0 1-.25-.24V6.24a.25.25 0 0 1 .49 0v17.01c0 .13-.11.24-.24.24"/><path fill="#623713" d="M12 25.43V23h.25v2.43h-.13z"/><path fill="#623713" d="M13.91 25.27L12 23h.32l1.82 2.17c.02.01.03.03.03.05l-.26.05"/><path fill="#623713" d="M10 25.22c0-.02.01-.04.03-.05L11.85 23h.32l-1.91 2.27a2 2 0 0 1-.26-.05"/><path fill="#623713" d="M8 24.66a.12.12 0 0 1 .05-.05L11.33 23h.54l-3.62 1.78c-.09-.03-.17-.08-.25-.12m7.62.12L12 23h.55l3.27 1.61.05.05-.25.12"/><path fill="#623713" d="M16.07 24.03L11 23h1.21l3.98.81.05.02-.17.2"/><path fill="#623713" d="M7 23.83a.08.08 0 0 1 .05-.02l3.98-.81h1.21l-5.07 1.03a1.63 1.63 0 0 1-.17-.2"/></symbol><symbol viewBox="0 0 24 39" id="service" xmlns="http://www.w3.org/2000/svg"><defs><path id="ma" d="M947.74 773.89v22.35c0 2.66-2.87 5.4-7.9 7.6-5.03-2.2-7.89-4.94-7.89-7.6v-22.35zm-7.14 33.86c7.15-2.92 11.09-7.01 11.09-11.51V770H928v26.24c0 4.5 3.94 8.59 11.09 11.51l.75.31z"/><path id="mb" d="M930 795.29V771h19.74v24.29c0 3.8-3.77 7.23-9.87 9.72-6.1-2.49-9.87-5.92-9.87-9.72"/><path id="mc" d="M948.74 772.94v23.33c0 3.13-3.23 6.27-8.88 8.66-5.66-2.38-8.89-5.53-8.89-8.66v-23.33zm-8.51 33.94c6.76-2.76 10.48-6.53 10.48-10.61V771H929v25.27c0 4.09 3.72 7.85 10.48 10.61l.38.15z"/><path id="md" d="M936.77 783.46l-.06.01c-.68.33-1.46.17-1.96-.32a1.72 1.72 0 0 1-.49-1.01l1.12 1.11c.04.03.08.04.12.03l1.38-.36c.04-.01.07-.04.09-.09l.36-1.35c.02-.04 0-.09-.03-.12l-1.12-1.1a1.7 1.7 0 0 1 1.35 2.41c-.02.05-.01.1.02.14l6.16 6.07c.04.03.09.04.14.02a1.72 1.72 0 0 1 2.46 1.33l-1.13-1.11c-.03-.03-.07-.04-.11-.03l-1.38.36a.14.14 0 0 0-.09.09l-.37 1.35c-.01.05 0 .09.03.12l1.13 1.11a1.78 1.78 0 0 1-1.02-.49 1.64 1.64 0 0 1-.33-1.93.12.12 0 0 0-.03-.14l-6.16-6.06a.1.1 0 0 0-.08-.04zm7.82 8.91c.07 0 .13-.05.13-.12v-.1a.13.13 0 0 0-.04-.09l-1.19-1.17.33-1.22 1.24-.33 1.19 1.17c.02.03.05.04.09.04h.11c.07 0 .12-.05.12-.12v-.04a1.98 1.98 0 0 0-.58-1.34 2 2 0 0 0-2.16-.41l-6.04-5.94c.1-.25.16-.51.16-.76a1.96 1.96 0 0 0-1.97-1.94c-.07 0-.13.06-.13.12v.11c0 .03.02.06.04.08l1.19 1.17-.33 1.22-1.24.33-1.19-1.17a.15.15 0 0 0-.09-.04h-.1c-.07 0-.13.06-.13.12 0 .52.21 1.01.58 1.38.55.54 1.4.73 2.16.41l6.04 5.95a1.88 1.88 0 0 0 .42 2.12c.37.37.87.57 1.39.57z"/><path id="me" d="M937.25 788.79a.24.24 0 0 1-.18-.07.25.25 0 0 1 0-.34l10.47-10.31c.1-.09.25-.09.35 0 .1.1.1.25 0 .35l-10.47 10.3a.23.23 0 0 1-.17.07"/><path id="mf" d="M935.61 793.79a.12.12 0 0 1-.08-.2c1.87-1.85 2.65-4.08 1.74-4.98-.91-.9-3.18-.13-5.06 1.71-.05.05-.13.05-.17 0-.05-.04-.05-.12 0-.17 1.97-1.94 4.39-2.71 5.4-1.71 1.01.99.23 3.38-1.74 5.32-.02.02-.05.03-.09.03"/><path id="mg" d="M934.74 793.2a.12.12 0 0 1-.09-.04c-.04-.04-.04-.12 0-.17 1.85-1.81 2.85-3.9 2.18-4.55-.3-.3-.96-.26-1.8.12-.9.4-1.9 1.12-2.82 2.03-.05.05-.13.05-.17 0-.05-.05-.05-.13 0-.17a10.3 10.3 0 0 1 2.88-2.08c.96-.43 1.7-.45 2.09-.07.78.77-.18 2.92-2.18 4.89a.12.12 0 0 1-.09.04"/><path id="mh" d="M934.87 792.64a.16.16 0 0 1-.09-.03c-.05-.05-.05-.13 0-.17 2.01-1.98 2.99-3.76 2.62-4.13-.37-.36-2.18.61-4.19 2.58-.05.05-.13.05-.17 0-.05-.05-.05-.13 0-.17 1.73-1.71 3.91-3.19 4.53-2.58.62.62-.88 2.76-2.61 4.47a.16.16 0 0 1-.09.03"/><path id="mi" d="M934.12 792.68a.1.1 0 0 1-.08-.04c-.05-.04-.05-.12 0-.17l3.49-3.43c.04-.05.12-.05.17 0 .05.05.05.12 0 .17l-3.49 3.43c-.02.03-.05.04-.09.04"/><path id="mj" d="M934 792.12c-.04 0-.07-.01-.09-.03-.05-.05-.05-.13 0-.17 2-1.97 3.04-3.4 3.05-3.69-.3 0-1.75 1.03-3.75 3-.05.05-.13.05-.17 0-.05-.05-.05-.13 0-.17.14-.15 3.58-3.52 4.1-3.01.51.51-2.91 3.89-3.06 4.04a.11.11 0 0 1-.08.03"/></defs><desc>Generated with Avocode.</desc><use fill="#fefefe" xlink:href="#ma" transform="translate(-928 -769)"/><use fill="#fefefe" xlink:href="#mb" transform="translate(-928 -769)"/><use fill="#623713" xlink:href="#mc" transform="translate(-928 -769)"/><use fill="#623713" xlink:href="#md" transform="translate(-928 -769)"/><use fill="#623713" xlink:href="#me" transform="translate(-928 -769)"/><use fill="#623713" xlink:href="#mf" transform="translate(-928 -769)"/><use fill="#623713" xlink:href="#mg" transform="translate(-928 -769)"/><use fill="#623713" xlink:href="#mh" transform="translate(-928 -769)"/><use fill="#623713" xlink:href="#mi" transform="translate(-928 -769)"/><use fill="#623713" xlink:href="#mj" transform="translate(-928 -769)"/></symbol><symbol viewBox="0 0 24 39" id="sport" xmlns="http://www.w3.org/2000/svg"><defs><path id="na" d="M946.74 1095.89v22.35c0 2.66-2.87 5.4-7.9 7.6-5.03-2.2-7.89-4.94-7.89-7.6v-22.35zm-7.14 33.86c7.15-2.92 11.09-7.01 11.09-11.51V1092H927v26.24c0 4.5 3.94 8.59 11.09 11.51l.75.3z"/><path id="nb" d="M929 1118.29V1094h20v24.29c0 3.79-3.82 7.22-10 9.71-6.18-2.49-10-5.92-10-9.71"/><path id="nc" d="M948 1095.94v23.3c0 3.13-3.27 6.28-9 8.66-5.73-2.38-9-5.52-9-8.66v-23.3zm-8.62 33.91c6.85-2.76 10.62-6.52 10.62-10.61V1094h-22v25.24c0 4.09 3.77 7.85 10.62 10.61l.38.15z"/><path id="nd" d="M942.6 1104.57l.18.01.25.03c.12.02.25.04.39.08l.07.02a2.95 2.95 0 0 1 .57.25l.28.18.25.22.02.02.2.22.19.27c.06.1.11.21.15.31a2.5 2.5 0 0 1 .22.71c.01.1.03.21.03.32l.01.1c.01.16 0 .32-.01.48-.01.16-.04.32-.07.49l-.02.07-.1.38-.11.31-.05.12-.19.39c-.06.12-.13.25-.21.37-.08.11-.15.23-.24.34l-.26.32-.28.3-.3.28-.32.26-.35.24c-.12.07-.24.15-.37.21-.14.08-.27.14-.39.19l-.03.01-.08.03a3.83 3.83 0 0 1-.77.23c-.17.04-.32.06-.46.07h-.05c-.15.01-.29.02-.43.01l-.14-.01c-.1 0-.19-.02-.29-.03a2.62 2.62 0 0 1-.38-.09l-.04-.02c-.1-.03-.2-.06-.29-.11-.11-.04-.21-.1-.31-.15l-.27-.19-.24-.22a1.64 1.64 0 0 1-.21-.25 1.52 1.52 0 0 1-.19-.28c-.06-.1-.11-.2-.15-.31l-.09-.23-.03-.11c-.04-.13-.06-.26-.08-.38l-.02-.17v-.05l-.02-.21.02-.36.01-.13.05-.38.05-.2.08-.26.15-.41.01-.04c.05-.12.11-.25.18-.37l.21-.36c.07-.12.15-.24.24-.35l.25-.32.29-.31.3-.27a4.03 4.03 0 0 1 .66-.5l.37-.22.39-.18c.14-.06.28-.12.42-.16l.28-.08.18-.04c.13-.03.26-.05.4-.06l.1-.01.32-.02zm-2.14 8.09l.31-.02h.04c.16-.01.32-.03.5-.07l.09-.02a5.69 5.69 0 0 0 .71-.22l.09-.04.03-.01c.13-.05.26-.11.41-.2.14-.06.26-.14.39-.22l.36-.24.33-.27.33-.3.28-.31.27-.33c.09-.12.18-.24.25-.36l.23-.39.19-.4.06-.14.11-.31.11-.41.01-.07c.04-.18.07-.35.08-.5v-.04c.02-.15.02-.32.01-.49l-.01-.12-.03-.33a3.62 3.62 0 0 0-.41-1.1l-.2-.3-.22-.24-.02-.03a5.5 5.5 0 0 0-.58-.43l-.33-.17-.3-.1-.08-.02a2.71 2.71 0 0 0-.41-.09l-.26-.03-.2-.01h-.07l-.34.02-.11.01c-.15.01-.28.03-.42.06l-.18.05-.3.08c-.15.05-.3.1-.45.17a4.9 4.9 0 0 0-.4.19l-.39.22-.35.25-.34.27-.32.3-.29.31-.27.34a4.5 4.5 0 0 0-.24.36c-.09.12-.16.25-.23.38l-.18.38-.01.03-.17.45-.08.28-.04.2c-.03.13-.05.27-.06.4l-.02.14-.01.38.01.23.01.05.02.18.09.41.03.12a2 2 0 0 0 .1.26c.04.11.1.23.16.34l.2.3.26.29.24.22a4.91 4.91 0 0 0 .63.38l.31.11.06.02.4.1.31.03.14.01.16.01zm2.05-8.42c.94 0 1.75.32 2.34.91.7.7 1.01 1.7.88 2.83a5.4 5.4 0 0 1-1.6 3.15 5.32 5.32 0 0 1-3.61 1.63h-.04c-.48 0-.93-.09-1.34-.25a3.07 3.07 0 0 1-1.9-3.01c0-1.27.6-2.6 1.63-3.63a5.23 5.23 0 0 1 3.64-1.63zm-1.99 8.76a5.53 5.53 0 0 0 3.78-1.7 5.67 5.67 0 0 0 1.67-3.3 3.59 3.59 0 0 0-.95-3.02 3.46 3.46 0 0 0-2.51-.98c-1.34 0-2.73.62-3.81 1.7a5.47 5.47 0 0 0-1.7 3.8c0 .52.09 1 .27 1.45a3.28 3.28 0 0 0 1.78 1.78c.43.18.91.27 1.43.27z"/><path id="ne" d="M931.48 1118.07a.85.85 0 0 1 .14-.11c.11-.08.24-.17.38-.31a76.2 76.2 0 0 1 3.47-3.34c.19-.16.38-.38.55-.63.02.06.06.13.11.18.05.06.12.1.19.12-.26.18-.47.36-.63.55-.36.46-2.27 2.4-3.34 3.47-.14.14-.23.27-.31.38l-.09.13a1.13 1.13 0 0 1-.25-.21c-.16-.16-.2-.23-.22-.23zm.48.93c.23 0 .36-.18.48-.35a2 2 0 0 1 .25-.31c.3-.3 2.93-2.92 3.37-3.5.84-1.01 3.74-1.86 4.74-1.98a.23.23 0 0 0 .2-.26c-.01-.12-.13-.22-.26-.22-.47 0-.9-.09-1.3-.25a.24.24 0 0 0-.3.11c-.04.06-.04.13-.02.2l-.04.01c-.4.12-1.62.47-2.59 1.03.58-.93.94-2.16 1.07-2.6v-.01l.08.02c.15.01.25-.11.25-.25a3.39 3.39 0 0 1-.27-1.4c0-.13-.1-.23-.23-.24-.12 0-.24.08-.25.21-.14 1-.99 3.91-1.97 4.72-.56.43-3.02 2.89-3.51 3.38a2 2 0 0 1-.31.25c-.16.11-.33.23-.35.44-.02.21.13.41.36.65.22.21.4.35.6.35z"/><path id="nf" d="M940 1111.96l5.95-5.96a.5.5 0 0 1 .05.13l-5.87 5.87-.13-.04"/><path id="ng" d="M938 1109.88l5.88-5.88.12.04-5.96 5.96a.56.56 0 0 0-.04-.12"/><path id="nh" d="M941.88 1112l-3.88-3.88a.56.56 0 0 1 .04-.12l3.96 3.96-.12.04"/><path id="ni" d="M943.91 1111l-4.91-4.92.04-.03v-.01l.05-.04 4.91 4.91-.04.05h-.01z"/><path id="nj" d="M945.96 1108l-3.96-3.96.12-.04 3.88 3.88-.04.12"/><path id="nk" d="M946 1107l-3-3h.17l2.83 2.83v.17"/><path id="nl" d="M944.93 1110l-4.93-4.93.09-.06.02-.01 4.89 4.89-.01.02z"/><path id="nm" d="M943.9 1112l-4.9-4.89v-.01l.07-.1 4.93 4.93-.1.07z"/><path id="nn" d="M940.83 1112l-2.83-2.83v-.17l3 3h-.17"/><path id="no" d="M938.02 1108.8l4.78-4.78.09-.01.11-.01-5 5 .01-.11z"/><path id="np" d="M939 1111.91l6.91-6.91.02.02.02.02.05.05-6.91 6.91-.05-.05-.02-.02z"/><path id="nq" d="M941 1113l5-5-.02.2-4.78 4.78-.2.02"/><path id="nr" d="M938.88 1111.12l.02-.06c-.07-.08-.15-.16-.21-.25l-.19-.27-.15-.31a1.35 1.35 0 0 1-.08-.24l-.04-.1-.08-.39-.02-.16v-.05l-.01-.21.01-.36.01-.13c.01-.13.03-.25.06-.37l.04-.2.08-.26.15-.41.01-.03.17-.36c.07-.13.14-.25.22-.36.08-.13.15-.24.23-.34.08-.12.17-.22.25-.32l.29-.3.29-.28.31-.25.34-.24.36-.21.39-.18.42-.16.27-.08.18-.04.39-.06.11-.01.31-.01h.06l.19.01.24.02.39.08.07.03.27.09.31.15c.1.06.19.12.27.19.09.06.17.13.25.21l.02.02.2.22.19.27c.06.1.11.21.15.31.05.1.09.21.12.32l.01.01.09.38.03.31.01.11-.01.46v.01l-.07.48-.02.07-.1.38-.11.3-.05.12-.18.39a5.74 5.74 0 0 1-.45.7c-.08.1-.16.21-.26.31l-.27.3-.3.28-.32.25a5 5 0 0 1-1.09.63l-.03.01-.08.03a4.83 4.83 0 0 1-.67.21l-.09.02c-.16.03-.31.06-.45.07h-.05l-.43.01-.14-.01-.28-.03c-.13-.03-.25-.05-.38-.1l-.04-.01c-.1-.03-.2-.06-.29-.11-.11-.04-.21-.1-.31-.15l-.27-.19-.22-.2zm2.12.88l.29-.01h.04l.48-.07a.3.3 0 0 1 .09-.02c.12-.03.25-.06.37-.11.1-.03.21-.06.31-.11l.12-.04a4.58 4.58 0 0 0 1.11-.64l.33-.26.31-.29.27-.3a4.03 4.03 0 0 0 .51-.67l.21-.37.19-.39.05-.13.11-.3.11-.39.01-.08c.04-.17.06-.33.07-.48l.01-.03.01-.47-.01-.11-.04-.32a2.46 2.46 0 0 0-.09-.39v-.01a3.42 3.42 0 0 0-.13-.34l-.16-.32-.2-.28-.21-.24-.02-.01a2.85 2.85 0 0 0-.54-.42l-.33-.16a2.3 2.3 0 0 0-.28-.1l-.07-.02c-.13-.04-.27-.06-.4-.08a1 1 0 0 0-.25-.03l-.19-.01h-.07l-.32.01-.11.01-.4.07-.19.04-.28.08a5.46 5.46 0 0 0-.82.35c-.13.06-.25.14-.37.21l-.35.24-.32.26-.31.29-.28.3-.25.33-.24.34-.22.37-.18.37-.01.03c-.06.16-.12.3-.15.43l-.08.27-.05.19-.06.39-.01.13-.01.37.01.22.01.05.02.17a3.14 3.14 0 0 0 .36 1.08 3.4 3.4 0 0 0 .42.55l.02.01.23.21.28.2a3.18 3.18 0 0 0 1.06.38l.29.04.14.01h.16z"/><path id="ns" d="M935.5 1099.27a1.23 1.23 0 1 1 0 2.46 1.23 1.23 0 0 1 0-2.46zm0 2.73a1.5 1.5 0 1 0 0-3 1.5 1.5 0 0 0 0 3z"/><path id="nt" d="M934.89 1101a.92.92 0 0 1-.39-.09.82.82 0 0 1-.2-.12l-.16-.17a.7.7 0 0 1-.14-.35.7.7 0 0 1 .09-.39c.19-.35.77-.76.96-.87.05-.02.11-.01.14.03.03.05.02.11-.03.14a3 3 0 0 0-.88.78v.01a.42.42 0 0 0-.07.28c.01.09.05.18.1.26a.8.8 0 0 0 .29.23c.11.05.24.07.35.06a.46.46 0 0 0 .25-.1.58.58 0 0 0 .21-.27l.04-.11c.18-.42.31-.73.35-.79.03-.05.1-.07.14-.04.06.02.07.08.05.13l-.34.77-.05.11a.82.82 0 0 1-.27.36.82.82 0 0 1-.36.14h-.08"/></defs><desc>Generated with Avocode.</desc><use fill="#fefefe" xlink:href="#na" transform="translate(-927 -1092)"/><use fill="#fefefe" xlink:href="#nb" transform="translate(-927 -1092)"/><use fill="#623713" xlink:href="#nc" transform="translate(-927 -1092)"/><use fill="#623713" xlink:href="#nd" transform="translate(-927 -1092)"/><use fill="#623713" xlink:href="#ne" transform="translate(-927 -1092)"/><use fill="#623713" xlink:href="#nf" transform="translate(-927 -1092)"/><use fill="#623713" xlink:href="#ng" transform="translate(-927 -1092)"/><use fill="#623713" xlink:href="#nh" transform="translate(-927 -1092)"/><use fill="#623713" xlink:href="#ni" transform="translate(-927 -1092)"/><use fill="#623713" xlink:href="#nj" transform="translate(-927 -1092)"/><use fill="#623713" xlink:href="#nk" transform="translate(-927 -1092)"/><use fill="#623713" xlink:href="#nl" transform="translate(-927 -1092)"/><use fill="#623713" xlink:href="#nm" transform="translate(-927 -1092)"/><use fill="#623713" xlink:href="#nn" transform="translate(-927 -1092)"/><use fill="#623713" xlink:href="#no" transform="translate(-927 -1092)"/><use fill="#623713" xlink:href="#np" transform="translate(-927 -1092)"/><use fill="#623713" xlink:href="#nq" transform="translate(-927 -1092)"/><use fill="#623713" xlink:href="#nr" transform="translate(-927 -1092)"/><use fill="#623713" xlink:href="#ns" transform="translate(-927 -1092)"/><use fill="#623713" xlink:href="#nt" transform="translate(-927 -1092)"/></symbol><symbol viewBox="0 0 24 39" id="walking" xmlns="http://www.w3.org/2000/svg"><defs><path id="oa" d="M1137.74 903.89v22.35c0 2.66-2.87 5.41-7.9 7.6-5.03-2.19-7.89-4.94-7.89-7.6v-22.35zm-7.14 33.86c7.15-2.92 11.09-7.01 11.09-11.51V900H1118v26.24c0 4.5 3.94 8.59 11.09 11.51l.75.31z"/><path id="ob" d="M1120 925.29V901h19.74v24.29c0 3.8-3.77 7.23-9.87 9.72-6.1-2.49-9.87-5.92-9.87-9.72"/><path id="oc" d="M1138.74 902.94v23.32c0 3.14-3.23 6.28-8.88 8.67-5.66-2.39-8.89-5.53-8.89-8.67v-23.32zm-8.51 33.94c6.76-2.76 10.48-6.53 10.48-10.62V901H1119v25.26c0 4.09 3.72 7.86 10.48 10.62l.38.15z"/><path id="od" d="M1139.86 927.24h-19.74a.12.12 0 0 1-.12-.12c0-.07.05-.12.12-.12h19.74c.07 0 .12.05.12.12 0 .07-.05.12-.12.12"/><path id="oe" d="M1130.62 928.04a.24.24 0 0 1-.23-.14l-2.24-4.4h-1.43l-2.24 4.4a.26.26 0 0 1-.34.11.23.23 0 0 1-.11-.33l2.38-4.68h2.05l2.39 4.68c.06.12.01.27-.12.33a.2.2 0 0 1-.11.03"/><path id="of" d="M1130.49 923.58h-5.19a.3.3 0 0 1-.3-.29.3.3 0 0 1 .3-.29h5.19c.16 0 .3.13.3.29a.3.3 0 0 1-.3.29"/><path id="og" d="M1126.59 925.58h-3.29a.3.3 0 0 1-.3-.29.3.3 0 0 1 .3-.29h3.29a.29.29 0 0 1 0 .58"/><path id="oh" d="M1131.61 925.58h-3.31a.3.3 0 0 1-.3-.29.3.3 0 0 1 .3-.29h3.31c.16 0 .3.13.3.29a.3.3 0 0 1-.3.29"/><path id="oi" d="M1133.49 927.45a.5.5 0 0 1-.49-.49v-16.47a.5.5 0 0 1 .98 0v16.47a.5.5 0 0 1-.49.49"/><path id="oj" d="M1136.4 912.46a.2.2 0 0 1-.14-.06l-1.96-1.93-1.96 1.93c-.08.08-.21.08-.28 0-.08-.08-.08-.2 0-.27l2.1-2.07a.2.2 0 0 1 .28 0l2.1 2.07c.08.07.08.19 0 .27a.2.2 0 0 1-.14.06"/><path id="ok" d="M1137.18 915.54a.33.33 0 0 1-.24-.1l-2.68-2.64-2.68 2.64a.34.34 0 0 1-.48 0 .33.33 0 0 1 0-.47l2.92-2.87a.34.34 0 0 1 .48 0l2.92 2.87c.13.13.13.34 0 .47a.33.33 0 0 1-.24.1"/><path id="ol" d="M1137.98 919.86a.49.49 0 0 1-.35-.15l-3.39-3.34-3.4 3.34a.5.5 0 0 1-.7 0 .48.48 0 0 1 0-.68l4.1-4.03 4.09 4.03c.19.19.19.5 0 .68-.1.1-.22.15-.35.15"/></defs><desc>Generated with Avocode.</desc><use fill="#fefefe" xlink:href="#oa" transform="translate(-1118 -899)"/><use fill="#fefefe" xlink:href="#ob" transform="translate(-1118 -899)"/><use fill="#623713" xlink:href="#oc" transform="translate(-1118 -899)"/><use fill="#623713" xlink:href="#od" transform="translate(-1118 -899)"/><use fill="#623713" xlink:href="#oe" transform="translate(-1118 -899)"/><use fill="#623713" xlink:href="#of" transform="translate(-1118 -899)"/><use fill="#623713" xlink:href="#og" transform="translate(-1118 -899)"/><use fill="#623713" xlink:href="#oh" transform="translate(-1118 -899)"/><use fill="#623713" xlink:href="#oi" transform="translate(-1118 -899)"/><use fill="#623713" xlink:href="#oj" transform="translate(-1118 -899)"/><use fill="#623713" xlink:href="#ok" transform="translate(-1118 -899)"/><use fill="#623713" xlink:href="#ol" transform="translate(-1118 -899)"/></symbol><symbol viewBox="0 0 25 40" id="water" xmlns="http://www.w3.org/2000/svg"><defs><path id="pa" d="M1137.4 637.04v23.24c0 2.77-2.96 5.63-8.16 7.91-5.2-2.28-8.16-5.14-8.16-7.91v-23.24zm-7.38 35.22c7.39-3.03 11.46-7.29 11.46-11.98V633H1117v27.28c0 4.69 4.07 8.95 11.46 11.98l.78.32z"/><path id="pb" d="M1119 660.27V635h20.4v25.27c0 3.94-3.9 7.51-10.2 10.1-6.3-2.59-10.2-6.16-10.2-10.1"/><path id="pc" d="M1130 671.24c6.49-2.57 10.51-6.12 10.53-10.04V636H1130z"/><path id="pd" d="M1137.31 643.14a.26.26 0 0 1-.26-.26c0-.2-.01-.39-.05-.59a.26.26 0 0 1 .21-.29c.14-.02.27.07.3.21.03.22.05.45.05.67 0 .14-.11.26-.25.26z"/><path id="pe" d="M1134.61 639.82a3.43 3.43 0 0 0-1.09-.32c-.14-.01-.24-.14-.23-.28a.26.26 0 0 1 .29-.22c.43.05.85.17 1.25.36.13.06.18.21.12.34a.25.25 0 0 1-.23.14.36.36 0 0 1-.11-.02zm-3.64.03a.26.26 0 0 1 .09-.35c.38-.21.79-.37 1.22-.45.14-.03.27.06.3.2a.24.24 0 0 1-.2.29c-.37.08-.73.21-1.06.4a.35.35 0 0 1-.13.03c-.09 0-.18-.04-.22-.12zm5.26 1.51a3.56 3.56 0 0 0-.68-.9c-.1-.1-.11-.26-.01-.36.1-.1.26-.11.36-.01.32.3.58.65.78 1.03.07.12.02.27-.1.34a.27.27 0 0 1-.12.03.28.28 0 0 1-.23-.13zm-6.76.36c-.13-.05-.18-.2-.13-.33.18-.4.42-.76.71-1.08.09-.11.25-.11.36-.02.1.09.11.25.02.36-.26.28-.47.6-.62.94a.25.25 0 0 1-.23.15c-.04 0-.07 0-.11-.02zm-.47 2.15v-.86l.02-.37a.25.25 0 0 1 .28-.23c.14.01.24.13.23.27l-.02.33v.86c0 .14-.11.26-.25.26a.26.26 0 0 1-.26-.26zm0 2.43v-1.21c0-.14.11-.25.26-.25.14 0 .25.11.25.25v1.21c0 .14-.11.25-.25.25a.25.25 0 0 1-.26-.25zm0 2.43v-1.21c0-.15.11-.26.26-.26.14 0 .25.11.25.26v1.21c0 .14-.11.25-.25.25a.25.25 0 0 1-.26-.25z"/><path id="pf" d="M1129.26 651.14a.26.26 0 0 1-.26-.26v-.63c0-.14.11-.25.26-.25.14 0 .25.11.25.25v.63c0 .14-.11.26-.25.26"/><path id="pg" d="M1123.13 645.88a.13.13 0 0 1-.13-.13c0-.22.03-.44.08-.66.02-.06.09-.1.16-.09.07.02.11.09.09.16-.05.19-.07.39-.07.59 0 .07-.06.13-.13.13"/><path id="ph" d="M1127.6 643.82a2.44 2.44 0 0 0-1.09-.57.14.14 0 0 1-.1-.15.14.14 0 0 1 .15-.1c.45.11.87.32 1.21.63.05.05.06.13.01.18a.12.12 0 0 1-.09.04c-.04 0-.07-.01-.09-.03zm-3.56.11a.13.13 0 0 1 0-.18c.32-.33.72-.58 1.16-.71.07-.01.14.02.16.09a.13.13 0 0 1-.09.16c-.4.11-.76.34-1.05.63a.12.12 0 0 1-.09.04c-.04 0-.07-.01-.09-.03zm4.35 2.16v-.5c0-.26-.04-.51-.12-.74-.02-.07.01-.14.08-.16.07-.02.14.01.16.08.09.26.13.54.13.82v.5c0 .07-.06.13-.13.13s-.12-.06-.12-.13zm0 2.61v-1.3c0-.07.05-.13.12-.13.07 0 .13.06.13.13v1.3c0 .07-.06.13-.13.13s-.12-.06-.12-.13z"/><path id="pi" d="M1128.13 650.88c-.07 0-.13-.05-.13-.12v-.64c0-.06.06-.12.13-.12s.13.06.13.12v.64c0 .07-.06.12-.13.12"/><path id="pj" d="M1132.22 647.73c-.03 0-.06-.02-.06-.06 0-.2-.05-.4-.15-.58-.02-.03-.01-.06.02-.08a.07.07 0 0 1 .09.02c.11.2.16.42.16.64 0 .04-.03.06-.06.06"/><path id="pk" d="M1130.63 647.34l.04-.01c.28-.19.62-.25.96-.17.03.01.07-.01.07-.05.01-.03-.01-.07-.05-.07a1.34 1.34 0 0 0-1.05.18.07.07 0 0 0-.02.09c.01.02.03.03.05.03zm-.57 1.9c.04 0 .07-.03.07-.07v-.85l.01-.18a.05.05 0 0 0-.05-.07c-.03 0-.07.01-.07.05-.02.07-.02.14-.02.21v.84c0 .04.03.07.06.07z"/><path id="pl" d="M1130.06 650.76c-.03 0-.06-.03-.06-.07v-.63c0-.03.03-.06.06-.06.04 0 .07.03.07.06v.63c0 .04-.03.07-.07.07"/><path id="pm" d="M1139.52 657.25h-20.39c-.07 0-.13-.05-.13-.12 0-.07.06-.13.13-.13h20.39c.07 0 .13.06.13.13s-.06.12-.13.12"/><path id="pn" d="M1128 671.21h2.55V651H1128z"/><path id="po" d="M1128.02 651.01h1.53v19.2h-1.53zm2.04 20.21a.5.5 0 0 0 .51-.5V650.5c0-.27-.23-.5-.51-.5h-2.55a.51.51 0 0 0-.51.5v20.22c0 .28.23.5.51.5z"/><path id="pp" d="M1138.4 636.02v24.26c0 3.26-3.34 6.53-9.18 9-5.84-2.47-9.18-5.74-9.18-9v-24.26zm-8.79 35.3c6.98-2.87 10.83-6.79 10.83-11.04V634H1118v26.28c0 4.25 3.85 8.17 10.83 11.04l.39.16z"/></defs><desc>Generated with Avocode.</desc><use fill="#fefefe" xlink:href="#pa" transform="translate(-1117 -633)"/><use fill="#fefefe" xlink:href="#pb" transform="translate(-1117 -633)"/><use fill="#fefefe" xlink:href="#pc" transform="translate(-1117 -633)"/><use fill="#623713" xlink:href="#pd" transform="translate(-1117 -633)"/><use fill="#623713" xlink:href="#pe" transform="translate(-1117 -633)"/><use fill="#623713" xlink:href="#pf" transform="translate(-1117 -633)"/><use fill="#623713" xlink:href="#pg" transform="translate(-1117 -633)"/><use fill="#623713" xlink:href="#ph" transform="translate(-1117 -633)"/><use fill="#623713" xlink:href="#pi" transform="translate(-1117 -633)"/><use fill="#623713" xlink:href="#pj" transform="translate(-1117 -633)"/><use fill="#623713" xlink:href="#pk" transform="translate(-1117 -633)"/><use fill="#623713" xlink:href="#pl" transform="translate(-1117 -633)"/><use fill="#623713" xlink:href="#pm" transform="translate(-1117 -633)"/><use fill="#fefefe" xlink:href="#pn" transform="translate(-1117 -633)"/><use fill="#623713" xlink:href="#po" transform="translate(-1117 -633)"/><use fill="#623713" xlink:href="#pp" transform="translate(-1117 -633)"/></symbol></svg>