<?xml version="1.0" encoding="utf-8"?><svg xmlns="http://www.w3.org/2000/svg" xmlns:xlink="http://www.w3.org/1999/xlink"><symbol viewBox="0 0 10.12 16.96" id="arrow" xmlns="http://www.w3.org/2000/svg"><path fill="none" stroke="#fff" stroke-miterlimit="50" stroke-width="3" d="M1.56.98L8 8.43l-6.44 7.45"/></symbol><symbol viewBox="0 0 17.83 17.83" id="close" xmlns="http://www.w3.org/2000/svg"><path fill="none" stroke="#009bc0" stroke-linecap="square" stroke-miterlimit="50" stroke-width="2" d="M16.14 1.41L1.41 16.34m14.73 0L1.41 1.41"/></symbol><symbol viewBox="0 0 56 45" id="convert" xmlns="http://www.w3.org/2000/svg"><path fill="#595959" d="M5.6 0A5.63 5.63 0 0 0 0 5.63v33.75A5.63 5.63 0 0 0 5.6 45h44.8c3.08 0 5.6-2.53 5.6-5.62V5.63C56 2.53 53.48 0 50.4 0z"/></symbol><symbol viewBox="0 0 52 52" id="glub" xmlns="http://www.w3.org/2000/svg"><path fill="#595959" d="M0 26c0 14.3 11.7 26 26 26s26-11.7 26-26S40.3 0 26 0 0 11.7 0 26zm36.58-11c-.77-3.25-2.05-6-3.58-9 4.6 1.75 8.7 4.75 11 9zM31 15H21c1.05-3.5 2.89-7 5-10a32.7 32.7 0 0 1 5 10zM5 26c0-1.75.27-3.5.81-5H15c-.27 1.75-.27 3.25-.27 5s.27 3.25.27 5H5.81C5.27 29.5 5 27.75 5 26zm10.42 10c.77 3.25 2.05 6 3.58 9-4.6-1.75-8.7-4.75-11-9zM8 15a21.47 21.47 0 0 1 11-9c-1.53 3-2.81 5.75-3.58 9zm13 21h10c-1.05 3.5-2.89 7-5 10a32.7 32.7 0 0 1-5-10zm-1.49-5c-.26-1.75-.51-3.25-.51-5s.25-3.25.51-5h11.98c.26 1.75.51 3.25.51 5s-.51 3.25-.76 5zm17.07 5H44c-2.3 4.25-6.4 7.25-11 9a35.26 35.26 0 0 0 3.58-9zm.69-10c0-1.75-.27-3.25-.27-5h9.19c.54 1.5.81 3.25.81 5s-.27 3.5-.81 5H37c.27-1.75.27-3.25.27-5z"/></symbol><symbol viewBox="0 0 32 15" id="key" xmlns="http://www.w3.org/2000/svg"><path fill="#202521" d="M9.28 9.79c.42-.88.17-1.77-.74-2.64.93-.78 1.21-1.72.63-2.83A2.07 2.07 0 0 0 7.02 3.3c-.9.12-1.48.76-1.78 1.99-.93-.27-1.73-.04-2.28.75-.48.69-.5 1.45-.04 2.16.55.85 1.36 1.07 2.32.82.28 1.23.89 1.89 1.87 1.99.93.1 1.76-.37 2.17-1.22zm21.01-4.61c.9 0 1.39.48 1.39 1.38v1.17c0 .91-.48 1.4-1.4 1.4l-1.66-.01c.03.12.07.22.07.31v2.64c0 .5-.18.89-.62 1.13-.81.46-1.75-.12-1.77-1.09V9.42l-.01-.24-.67-.05v2.96c0 .75-.5 1.27-1.19 1.27s-1.18-.52-1.19-1.27V9.8l.01-.6H11.36l.03.2a4.13 4.13 0 0 1-1.85 4.17 4.28 4.28 0 0 1-6.43-2.12.53.53 0 0 0-.26-.25 4.29 4.29 0 0 1-.01-8.08c.15-.05.23-.12.28-.28a4.3 4.3 0 0 1 8.22 2.36l.34-.02h18.61z"/></symbol><symbol viewBox="0 0 60 57" id="logo" xmlns="http://www.w3.org/2000/svg"><path fill="#bd9c69" d="M17.05 53.69a.7.7 0 0 0-.96 0c-.24.23-.51.42-.8.59a1.42 1.42 0 0 1-.88-.37.36.36 0 0 0-.48 0 .3.3 0 0 0 0 .45c.14.13.3.23.46.32a4.55 4.55 0 0 1-4.54-.99 4.01 4.01 0 0 1-.96-4.5l6.36-5.96a9.9 9.9 0 0 1-.94-1.83l-6.86 6.44a4.58 4.58 0 0 1-4.8-.9 4.01 4.01 0 0 1-1.05-4.26c.09.15.19.3.33.43.13.12.35.12.48 0a.3.3 0 0 0 0-.45 1.24 1.24 0 0 1-.39-.82c.18-.27.38-.52.63-.75a.6.6 0 0 0 0-.9.7.7 0 0 0-.96 0 5.2 5.2 0 0 0 0 7.65 5.95 5.95 0 0 0 4.07 1.58l-.71.67a.9.9 0 0 0 0 1.35c.4.37 1.04.37 1.44 0l.71-.67c0 1.38.57 2.76 1.69 3.82a6 6 0 0 0 4.08 1.58c1.48 0 2.96-.53 4.08-1.58a.6.6 0 0 0 0-.9M57.2 1.27a1 1 0 0 1 .72.28c.2.19.3.43.3.68 0 .24-.1.48-.3.67a1.01 1.01 0 0 1-.92.26.93.93 0 0 0-.27-.48.99.99 0 0 0-.52-.26c-.02-.07-.02-.13-.02-.19a.9.9 0 0 1 .3-.68 1 1 0 0 1 .71-.28zm-.79 3.05a2.45 2.45 0 0 0 2.48-.52 2.16 2.16 0 0 0 0-3.15 2.5 2.5 0 0 0-3.36 0 2.14 2.14 0 0 0-.56 2.32l-1.25 1.17L50 .65l-1.67 1.58 3.72 3.48L46 11.38v2.7l7.49-7.02 3.72 3.49 1.68-1.57-3.72-3.49zm2.33 41.07c0-2.6-1.06-5.22-3.18-7.2a.7.7 0 0 0-.96 0 .6.6 0 0 0 0 .9c.4.37.75.78 1.07 1.2a2.74 2.74 0 0 1-.83 2.62.3.3 0 0 0 0 .45c.13.13.35.13.48 0 .59-.55.94-1.24 1.05-1.96a8.44 8.44 0 0 1-1.09 9.58l-9.8-9.19c-.14.36-.31.72-.49 1.07-.14.25-.28.51-.44.76l9.29 8.71a9.91 9.91 0 0 1-10.22 1.02c.77-.1 1.51-.43 2.1-.98a.3.3 0 0 0 0-.45.34.34 0 0 0-.48 0 3.2 3.2 0 0 1-2.8.77 8.67 8.67 0 0 1-1.28-1 .7.7 0 0 0-.96 0 .6.6 0 0 0 0 .9 11.2 11.2 0 0 0 7.68 2.98c2.53 0 5.06-.83 7.09-2.48.3.03.6-.06.83-.27.23-.21.32-.5.29-.78a9.78 9.78 0 0 0 2.65-6.65M3.86 3.68a.95.95 0 0 0-.28.48c-.07.02-.14.02-.21.02-.26 0-.51-.09-.71-.28a.89.89 0 0 1-.3-.67c0-.25.1-.49.3-.68a1.07 1.07 0 0 1 1.44 0h-.01c.21.19.3.43.3.68 0 .06 0 .12-.02.19a.93.93 0 0 0-.51.26zm8.4-.45l-1.68-1.57-3.72 3.48-1.25-1.17a2.11 2.11 0 0 0-.55-2.32 2.5 2.5 0 0 0-3.36 0 2.12 2.12 0 0 0 0 3.15 2.42 2.42 0 0 0 2.47.52l1.25 1.17-3.73 3.49 1.69 1.57L7.1 8.07l6.43 6.03v-2.71L8.54 6.72zM29.71 49.3L29 49l.75 1.7.74-1.69-.74.3-.04-.01"/><path fill="#bd9c69" d="M42.16 38.1c0 1.03-.27 2.04-.8 3.06a13.67 13.67 0 0 1-4.26 4.5 30.71 30.71 0 0 1-7.16 3.78l-.04-.01c-3.83-1.54-6.88-3.34-8.95-5.24a11.27 11.27 0 0 1-2.43-3.03 6.44 6.44 0 0 1-.8-3.06V7.54h24.44zM15 5v33.1c0 1.45.38 2.86 1.08 4.19 1.05 1.99 2.79 3.78 5.05 5.4A37.75 37.75 0 0 0 29.42 52l.52.2.52-.2c4.3-1.67 7.84-3.67 10.36-5.99a13.98 13.98 0 0 0 2.97-3.72 8.95 8.95 0 0 0 1.08-4.19V5z"/><path fill="#bd9c69" d="M37.92 14.46V14h-3.59l-4.45 8.95L25.8 14H22v.46l1.61.23v10.37L22 25.3v.46h4.28v-.46l-1.69-.24v-9.41l4.59 10.11h.33l.45-.91 4.56-9.2v9.41l-1.69.24v.46h5.09v-.46l-1.61-.24V14.69zM29.52 32H24v2.76h.63l.25-1.83a29.32 29.32 0 0 1 3.24-.18h.47v10.31l-1.99.24v.46h5.79v-.46l-1.99-.24V32.77h.46l1.06.01a26.38 26.38 0 0 1 2.23.15l.25 1.83h.64V32zM22 28.64h14.26V28H22z"/></symbol><symbol viewBox="0 0 49 49" id="mobile" xmlns="http://www.w3.org/2000/svg"><path fill="#595959" d="M9.8 21.23c3.81 7.63 10.34 13.89 17.97 17.97l5.99-5.99c.81-.82 1.9-1.09 2.72-.54a28.43 28.43 0 0 0 9.8 1.63c1.63 0 2.72 1.09 2.72 2.72v9.26c0 1.63-1.09 2.72-2.72 2.72A46.24 46.24 0 0 1 0 2.72C0 1.09 1.09 0 2.72 0h9.53c1.63 0 2.72 1.09 2.72 2.72 0 3.27.55 6.54 1.64 9.8.27.82 0 1.91-.55 2.72z"/></symbol><symbol viewBox="0 0 43 61" id="place" xmlns="http://www.w3.org/2000/svg"><path fill="#595959" d="M0 21.35C0 37.21 21.5 61 21.5 61S43 37.21 43 21.35A21.3 21.3 0 0 0 21.5 0 21.3 21.3 0 0 0 0 21.35zm13.82 0a7.57 7.57 0 0 1 7.68-7.62c4.3 0 7.68 3.35 7.68 7.62a7.58 7.58 0 0 1-7.68 7.63 7.58 7.58 0 0 1-7.68-7.63z"/></symbol></svg>