<svg xmlns="http://www.w3.org/2000/svg" xmlns:xlink="http://www.w3.org/1999/xlink" width="24" height="39" viewBox="0 0 24 39"><defs><path id="a" d="M1137.74 705.89v22.35c0 2.66-2.87 5.4-7.9 7.6-5.03-2.2-7.89-4.94-7.89-7.6v-22.35zm-7.14 33.86c7.15-2.92 11.09-7.01 11.09-11.51V702H1118v26.24c0 4.5 3.94 8.59 11.09 11.51l.75.3z"/><path id="b" d="M1120 727.29V703h19.74v24.29c0 3.8-3.77 7.23-9.87 9.72-6.1-2.49-9.87-5.92-9.87-9.72"/><path id="c" d="M1138.74 704.94v23.32c0 3.14-3.23 6.28-8.88 8.67-5.66-2.39-8.89-5.53-8.89-8.67v-23.32zm-8.5 33.94c6.75-2.76 10.47-6.53 10.47-10.62V703H1119v25.26c0 4.09 3.72 7.86 10.48 10.62l.38.15z"/><path id="d" d="M1125.17 713.97h9.46l1.48 1.46h-12.43zm12.13 2.43c.2 0 .38-.12.45-.3a.48.48 0 0 0-.1-.53l-2.47-2.43a.5.5 0 0 0-.35-.14h-9.87a.5.5 0 0 0-.35.14l-2.46 2.43a.46.46 0 0 0-.11.53c.07.18.25.3.45.3z"/><path id="e" d="M1122.49 715.49h14.31v11.66h-14.31zm14.56 12.14c.13 0 .25-.11.25-.24v-12.15c0-.13-.12-.24-.25-.24h-14.8a.25.25 0 0 0-.25.24v12.15c0 .13.11.24.25.24z"/><path id="f" d="M1125.49 718.49h1.98v1.94h-1.98zm2.22 2.43c.14 0 .25-.11.25-.25v-2.43a.25.25 0 0 0-.25-.24h-2.46a.25.25 0 0 0-.25.24v2.43c0 .14.11.25.25.25z"/><path id="g" d="M1125.49 723.49h1.98v1.94h-1.98zm2.22 2.43c.14 0 .25-.11.25-.25v-2.43a.25.25 0 0 0-.25-.24h-2.46a.25.25 0 0 0-.25.24v2.43c0 .14.11.25.25.25z"/><path id="h" d="M1132.49 723.49h1.98v1.94h-1.98zm2.22 2.43c.14 0 .25-.11.25-.25v-2.43a.25.25 0 0 0-.25-.24h-2.46a.25.25 0 0 0-.25.24v2.43c0 .14.11.25.25.25z"/><path id="i" d="M1128.49 723.48h1.98v4.38h-1.98zm2.22 4.86c.14 0 .25-.1.25-.24v-4.86a.25.25 0 0 0-.25-.24h-2.46a.25.25 0 0 0-.25.24v4.86c0 .14.11.24.25.24z"/><path id="j" d="M1132.49 718.49h1.98v1.94h-1.98zm2.22 2.43c.14 0 .25-.11.25-.25v-2.43a.25.25 0 0 0-.25-.24h-2.46a.25.25 0 0 0-.25.24v2.43c0 .14.11.25.25.25z"/><path id="k" d="M1130.47 718.49v2.79c0 .33-.36.68-.99.95-.63-.27-.99-.62-.99-.95v-2.79zm-.9 4.23c.9-.36 1.39-.88 1.39-1.44V718H1128v3.28c0 .56.49 1.08 1.38 1.44l.1.04z"/><path id="l" d="M1129 721.04V718h2.47v3.04c0 .47-.47.9-1.24 1.21-.76-.31-1.23-.74-1.23-1.21"/><path id="m" d="M1130.47 718.24v2.92c0 .39-.41.78-1.11 1.08-.71-.3-1.11-.69-1.11-1.08v-2.92zm-1.07 4.24c.85-.34 1.31-.81 1.31-1.32V718H1128v3.16c0 .51.47.98 1.31 1.32l.05.02z"/><path id="n" d="M1129.68 720.12h-.03l-.41-.96v.9l.15.02v.04h-.39v-.04l.15-.02v-.99l-.15-.03V719h.35l.37.86.4-.86h.33v.04l-.15.03v.99l.15.02v.04h-.47v-.04l.16-.02v-.9z"/><path id="o" d="M1129.23 721.12v-.04l.19-.02v-.99h-.05l-.18.01-.11.01-.02.17h-.06V720h1v.26h-.05l-.03-.17-.04-.01h-.07l-.09-.01h-.14v.99l.18.02v.04z"/><path id="p" d="M1130 718v4.25c.76-.31 1.23-.74 1.23-1.21V718z"/><path id="q" d="M1129 720.06h1.3V720h-1.3z"/><path id="r" d="M1139.86 728.24h-19.74a.12.12 0 0 1-.12-.12c0-.06.06-.12.12-.12h19.74c.07 0 .12.06.12.12 0 .07-.05.12-.12.12"/><path id="s" d="M1130.12 713.1a.12.12 0 0 1-.12-.12v-4.86c0-.07.05-.12.12-.12.07 0 .13.05.13.12v4.86c0 .07-.06.12-.13.12"/><path id="t" d="M1130.25 708.24h2.04l-1.02 1.01a.12.12 0 0 0 0 .17l1.02 1.01h-2.04zm2.35 2.43c.06 0 .12-.05.12-.12 0-.04-.03-.08-.06-.11l-1.13-1.1 1.15-1.13a.14.14 0 0 0 .02-.14.12.12 0 0 0-.11-.07h-2.47a.12.12 0 0 0-.12.12v2.43c0 .07.05.12.12.12z"/></defs><desc>Generated with Avocode.</desc><g transform="translate(-1118 -701)"><use fill="#fefefe" xlink:href="#a"/></g><g transform="translate(-1118 -701)"><use fill="#fefefe" xlink:href="#b"/></g><g transform="translate(-1118 -701)"><use fill="#623713" xlink:href="#c"/></g><g transform="translate(-1118 -701)"><use fill="#623713" xlink:href="#d"/></g><g transform="translate(-1118 -701)"><use fill="#623713" xlink:href="#e"/></g><g transform="translate(-1118 -701)"><use fill="#623713" xlink:href="#f"/></g><g transform="translate(-1118 -701)"><use fill="#623713" xlink:href="#g"/></g><g transform="translate(-1118 -701)"><use fill="#623713" xlink:href="#h"/></g><g transform="translate(-1118 -701)"><use fill="#623713" xlink:href="#i"/></g><g transform="translate(-1118 -701)"><use fill="#623713" xlink:href="#j"/></g><g transform="translate(-1118 -701)"><use fill="#fefefe" xlink:href="#k"/></g><g transform="translate(-1118 -701)"><use fill="#fefefe" xlink:href="#l"/></g><g transform="translate(-1118 -701)"><use fill="#623713" xlink:href="#m"/></g><g transform="translate(-1118 -701)"><use fill="#623713" xlink:href="#n"/></g><g transform="translate(-1118 -701)"><use fill="#623713" xlink:href="#o"/></g><g transform="translate(-1118 -701)"><use fill="#fefefe" xlink:href="#p"/></g><g transform="translate(-1118 -701)"><use fill="#623713" xlink:href="#q"/></g><g transform="translate(-1118 -701)"><use fill="#623713" xlink:href="#r"/></g><g transform="translate(-1118 -701)"><use fill="#623713" xlink:href="#s"/></g><g transform="translate(-1118 -701)"><use fill="#623713" xlink:href="#t"/></g></svg>