<svg xmlns="http://www.w3.org/2000/svg" xmlns:xlink="http://www.w3.org/1999/xlink" width="24" height="39" viewBox="0 0 24 39"><defs><path id="a" d="M1137.74 1099.89v22.35c0 2.66-2.87 5.41-7.9 7.6-5.03-2.19-7.89-4.94-7.89-7.6v-22.35zm-7.14 33.86c7.15-2.92 11.09-7.01 11.09-11.51V1096H1118v26.24c0 4.5 3.94 8.59 11.09 11.51l.75.31z"/><path id="b" d="M1120 1121.29V1097h19.74v24.29c0 3.8-3.77 7.23-9.87 9.72-6.1-2.49-9.87-5.92-9.87-9.72"/><path id="c" d="M1138.74 1098.94v23.33c0 3.13-3.23 6.28-8.88 8.66-5.66-2.39-8.89-5.53-8.89-8.66v-23.33zm-8.51 33.94c6.76-2.76 10.48-6.53 10.48-10.61V1097H1119v25.27c0 4.08 3.72 7.85 10.48 10.61l.38.15z"/><path id="d" d="M1130.25 1119.49a.25.25 0 0 1-.25-.24v-17.01a.25.25 0 0 1 .49 0v17.01c0 .13-.11.24-.24.24"/><path id="e" d="M1131.93 1107.89c0 .53-1.1.97-2.46.97-1.37 0-2.47-.44-2.47-.97 0-2.15 1.1-3.89 2.47-3.89 1.36 0 2.46 1.74 2.46 3.89"/><path id="f" d="M1136.87 1107.01c-.04 0-.07-.03-.07-.06 0-2.11-3.29-3.83-7.34-3.83-4.04 0-7.34 1.72-7.34 3.83 0 .03-.02.06-.06.06a.06.06 0 0 1-.06-.06c0-2.18 3.35-3.95 7.46-3.95 4.12 0 7.47 1.77 7.47 3.95 0 .03-.03.06-.06.06"/><path id="g" d="M1136.45 1107.1c-.06 0-.11-.04-.11-.11 0-2.08-2.72-3.77-6.06-3.77-3.34 0-6.06 1.69-6.06 3.77 0 .07-.05.11-.11.11s-.11-.04-.11-.11c0-2.2 2.82-3.99 6.28-3.99 3.46 0 6.28 1.79 6.28 3.99 0 .07-.05.11-.11.11"/><path id="h" d="M1132.18 1107.37a.25.25 0 0 1-.25-.24c0-2.01-.99-3.64-2.22-3.64-1.22 0-2.22 1.63-2.22 3.64a.25.25 0 0 1-.49 0c0-2.28 1.22-4.13 2.71-4.13 1.5 0 2.72 1.85 2.72 4.13 0 .13-.11.24-.25.24"/><path id="i" d="M1129.71 1108.46c-1.31 0-2.71-.43-2.71-1.22a.25.25 0 0 1 .49 0c0 .3.87.73 2.22.73 1.36 0 2.22-.43 2.22-.73 0-.13.11-.24.25-.24s.25.11.25.24c0 .79-1.4 1.22-2.72 1.22"/><path id="j" d="M1133.97 1108.21c-1.1 0-1.97-.48-1.97-1.09 0-.07.05-.12.12-.12.07 0 .13.05.13.12 0 .46.79.85 1.72.85.94 0 1.73-.39 1.73-.85 0-.07.06-.12.13-.12.06 0 .12.05.12.12 0 .61-.87 1.09-1.98 1.09"/><path id="k" d="M1125.97 1108.21c-1.1 0-1.97-.48-1.97-1.09 0-.07.05-.12.12-.12.07 0 .13.05.13.12 0 .46.79.85 1.72.85.94 0 1.73-.39 1.73-.85 0-.07.06-.12.13-.12.06 0 .12.05.12.12 0 .61-.87 1.09-1.98 1.09"/><path id="l" d="M1136.93 1107.24h-14.81a.12.12 0 0 1-.12-.12c0-.07.06-.12.12-.12h14.81c.07 0 .12.05.12.12 0 .07-.05.12-.12.12"/><path id="m" d="M1136.68 1108.09c-.38 0-.68-.46-.68-1.03 0-.03.03-.06.06-.06.04 0 .06.03.06.06 0 .5.25.91.56.91.3 0 .55-.41.55-.91 0-.03.03-.06.07-.06.03 0 .06.03.06.06 0 .57-.31 1.03-.68 1.03"/><path id="n" d="M1122.68 1108.09c-.38 0-.68-.46-.68-1.03 0-.03.03-.06.06-.06.04 0 .07.03.07.06 0 .5.24.91.55.91.3 0 .55-.41.55-.91 0-.03.03-.06.07-.06.03 0 .06.03.06.06 0 .57-.31 1.03-.68 1.03"/><path id="o" d="M1124.7 1123.91c-.62 0-1.23-.11-1.7-.35a4.15 4.15 0 0 0-2.93-.1l-.07-.24a4.43 4.43 0 0 1 3.11.13c.87.43 2.3.43 3.18 0a4.28 4.28 0 0 1 3.4 0c.88.43 2.3.43 3.18 0a4.33 4.33 0 0 1 3.37-.02l.03.02c.79.39 2.04.42 2.92.1l-.1.29c-.91.27-2.11.22-2.91-.16l-.02-.02a4.08 4.08 0 0 0-3.18 0c-.94.46-2.46.46-3.4 0a4.08 4.08 0 0 0-3.18 0c-.47.24-1.09.35-1.7.35"/><path id="p" d="M1133.64 1129.71a11.46 11.46 0 0 1-4.37-1.02 12.13 12.13 0 0 0-6.61-.85c-.23-.2-.45-.41-.66-.62 2.56-.46 5.55-.19 7.6.82 1.4.69 3.28 1.01 5.12.96-.34.24-.7.48-1.08.71"/><path id="q" d="M1133.57 1122.62c-.46 0-.92-.08-1.26-.25a3.08 3.08 0 0 0-2.42 0c-.69.34-1.82.34-2.52 0a3.06 3.06 0 0 0-2.41 0c-.69.34-1.83.34-2.52 0a3.06 3.06 0 0 0-2.41 0l-.03-.05v-.08c.7-.33 1.81-.32 2.49.02.67.32 1.75.33 2.42 0a3.16 3.16 0 0 1 2.52 0c.66.33 1.75.33 2.41 0 .7-.35 1.83-.35 2.52 0 .67.33 1.75.33 2.41 0 .7-.35 1.83-.35 2.53 0 .66.32 1.74.32 2.41 0l.02.04v.08c-.7.33-1.8.32-2.49-.01a3.06 3.06 0 0 0-2.41 0c-.35.17-.8.25-1.26.25"/><path id="r" d="M1127.5 1126.49c-.93 0-1.87-.18-2.58-.53a6.04 6.04 0 0 0-3.65-.35c-.1-.14-.18-.29-.27-.44a6.73 6.73 0 0 1 4.14.36c1.3.64 3.42.64 4.72 0 1.42-.7 3.73-.7 5.15 0 .93.45 2.27.58 3.44.39-.13.18-.27.36-.42.53a6.35 6.35 0 0 1-3.24-.49 6.02 6.02 0 0 0-4.71 0c-.71.35-1.65.53-2.58.53"/></defs><desc>Generated with Avocode.</desc><g transform="translate(-1118 -1095)"><use fill="#fefefe" xlink:href="#a"/></g><g transform="translate(-1118 -1095)"><use fill="#fefefe" xlink:href="#b"/></g><g transform="translate(-1118 -1095)"><use fill="#623713" xlink:href="#c"/></g><g transform="translate(-1118 -1095)"><use fill="#623713" xlink:href="#d"/></g><g transform="translate(-1118 -1095)"><use fill="#fefefe" xlink:href="#e"/></g><g transform="translate(-1118 -1095)"><use fill="#623713" xlink:href="#f"/></g><g transform="translate(-1118 -1095)"><use fill="#623713" xlink:href="#g"/></g><g transform="translate(-1118 -1095)"><use fill="#623713" xlink:href="#h"/></g><g transform="translate(-1118 -1095)"><use fill="#623713" xlink:href="#i"/></g><g transform="translate(-1118 -1095)"><use fill="#623713" xlink:href="#j"/></g><g transform="translate(-1118 -1095)"><use fill="#623713" xlink:href="#k"/></g><g transform="translate(-1118 -1095)"><use fill="#623713" xlink:href="#l"/></g><g transform="translate(-1118 -1095)"><use fill="#623713" xlink:href="#m"/></g><g transform="translate(-1118 -1095)"><use fill="#623713" xlink:href="#n"/></g><g transform="translate(-1118 -1095)"><use fill="#623713" xlink:href="#o"/></g><g transform="translate(-1118 -1095)"><use fill="#623713" xlink:href="#p"/></g><g transform="translate(-1118 -1095)"><use fill="#623713" xlink:href="#q"/></g><g transform="translate(-1118 -1095)"><use fill="#623713" xlink:href="#r"/></g></svg>