<svg xmlns="http://www.w3.org/2000/svg" xmlns:xlink="http://www.w3.org/1999/xlink" width="25" height="39" viewBox="0 0 25 39"><defs><path id="a" d="M927 1055.32V1030h22.61v25.32c0 3.96-4.32 7.54-11.3 10.13-6.99-2.59-11.31-6.17-11.31-10.13z"/><path id="b" d="M948.61 1031.03v24.3c0 3.27-3.7 6.55-10.17 9.03-6.48-2.48-10.18-5.76-10.18-9.03v-24.3zm-9.74 35.37c7.74-2.88 12-6.8 12-11.07V1029H926v26.33c0 4.27 4.26 8.19 12.01 11.07l.43.16z"/><path id="c" d="M937.93 1034.61l4.97 4.45h-9.93zm5.67 4.96c.16 0 .28-.11.28-.25 0-.1-.05-.18-.14-.22l-5.61-5.03c-.1-.09-.29-.09-.4 0l-5.65 5.07a.23.23 0 0 0-.06.27c.05.1.15.16.26.16z"/><path id="d" d="M938.56 1050.51h5.09v4.56h-5.09zm5.37 5.06c.16 0 .29-.11.29-.25v-5.07c0-.14-.13-.25-.29-.25h-5.65c-.15 0-.28.11-.28.25v5.07c0 .14.13.25.28.25z"/><path id="e" d="M932.56 1050.51h5.09v4.56h-5.09zm5.37 5.06c.16 0 .28-.11.28-.25v-5.07c0-.14-.12-.25-.28-.25h-5.65c-.15 0-.28.11-.28.25v5.07c0 .14.13.25.28.25z"/><path id="f" d="M941.03 1044.06c-.14-1.41-1.48-2.53-3.1-2.53s-2.95 1.12-3.09 2.53h-2.27v-4.55h10.73v4.55zm2.56.51c.15 0 .28-.11.28-.25v-5.07c0-.14-.13-.25-.28-.25h-11.31c-.15 0-.28.11-.28.25v5.07c0 .14.13.25.28.25h2.83c.15 0 .28-.11.28-.25 0-1.26 1.14-2.28 2.54-2.28 1.41 0 2.55 1.02 2.55 2.28 0 .14.12.25.28.25z"/><path id="g" d="M932.57 1045.51h2.27c.14 1.41 1.48 2.53 3.1 2.53s2.95-1.12 3.09-2.53h2.28v4.56h-10.74zm11.02 5.06c.15 0 .28-.11.28-.25v-5.07c0-.14-.13-.25-.28-.25h-2.83c-.15 0-.28.11-.28.25 0 1.26-1.14 2.28-2.54 2.28-1.41 0-2.55-1.02-2.55-2.28 0-.14-.13-.25-.28-.25h-2.83c-.15 0-.28.11-.28.25v5.07c0 .14.13.25.28.25z"/><path id="h" d="M935.84 1052.48h-1.03l.35-.81.06-.14.05-.13.04-.1.02-.05.01.05.04.1.05.13.06.14zm.8.98l-1.1-2.46h-.42l-1.12 2.46h.38l.32-.72h1.25l.32.72z"/><path id="i" d="M941.71 1052.74a.4.4 0 0 1-.15.34c-.1.08-.26.12-.47.12h-.72v-.89h.7c.22 0 .37.03.48.11.11.07.16.18.16.32zm.37 0c0-.1-.02-.2-.05-.29a.97.97 0 0 0-.19-.22.83.83 0 0 0-.3-.14 1.73 1.73 0 0 0-.42-.05h-.75v-.77h1.43v-.27H940v2.46h1.14c.16 0 .3-.02.41-.06a.7.7 0 0 0 .48-.38.87.87 0 0 0 .05-.28z"/></defs><desc>Generated with Avocode.</desc><g transform="translate(-926 -1028)"><use fill="#fefefe" xlink:href="#a"/></g><g transform="translate(-926 -1028)"><use fill="#623713" xlink:href="#b"/></g><g transform="translate(-926 -1028)"><use fill="#623713" xlink:href="#c"/></g><g transform="translate(-926 -1028)"><use fill="#623713" xlink:href="#d"/></g><g transform="translate(-926 -1028)"><use fill="#623713" xlink:href="#e"/></g><g transform="translate(-926 -1028)"><use fill="#623713" xlink:href="#f"/></g><g transform="translate(-926 -1028)"><use fill="#623713" xlink:href="#g"/></g><g transform="translate(-926 -1028)"><use fill="#623713" xlink:href="#h"/></g><g transform="translate(-926 -1028)"><use fill="#623713" xlink:href="#i"/></g></svg>