<svg xmlns="http://www.w3.org/2000/svg" xmlns:xlink="http://www.w3.org/1999/xlink" width="24" height="39" viewBox="0 0 24 39"><defs><path id="a" d="M1136.74 971.89v22.35c0 2.66-2.87 5.4-7.9 7.6-5.03-2.2-7.89-4.94-7.89-7.6v-22.35zm-7.14 33.86c7.15-2.92 11.09-7.01 11.09-11.51V968H1117v26.24c0 4.5 3.94 8.59 11.09 11.51l.75.3z"/><path id="b" d="M1119 993.29V969h19.74v24.29c0 3.8-3.77 7.23-9.87 9.72-6.1-2.49-9.87-5.92-9.87-9.72"/><path id="c" d="M1137.74 970.94v23.32c0 3.14-3.23 6.28-8.88 8.66-5.65-2.38-8.89-5.52-8.89-8.66v-23.32zm-8.51 33.94c6.76-2.76 10.48-6.53 10.48-10.62V969H1118v25.26c0 4.09 3.72 7.86 10.48 10.62l.38.15z"/><path id="d" d="M1121 992.29a7.35 7.35 0 0 1 7.4-7.29c4.09 0 7.4 3.26 7.4 7.29z"/><path id="e" d="M1135.93 992.53c-.07 0-.13-.05-.13-.12a7.23 7.23 0 0 0-7.27-7.17 7.23 7.23 0 0 0-7.28 7.17c0 .07-.06.12-.13.12a.12.12 0 0 1-.12-.12 7.48 7.48 0 0 1 7.53-7.41 7.47 7.47 0 0 1 7.52 7.41c0 .07-.05.12-.12.12"/><path id="f" d="M1128.4 977h-7.4l1.23 7.29c0 .33 1.11.61 2.47.61s2.47-.28 2.47-.61z"/><path id="g" d="M1128.36 977.49l-1.18 7.01c-.09.14-.92.4-2.23.4s-2.14-.26-2.23-.41l-1.18-7zm-3.41 7.89c.28 0 2.71-.02 2.71-.81l1.23-7.29a.24.24 0 0 0-.05-.2.27.27 0 0 0-.19-.08h-7.4a.27.27 0 0 0-.19.08.25.25 0 0 0-.06.2l1.23 7.25c0 .83 2.44.85 2.72.85z"/><path id="h" d="M1128.4 976.61c0 .33-1.65.61-3.7.61-2.04 0-3.7-.28-3.7-.61 0-.34 1.66-.61 3.7-.61 2.05 0 3.7.27 3.7.61"/><path id="i" d="M1121.6 976.85c.38-.15 1.52-.36 3.35-.36s2.97.21 3.35.36c-.38.15-1.52.37-3.35.37s-2.98-.22-3.35-.37zm3.35.85c.93 0 3.95-.06 3.95-.85s-3.02-.85-3.95-.85c-.93 0-3.95.06-3.95.85s3.02.85 3.95.85z"/><path id="j" d="M1128.99 977.11c-.07 0-.13-.05-.13-.12a3.78 3.78 0 0 0-3.81-3.75c-2.1 0-3.8 1.68-3.8 3.75 0 .07-.06.12-.13.12a.12.12 0 0 1-.12-.12c0-2.2 1.82-3.99 4.05-3.99a4.03 4.03 0 0 1 4.06 3.99c0 .07-.06.12-.12.12"/><path id="k" d="M1132.82 984.04a.2.2 0 0 1-.11-.03c-.12-.06-.17-.2-.12-.32l2.31-4.7a.37.37 0 0 0-.2-.48.39.39 0 0 0-.28.01.34.34 0 0 0-.2.19v.01l-1.74 4.92c-.04.13-.19.19-.32.15a.25.25 0 0 1-.15-.31l1.75-4.94.02-.04c.09-.2.25-.35.45-.44a.94.94 0 0 1 .66 0c.44.18.65.67.48 1.1l-.01.03-2.32 4.71a.26.26 0 0 1-.22.14"/><path id="l" d="M1133.56 988.48c.26-.62-.55-1.54-1.81-2.05-1.26-.51-2.49-.43-2.75.19l.47-1.12a2.48 2.48 0 0 1 3.23-1.31 2.42 2.42 0 0 1 1.33 3.17z"/><path id="m" d="M1130.25 986.1c-.41 0-.75.08-.98.24l.32-.76a2.4 2.4 0 0 1 3.14-1.28c.6.24 1.06.7 1.31 1.28.24.59.24 1.23 0 1.82l-.32.76c-.11-.6-.85-1.3-1.88-1.72a4.34 4.34 0 0 0-1.59-.34zm3.37 2.5c.03 0 .05-.01.06-.03l.47-1.13a2.49 2.49 0 0 0-2.34-3.44c-1.02 0-1.94.6-2.33 1.54l-.48 1.12c-.01.03.01.07.04.08.03.01.07 0 .08-.03v-.01c.13-.31.54-.48 1.13-.48.47 0 1.02.11 1.54.33 1.22.5 2.02 1.38 1.77 1.97-.01.03.01.07.04.08h.02z"/><path id="n" d="M1133.81 987.85l-.1-.02a.24.24 0 0 1-.13-.32c.22-.54.23-1.13 0-1.67a2.25 2.25 0 0 0-1.2-1.19 2.24 2.24 0 0 0-2.91 1.19.25.25 0 0 1-.32.13.25.25 0 0 1-.13-.32c.28-.66.8-1.17 1.47-1.44.67-.28 1.4-.28 2.08 0a2.64 2.64 0 0 1 1.46 3.49.25.25 0 0 1-.22.15"/><path id="o" d="M1133.25 988.61a.36.36 0 0 1-.1-.02.25.25 0 0 1-.13-.32l.47-1.12a.25.25 0 0 1 .32-.13c.13.05.19.19.14.32l-.48 1.12a.25.25 0 0 1-.22.15"/><path id="p" d="M1129.25 986.61l-.1-.02a.25.25 0 0 1-.13-.32l.47-1.12c.05-.13.2-.18.32-.13.13.05.19.19.14.32l-.47 1.12c-.05.09-.14.15-.23.15"/><path id="q" d="M1126.75 988.24h-1.63a.12.12 0 0 1-.12-.12c0-.06.06-.12.12-.12h1.63c.07 0 .12.06.12.12 0 .07-.05.12-.12.12"/><path id="r" d="M1131.05 989.24h-.93a.12.12 0 0 1-.12-.12c0-.07.05-.12.12-.12h.93c.07 0 .13.05.13.12 0 .07-.06.12-.13.12"/><path id="s" d="M1128.2 990.24h-3.08a.12.12 0 0 1-.12-.12c0-.06.05-.12.12-.12h3.08c.07 0 .12.06.12.12 0 .07-.05.12-.12.12"/><path id="t" d="M1131.82 991.24h-.7a.12.12 0 0 1-.12-.12c0-.07.05-.12.12-.12h.7c.07 0 .12.05.12.12 0 .07-.05.12-.12.12"/><path id="u" d="M1135.34 990.24h-1.22a.12.12 0 0 1-.12-.12c0-.06.06-.12.12-.12h1.22c.07 0 .13.06.13.12 0 .07-.06.12-.13.12"/><path id="v" d="M1122.76 991.24h-.64a.12.12 0 0 1-.12-.12c0-.07.05-.12.12-.12h.64c.07 0 .12.05.12.12 0 .07-.05.12-.12.12"/></defs><desc>Generated with Avocode.</desc><g transform="translate(-1117 -967)"><use fill="#fefefe" xlink:href="#a"/></g><g transform="translate(-1117 -967)"><use fill="#fefefe" xlink:href="#b"/></g><g transform="translate(-1117 -967)"><use fill="#623713" xlink:href="#c"/></g><g transform="translate(-1117 -967)"><use fill="#fefefe" xlink:href="#d"/></g><g transform="translate(-1117 -967)"><use fill="#623713" xlink:href="#e"/></g><g transform="translate(-1117 -967)"><use fill="#fefefe" xlink:href="#f"/></g><g transform="translate(-1117 -967)"><use fill="#623713" xlink:href="#g"/></g><g transform="translate(-1117 -967)"><use fill="#fefefe" xlink:href="#h"/></g><g transform="translate(-1117 -967)"><use fill="#623713" xlink:href="#i"/></g><g transform="translate(-1117 -967)"><use fill="#623713" xlink:href="#j"/></g><g transform="translate(-1117 -967)"><use fill="#623713" xlink:href="#k"/></g><g transform="translate(-1117 -967)"><use fill="#fefefe" xlink:href="#l"/></g><g transform="translate(-1117 -967)"><use fill="#623713" xlink:href="#m"/></g><g transform="translate(-1117 -967)"><use fill="#623713" xlink:href="#n"/></g><g transform="translate(-1117 -967)"><use fill="#623713" xlink:href="#o"/></g><g transform="translate(-1117 -967)"><use fill="#623713" xlink:href="#p"/></g><g transform="translate(-1117 -967)"><use fill="#623713" xlink:href="#q"/></g><g transform="translate(-1117 -967)"><use fill="#623713" xlink:href="#r"/></g><g transform="translate(-1117 -967)"><use fill="#623713" xlink:href="#s"/></g><g transform="translate(-1117 -967)"><use fill="#623713" xlink:href="#t"/></g><g transform="translate(-1117 -967)"><use fill="#623713" xlink:href="#u"/></g><g transform="translate(-1117 -967)"><use fill="#623713" xlink:href="#v"/></g></svg>