<svg xmlns="http://www.w3.org/2000/svg" xmlns:xlink="http://www.w3.org/1999/xlink" width="24" height="39" viewBox="0 0 24 39"><defs><path id="a" d="M947.74 773.89v22.35c0 2.66-2.87 5.4-7.9 7.6-5.03-2.2-7.89-4.94-7.89-7.6v-22.35zm-7.14 33.86c7.15-2.92 11.09-7.01 11.09-11.51V770H928v26.24c0 4.5 3.94 8.59 11.09 11.51l.75.31z"/><path id="b" d="M930 795.29V771h19.74v24.29c0 3.8-3.77 7.23-9.87 9.72-6.1-2.49-9.87-5.92-9.87-9.72"/><path id="c" d="M948.74 772.94v23.33c0 3.13-3.23 6.27-8.88 8.66-5.66-2.38-8.89-5.53-8.89-8.66v-23.33zm-8.51 33.94c6.76-2.76 10.48-6.53 10.48-10.61V771H929v25.27c0 4.09 3.72 7.85 10.48 10.61l.38.15z"/><path id="d" d="M936.77 783.46l-.06.01c-.68.33-1.46.17-1.96-.32a1.72 1.72 0 0 1-.49-1.01l1.12 1.11c.04.03.08.04.12.03l1.38-.36c.04-.01.07-.04.09-.09l.36-1.35c.02-.04 0-.09-.03-.12l-1.12-1.1a1.7 1.7 0 0 1 1.35 2.41c-.02.05-.01.1.02.14l6.16 6.07c.04.03.09.04.14.02a1.72 1.72 0 0 1 2.46 1.33l-1.13-1.11c-.03-.03-.07-.04-.11-.03l-1.38.36a.14.14 0 0 0-.09.09l-.37 1.35c-.01.05 0 .09.03.12l1.13 1.11a1.78 1.78 0 0 1-1.02-.49 1.64 1.64 0 0 1-.33-1.93.12.12 0 0 0-.03-.14l-6.16-6.06a.1.1 0 0 0-.08-.04zm7.82 8.91c.07 0 .13-.05.13-.12v-.1a.13.13 0 0 0-.04-.09l-1.19-1.17.33-1.22 1.24-.33 1.19 1.17c.02.03.05.04.09.04h.11c.07 0 .12-.05.12-.12v-.04a1.98 1.98 0 0 0-.58-1.34 2 2 0 0 0-2.16-.41l-6.04-5.94c.1-.25.16-.51.16-.76a1.96 1.96 0 0 0-1.97-1.94c-.07 0-.13.06-.13.12v.11c0 .03.02.06.04.08l1.19 1.17-.33 1.22-1.24.33-1.19-1.17a.15.15 0 0 0-.09-.04h-.1c-.07 0-.13.06-.13.12 0 .52.21 1.01.58 1.38.55.54 1.4.73 2.16.41l6.04 5.95a1.88 1.88 0 0 0 .42 2.12c.37.37.87.57 1.39.57z"/><path id="e" d="M937.25 788.79a.24.24 0 0 1-.18-.07.25.25 0 0 1 0-.34l10.47-10.31c.1-.09.25-.09.35 0 .1.1.1.25 0 .35l-10.47 10.3a.23.23 0 0 1-.17.07"/><path id="f" d="M935.61 793.79a.12.12 0 0 1-.08-.2c1.87-1.85 2.65-4.08 1.74-4.98-.91-.9-3.18-.13-5.06 1.71-.05.05-.13.05-.17 0-.05-.04-.05-.12 0-.17 1.97-1.94 4.39-2.71 5.4-1.71 1.01.99.23 3.38-1.74 5.32-.02.02-.05.03-.09.03"/><path id="g" d="M934.74 793.2a.12.12 0 0 1-.09-.04c-.04-.04-.04-.12 0-.17 1.85-1.81 2.85-3.9 2.18-4.55-.3-.3-.96-.26-1.8.12-.9.4-1.9 1.12-2.82 2.03-.05.05-.13.05-.17 0-.05-.05-.05-.13 0-.17a10.3 10.3 0 0 1 2.88-2.08c.96-.43 1.7-.45 2.09-.07.78.77-.18 2.92-2.18 4.89a.12.12 0 0 1-.09.04"/><path id="h" d="M934.87 792.64a.16.16 0 0 1-.09-.03c-.05-.05-.05-.13 0-.17 2.01-1.98 2.99-3.76 2.62-4.13-.37-.36-2.18.61-4.19 2.58-.05.05-.13.05-.17 0-.05-.05-.05-.13 0-.17 1.73-1.71 3.91-3.19 4.53-2.58.62.62-.88 2.76-2.61 4.47a.16.16 0 0 1-.09.03"/><path id="i" d="M934.12 792.68a.1.1 0 0 1-.08-.04c-.05-.04-.05-.12 0-.17l3.49-3.43c.04-.05.12-.05.17 0 .05.05.05.12 0 .17l-3.49 3.43c-.02.03-.05.04-.09.04"/><path id="j" d="M934 792.12c-.04 0-.07-.01-.09-.03-.05-.05-.05-.13 0-.17 2-1.97 3.04-3.4 3.05-3.69-.3 0-1.75 1.03-3.75 3-.05.05-.13.05-.17 0-.05-.05-.05-.13 0-.17.14-.15 3.58-3.52 4.1-3.01.51.51-2.91 3.89-3.06 4.04a.11.11 0 0 1-.08.03"/></defs><desc>Generated with Avocode.</desc><g transform="translate(-928 -769)"><use fill="#fefefe" xlink:href="#a"/></g><g transform="translate(-928 -769)"><use fill="#fefefe" xlink:href="#b"/></g><g transform="translate(-928 -769)"><use fill="#623713" xlink:href="#c"/></g><g transform="translate(-928 -769)"><use fill="#623713" xlink:href="#d"/></g><g transform="translate(-928 -769)"><use fill="#623713" xlink:href="#e"/></g><g transform="translate(-928 -769)"><use fill="#623713" xlink:href="#f"/></g><g transform="translate(-928 -769)"><use fill="#623713" xlink:href="#g"/></g><g transform="translate(-928 -769)"><use fill="#623713" xlink:href="#h"/></g><g transform="translate(-928 -769)"><use fill="#623713" xlink:href="#i"/></g><g transform="translate(-928 -769)"><use fill="#623713" xlink:href="#j"/></g></svg>