<svg xmlns="http://www.w3.org/2000/svg" xmlns:xlink="http://www.w3.org/1999/xlink" width="46" height="39" viewBox="0 0 46 39"><defs><path id="a" d="M11.68 57.35a.5.5 0 0 0-.66 0c-.17.16-.35.29-.55.4a.92.92 0 0 1-.6-.25.26.26 0 0 0-.33 0 .21.21 0 0 0 0 .31c.1.09.2.16.32.21a3.13 3.13 0 0 1-3.11-.67 2.76 2.76 0 0 1-.89-2c0-.37.08-.73.23-1.08l4.35-4.07a6.74 6.74 0 0 1-.64-1.24l-4.7 4.39a3.21 3.21 0 0 1-3.29-.61 2.73 2.73 0 0 1-.72-2.91c.07.11.14.21.23.29.09.09.24.09.33 0a.2.2 0 0 0 0-.3.87.87 0 0 1-.27-.56c.12-.19.27-.36.44-.52a.41.41 0 0 0 0-.61.5.5 0 0 0-.66 0A3.58 3.58 0 0 0 0 50.74c0 .94.39 1.89 1.16 2.61a4.08 4.08 0 0 0 2.79 1.08l-.49.46a.62.62 0 0 0 0 .92c.27.26.71.26.98 0l.49-.45c0 .94.39 1.88 1.16 2.6a4.1 4.1 0 0 0 5.59 0 .41.41 0 0 0 0-.61"/><path id="b" d="M39.67 20.87c.18 0 .36.06.5.19.13.13.2.29.2.46 0 .17-.07.33-.2.46h-.01a.69.69 0 0 1-.49.19l-.14-.01a.54.54 0 0 0-.19-.33.7.7 0 0 0-.35-.18l-.01-.13a.6.6 0 0 1 .2-.46.7.7 0 0 1 .49-.19zm-.54 2.08a1.7 1.7 0 0 0 1.69-.35 1.44 1.44 0 0 0 0-2.15 1.72 1.72 0 0 0-2.3-.01c-.31.3-.47.69-.47 1.08 0 .17.03.34.1.51l-.86.8-2.55-2.38-1.15 1.07 2.55 2.38L32 27.77v1.85l5.13-4.8 2.55 2.39 1.15-1.08-2.55-2.38z"/><path id="c" d="M39.83 51.05a6.7 6.7 0 0 0-2.18-4.92.48.48 0 0 0-.65 0 .41.41 0 0 0 0 .61c.27.26.51.54.73.83.03.13.05.27.05.4 0 .5-.21 1-.62 1.39a.2.2 0 0 0 0 .3c.09.09.24.09.33 0 .41-.37.64-.85.72-1.34a5.76 5.76 0 0 1-.75 6.54l-6.71-6.27a6.8 6.8 0 0 1-.33.73l-.3.52 6.36 5.95a6.84 6.84 0 0 1-7 .69 2.63 2.63 0 0 0 1.44-.67.2.2 0 0 0 0-.3.24.24 0 0 0-.33 0 2.18 2.18 0 0 1-1.92.52c-.31-.2-.6-.42-.88-.68a.48.48 0 0 0-.65 0 .4.4 0 0 0 0 .62A7.7 7.7 0 0 0 32.39 58a7.7 7.7 0 0 0 4.86-1.7c.21.02.41-.04.57-.18a.64.64 0 0 0 .2-.53 6.69 6.69 0 0 0 1.81-4.54"/><path id="d" d="M2.96 22.83a.59.59 0 0 0-.19.33l-.14.01a.73.73 0 0 1-.5-.19.65.65 0 0 1-.2-.46c0-.17.07-.33.2-.46a.73.73 0 0 1 .5-.19.7.7 0 0 1 .49.19c.14.13.2.29.2.46l-.01.13a.7.7 0 0 0-.35.18zm5.75-.31l-1.15-1.07-2.55 2.38-.85-.8c.06-.17.09-.34.09-.51 0-.39-.15-.78-.47-1.07v-.01a1.72 1.72 0 0 0-2.3 0c-.32.3-.48.69-.48 1.08 0 .39.16.78.48 1.08a1.69 1.69 0 0 0 1.69.35l.86.8-2.55 2.38 1.15 1.08 2.55-2.38 4.4 4.11V28.1l-3.42-3.2z"/><path id="e" d="M20.49 54.2A7.16 7.16 0 0 1 20 54l.51 1.16.51-1.15-.51.2-.02-.01"/><path id="f" d="M28.6 45.6c0 .71-.18 1.4-.55 2.1a9.25 9.25 0 0 1-2.92 3.07 20.84 20.84 0 0 1-4.93 2.57 20.03 20.03 0 0 1-6.12-3.57 7.83 7.83 0 0 1-1.67-2.07 4.42 4.42 0 0 1-.55-2.1V24.74H28.6zM10 23v22.6c0 1 .26 1.96.74 2.87a11.1 11.1 0 0 0 3.46 3.69 26.32 26.32 0 0 0 5.67 2.94l.36.14.35-.14a22.66 22.66 0 0 0 7.1-4.09 9.54 9.54 0 0 0 2.04-2.54c.47-.91.74-1.87.74-2.87V23z"/><path id="g" d="M25.9 29.32V29h-2.46l-3.05 6.11L17.6 29H15v.32l1.1.15v7.08l-1.1.16v.32h2.93v-.32l-1.16-.16v-6.42l3.15 6.9h.23l.3-.62 3.12-6.28v6.42l-1.15.16v.32h3.48v-.32l-1.1-.16v-7.08z"/><path id="h" d="M20.78 42H17v1.89h.43l.17-1.25c.16-.04.43-.06.81-.09.38-.02.85-.04 1.41-.04h.33v7.04l-1.37.16v.32H22.75v-.32l-1.37-.16v-7.02h.32a17.05 17.05 0 0 1 1.38.03l.53.03c.15.01.26.03.34.05l.18 1.25h.43V42z"/><path id="i" d="M16 39.43h9.76V39H16z"/></defs><desc>Generated with Avocode.</desc><g transform="translate(0 -20)"><use fill="#bd9c69" xlink:href="#a"/></g><g transform="translate(0 -20)"><use fill="#bd9c69" xlink:href="#b"/></g><g transform="translate(0 -20)"><use fill="#bd9c69" xlink:href="#c"/></g><g transform="translate(0 -20)"><use fill="#bd9c69" xlink:href="#d"/></g><g transform="translate(0 -20)"><use fill="#bd9c69" xlink:href="#e"/></g><g transform="translate(0 -20)"><use fill="#bd9c69" xlink:href="#f"/></g><g transform="translate(0 -20)"><use fill="#bd9c69" xlink:href="#g"/></g><g transform="translate(0 -20)"><use fill="#bd9c69" xlink:href="#h"/></g><g transform="translate(0 -20)"><use fill="#bd9c69" xlink:href="#i"/></g></svg>